<svg xmlns="http://www.w3.org/2000/svg" viewBox="0 0 145.84 132.62">
    <defs>
        <style>.cls-1,.cls-2{fill:#ffca36;}.cls-2{opacity:0.3;}.cls-3{opacity:0.75;}</style>
    </defs>

    <g id="图层_1-2">
        <path class="cls-1"
              d="M36.32,79.91c-7.55,8.86-20.08,19.16-26.39,25.88C2.1,114.11-4.35,123.4,3.71,128.56s21.2,6.75,29.65-3.37c15.39-18.45,7.59-42.64,16.76-56S98.8-2.4,138.39,1.8c-10.6-5.51-34.64,1.31-57.92,24.88C60.43,47,51.64,62,36.32,79.91Z"/>
        <path class="cls-2"
              d="M138.39,1.8c13,2.88,9.93,41.93-16.56,65.12C97.27,88.42,61,85.31,35.3,113.75l10.41-40.6S94.93-7.83,138.39,1.8Z"/>
        <path class="cls-1"
              d="M46.55,70.15c7-8.87,25.45-9.81,34.68-4a17.31,17.31,0,0,1,4,3.42c-8.68-8.45-30.33-8-38.73.59Z"/>
        <path class="cls-1"
              d="M61.08,51.4C64,47.83,68.57,46.08,73,45.05c11.08-2.32,23.46-.71,32.83,5.89a24.15,24.15,0,0,1,4.88,4.75,26.41,26.41,0,0,0-5.16-4.35c-11-7.44-34.25-9.54-44.42.06Z"/>
        <path class="cls-1"
              d="M76.88,32.76c10.68-10.94,36.77-7.23,46.64,3.45a27,27,0,0,0-5.13-3.58c-11.16-6.09-31.19-8.61-41.51.13Z"/>
        <path class="cls-1"
              d="M94.73,16.27c8.94-7.66,25.41-9.23,35.37-2.76.68.48,1.3,1,1.94,1.56a23.33,23.33,0,0,0-4.31-2.4c-10.3-4-23.79-2.51-33,3.6Z"/>
    </g>

</svg>