<svg xmlns="http://www.w3.org/2000/svg" xmlns:xlink="http://www.w3.org/1999/xlink" viewBox="0 0 714.28 440.55"><defs><style>.cls-1{fill:url(#未命名的渐变_54);}.cls-2{fill:url(#未命名的渐变_75);}.cls-3{fill:url(#未命名的渐变_62);}.cls-4{fill:url(#未命名的渐变_112);}.cls-5{fill:url(#未命名的渐变_109);}.cls-6{fill:url(#未命名的渐变_110);}.cls-7{fill:url(#未命名的渐变_111);}.cls-8{fill:url(#未命名的渐变_114);}</style><linearGradient id="未命名的渐变_54" y1="143.91" x2="704.98" y2="143.91" gradientUnits="userSpaceOnUse"><stop offset="0" stop-color="#ffca36"/><stop offset="1" stop-color="#f6752d"/></linearGradient><linearGradient id="未命名的渐变_75" x1="417.67" y1="358.3" x2="713.64" y2="358.3" gradientUnits="userSpaceOnUse"><stop offset="0" stop-color="#ffca36"/><stop offset="1" stop-color="#f14528"/></linearGradient><linearGradient id="未命名的渐变_62" x1="209.3" y1="142.01" x2="544.48" y2="142.01" gradientUnits="userSpaceOnUse"><stop offset="0" stop-color="#ffca36"/><stop offset="0.75" stop-color="#f8842f"/></linearGradient><linearGradient id="未命名的渐变_112" x1="281.23" y1="359.4" x2="554.16" y2="359.4" gradientUnits="userSpaceOnUse"><stop offset="0" stop-color="#ffca36"/><stop offset="1" stop-color="#ef2e26"/></linearGradient><linearGradient id="未命名的渐变_109" x1="560.1" y1="210.89" x2="713.73" y2="210.89" gradientUnits="userSpaceOnUse"><stop offset="0" stop-color="#ffca36"/><stop offset="1" stop-color="#f03827"/></linearGradient><linearGradient id="未命名的渐变_110" x1="405.53" y1="185.95" x2="551.95" y2="185.95" gradientUnits="userSpaceOnUse"><stop offset="0" stop-color="#ffca36"/><stop offset="1" stop-color="#fa9631"/></linearGradient><linearGradient id="未命名的渐变_111" x1="578.75" y1="291.61" x2="714.28" y2="291.61" gradientUnits="userSpaceOnUse"><stop offset="0" stop-color="#ffca36"/><stop offset="1" stop-color="#f13f28"/></linearGradient><linearGradient id="未命名的渐变_114" x1="23.99" y1="295.77" x2="162.74" y2="295.77" gradientUnits="userSpaceOnUse"><stop offset="0" stop-color="#ffca36"/><stop offset="1" stop-color="#f24d29"/></linearGradient></defs><g id="图层_2" data-name="图层 2"><g id="图层_1-2" data-name="图层 1"><path class="cls-1" d="M0,285.59c11.3-6.09,22.33-12.8,34-18.17,34.69-16,71.54-23.89,109.37-27.76,49.12-5,98.37-3.41,147.59-2.79,41.45.53,82.87.82,124.16-3.94C501.31,223,576.93,189.14,642.33,132.3c13.42-11.67,25-25.06,32.83-41.2C682,77,685.13,62.27,679.66,47,668.56,15.91,630,6.41,602.54,27.78c-16.56,12.88-28,38.46-10.37,64.52-3.13-3.23-6.92-6-9.26-9.75-11-17.43-8.4-34.92,1.43-51.71,13.32-22.75,42.75-35,69.6-29.56,25.19,5.09,46,27.27,50,53.15,3.5,22.35-2.59,42.51-13.83,61.5-15.22,25.73-37,45.06-60.8,62.51-65.1,47.82-138.06,74.9-218.31,83.18-52.23,5.39-104.39,3.54-156.61.39-42.12-2.55-84.24-5.45-126.5-3-40.52,2.34-79.76,10.47-117.53,25.44-3.13,1.23-6.33,2.26-9.5,3.39C.61,287.08.3,286.34,0,285.59Z"/><path class="cls-2" d="M418.83,276.05c1.62.89,3.3,1.69,4.86,2.68,19.83,12.46,41.75,18.27,64.86,19,21.07.71,42.18.25,63.27.16,30.54-.12,60.8,1.88,89.85,12.41,20.49,7.44,38.78,18.51,53.3,35,14.86,16.85,22.53,36.27,16.73,58.85-5,19.28-17.39,32.15-37.36,35.57-19.48,3.33-35.73-3.37-47.09-19.83-12.84-18.62-6-43.78,14.27-54a10.9,10.9,0,0,1,2.3-.41c-3.26,5.1-6.49,9.44-9,14.18-8.07,15.41-2.48,31.75,13.16,39.22,21.42,10.22,43.56-5,41.76-28.68-.93-12.34-6.32-22.57-14.89-31.2-18.22-18.35-40.71-29-65.89-32.31-27.64-3.65-55.6-5-83.42-7.32-27-2.29-53.87-5.24-78.19-18.29-8.43-4.53-15.88-10.93-23.54-16.79-2.46-1.88-4.14-4.77-6.17-7.2Z"/><path class="cls-3" d="M496.21,62c21-4.09,46.34,6.75,48.14,35,1.21,18.9-6,34.92-17.77,49.12-16.24,19.6-37.86,29.76-62.19,35.42-38.83,9-78.31,10-117.87,10.15-27,.12-54.16.19-80.22,8.21-15.33,4.72-30,11.64-44.88,17.77-4,1.64-7.65,4-12.12,5.28,1.4-1.21,2.73-2.5,4.19-3.6A180.76,180.76,0,0,1,309.16,183c28.76-2.33,57.69-2.45,86.54-3.8,27-1.26,53.8-4.46,79.72-12.55,20.31-6.33,37.32-17.75,49.87-35.21a62.75,62.75,0,0,0,11.62-29.35C539,85.23,530.19,71,514,65.88,508.48,64.11,502.63,63.34,496.21,62Z"/><path class="cls-4" d="M281.87,291.17a12.74,12.74,0,0,1,1.82.77c28.06,17.32,59.26,25.2,91.39,29.88,28.76,4.19,57.68,7.22,86.43,11.45,22.47,3.31,44.26,9.28,63.88,21.37,10,6.16,18.7,13.73,24.32,24.28,10,18.72,2.75,37.95-17.14,45.45-9,3.37-18.18,4.47-27.67,1.67,3.46-.48,7.07-.48,10.35-1.54,6.61-2.15,13.63-3.94,19.43-7.57,12.32-7.71,14.78-20.82,7.11-33.18-7-11.28-17.83-17.95-29.38-23.59-21.28-10.4-44.08-15.24-67.42-17.85-32.47-3.63-65-6.7-96.55-16-20-5.87-39.16-13.44-56.3-25.5-3.79-2.67-7.28-5.78-10.91-8.69C281.45,291.82,281.66,291.49,281.87,291.17Z"/><path class="cls-5" d="M680.15,177.23c12.76-7.45,29.29,1.55,32.81,17.14,2.4,10.64-.82,19.51-9.1,26.48-10.16,8.53-22.36,12-35.22,13-17.61,1.33-35.36,1.14-52.86,3.23-16.87,2-33.49,6.13-50.22,9.33a24.38,24.38,0,0,1-5.46.79c9.14-7.42,19.83-11.65,30.76-15.34,17.46-5.89,35.59-7.3,53.86-8,10-.38,20.17-.8,30-2.55,6.74-1.2,13.43-4.07,19.49-7.38,9.12-5,11.9-12,9.72-20.84a21.2,21.2,0,0,0-18.74-15.86C683.54,177.1,681.84,177.23,680.15,177.23Z"/><path class="cls-6" d="M552,152.86c-2.26,3.73-3.79,6.67-5.7,9.34-13.42,18.81-32,30.24-53.5,37.81-26.05,9.18-52.68,15.81-80.15,18.89a15.22,15.22,0,0,1-7.07-.66c1.54-.45,3.08-.92,4.62-1.35,24.89-6.78,49.91-13.09,74.62-20.46,25.8-7.68,48.47-20.67,65-42.68C550,153.53,550.39,153.49,552,152.86Z"/><path class="cls-7" d="M714.28,309.65c-5-4-10.29-7.66-15-12-17.06-15.76-37.75-20.12-60.08-20-19.18.09-38.36-.12-57.55-.22a4.56,4.56,0,0,1-2.93-.95,14.74,14.74,0,0,1,3.22-.94c19.16-1.25,38.3-2.76,57.47-3.48,7.91-.3,15.93.76,23.81,1.86,21.09,2.93,35.92,15.28,47.32,32.45a41.1,41.1,0,0,1,2.4,4.84Z"/><path class="cls-8" d="M24,296c21-4.86,41.81-10.86,63-14.29,27.74-4.49,52.16,4,72.23,24a13.09,13.09,0,0,1,3.48,5.31c-1.25-.91-2.52-1.78-3.72-2.73-25-19.73-53-25.85-84.1-19.2-14.83,3.16-29.83,5.52-44.77,8.13a34.53,34.53,0,0,1-6,0C24.08,296.84,24,296.42,24,296Z"/></g></g></svg>