<svg xmlns="http://www.w3.org/2000/svg" xmlns:xlink="http://www.w3.org/1999/xlink" viewBox="0 0 1196.15 736.57">
    <defs>
        <style>
            .cls-1{fill:url(#未命名的渐变_127);}.cls-2{fill:url(#未命名的渐变_143);}.cls-3{fill:url(#未命名的渐变_117);}.cls-4{fill:url(#未命名的渐变_120);}.cls-5{fill:url(#未命名的渐变_141);}.cls-6{fill:url(#未命名的渐变_106);}.cls-7{fill:url(#未命名的渐变_142);}.cls-8{fill:url(#未命名的渐变_113);}
        </style>
        <linearGradient id="未命名的渐变_127" y1="241.17" x2="1181.05" y2="241.17" gradientUnits="userSpaceOnUse">
            <stop offset="0" stop-color="#2496d2"/>
            <stop offset="1" stop-color="#bbdac7"/>
        </linearGradient>
        <linearGradient id="未命名的渐变_143" x1="712" y1="471.59" x2="1182.87" y2="666.63" gradientUnits="userSpaceOnUse">
            <stop offset="0" stop-color="#2088ca"/>
            <stop offset="0.98" stop-color="#c0dac9"/>
        </linearGradient>
        <linearGradient id="未命名的渐变_117" x1="941.54" y1="389.28" x2="1194.69" y2="328.28" gradientUnits="userSpaceOnUse">
            <stop offset="0" stop-color="#429dca"/>
            <stop offset="0.72" stop-color="#bcdbc8"/>
        </linearGradient>
        <linearGradient id="未命名的渐变_120" x1="971.11" y1="450.39" x2="1174.19" y2="496.12" gradientUnits="userSpaceOnUse">
            <stop offset="0" stop-color="#469ac7"/>
            <stop offset="0.44" stop-color="#c1dbca"/>
        </linearGradient>
        <linearGradient id="未命名的渐变_141" x1="671.04" y1="586.9" x2="934.04" y2="689.29"
                        gradientTransform="matrix(1, 0, 0, -1, 0, 959.54)" gradientUnits="userSpaceOnUse">
            <stop offset="0" stop-color="#3e90bc"/>
            <stop offset="0.4" stop-color="#bddcc8"/>
        </linearGradient>
        <linearGradient id="未命名的渐变_106" x1="57.75" y1="534.66" x2="268.86" y2="483.79" gradientUnits="userSpaceOnUse">
            <stop offset="0" stop-color="#469ac7"/>
            <stop offset="0.44" stop-color="#b4d6c0"/>
        </linearGradient>
        <linearGradient id="未命名的渐变_142" x1="361.8" y1="310.11" x2="916.93" y2="176.33" gradientUnits="userSpaceOnUse">
            <stop offset="0" stop-color="#3a96c7"/>
            <stop offset="0.72" stop-color="#bbdbca"/>
        </linearGradient>
        <linearGradient id="未命名的渐变_113" x1="440.26" y1="637.33" x2="921.15" y2="521.44"
                        gradientTransform="matrix(1, 0, 0, -1, 0, 1183.33)" gradientUnits="userSpaceOnUse">
            <stop offset="0" stop-color="#469ac7"/>
            <stop offset="0.77" stop-color="#bcdac8"/>
        </linearGradient>
    </defs>
    <g id="图层_2">
        <g id="图层_1-2">
            <path class="cls-1"
                  d="M0,482.35c37.47-29.35,85.75-47.62,127.83-60,54.51-16,137.71-26.23,192.27-27.35,68.48-1.41,284.48,6,384.07-5.91,124.56-14.92,220.69-54.49,311.57-119.32,72.2-51.5,119-100.28,127.13-146.11,10.54-59.81-28.9-82.31-39-88.06-65.35-37-168.64,40-107.11,118.93,0,0-31.51-11-30-63.1,1.67-56.82,72.55-103.83,131.44-88.57,63.4,16.43,99.35,77.84,75.38,157.24-24.81,82.2-156.77,176.77-277.27,226.77-113.37,47-246.64,63.8-415.49,54.32-137.63-7.73-218.46-13-288.58-5.93C120.28,442.54,78.34,455.58,0,482.35Z"/>
            <path class="cls-2"
                  d="M700.59,460c65.15,40.58,125.61,41.54,180.87,39.7,72.63-2.42,168.76-2.69,235.67,39,56.88,35.43,93.76,86.76,71.76,148.11-13,36.18-48.08,51.7-77.52,49.54-35.81-2.63-62.62-30.07-68.31-53.5-8.51-35.06,13.77-66.11,40.5-72.52-19.55,18.25-31.85,43.71-20.89,67.32,7.91,17,28.46,31.43,54.93,28,30-3.91,49.64-39.07,34.37-77-11.83-29.41-53-64.08-107.46-78.49C1002.29,539,943.33,536.59,897,534.88c-42.38-1.56-91.46-10.21-121.88-20.67C745.07,503.9,714.23,483.05,700.59,460Z"/>
            <path class="cls-3"
                  d="M934.85,416.82c47.81-37.42,123.12-41.31,155-41.5,22.35-.13,47.59-3.17,64.18-10.52,15.42-6.84,31.62-16,25.24-45.2-1.67-7.65-14.52-25.83-41.88-23.2,16.1-7.63,31.92-4.58,42.44,5.41,12,11.39,22.31,30.31,11.09,54.41-10.7,23-48,32.92-69.6,35.25-15.56,1.68-68.67,2.21-105.83,5.48C976.94,400.34,934.85,416.82,934.85,416.82Z"/>
            <path class="cls-4"
                  d="M959.89,463c31.25-3.4,124.85-10.71,155.54-3.85,19.53,4.36,56.2,14.35,80.72,65.66,0,0-20.36-30.27-53.18-46.62-35.58-17.73-69-13.59-95.27-12.95C1017,466,988.88,465.81,959.89,463Z"/>
            <path class="cls-5"
                  d="M662.85,367.93c60.75,0,141.67-24.37,175.64-38.89,30.34-13,65.15-33,89.59-78.21,0,0-22.3,30-47.21,46.54-35.4,23.42-63.75,31.44-89,38.95A1289.15,1289.15,0,0,1,662.85,367.93Z"/>
            <path class="cls-6"
                  d="M37.47,496.58c36.75-3.66,88.16-30.31,144.33-25.86,19.94,1.58,60.69,8.12,97.28,54.09,0,0-18.29-16.87-51.11-33.22-35.58-17.72-60.6-12.12-86.95-9.77C110.39,484.55,78.79,499.75,37.47,496.58Z"/>
            <path class="cls-7"
                  d="M348.75,377.17c64.95-58.49,150.91-71.48,204.61-73.48,51.64-1.93,166.26,3.2,243.3-23.53,40.62-14.1,82.93-43.46,98.73-84.41,11.65-30.21,5.34-53.29-3.83-66.14-12.75-17.89-37.67-25-63-24.93,13-4.7,32.1-2.46,44.85,2.39,16.72,6.35,37.33,24.44,39.28,51.19,2.45,33.78-11,93.58-81.8,126.5-77.58,36.09-188,34.44-256,35.09C469.91,320.86,436.9,329.6,348.75,377.17Z"/>
            <path class="cls-8"
                  d="M469.74,484.73C511.9,529.64,587,547.77,644.88,560c46.33,9.82,146.11,9.35,206.4,38.59,36.32,17.61,60.49,34.62,64.9,62.37,3.94,24.81-21.4,53.13-74,52,18.14,4.6,48.83,5.27,70.79-14.48,13.62-12.25,23.9-34.3,9.07-64.58-11.33-23.12-39.46-41.23-57.79-49.62C840.56,573.56,820,564.57,768,557.06c-63.18-9.12-112.8-10.28-157.18-20.81C573.15,527.33,523.78,516.59,469.74,484.73Z"/>
        </g>
    </g>
</svg>