<svg xmlns="http://www.w3.org/2000/svg" xmlns:xlink="http://www.w3.org/1999/xlink" viewBox="0 0 5.64 7.31">
    <defs>
        <style>.cls-1{fill:none;}.cls-2{clip-path:url(#clip-path);}.cls-3{fill:#ffc000; opacity:.7}</style>
        <clipPath id="clip-path" transform="translate(-1.75 -0.92)">
            <rect class="cls-1" width="9.14" height="9.14"/>
        </clipPath>
    </defs>
    <g id="图层_2" data-name="图层 2">
        <g id="图层_1-2" data-name="图层 1">
            <g class="cls-2">
                <path class="cls-3" d="M4.11,3.45a.46.46,0,0,0,.91,0,.46.46,0,1,0-.91,0"
                      transform="translate(-1.75 -0.92)"/>
                <path class="cls-3"
                      d="M4.57,1.69A2.09,2.09,0,0,0,2.52,3.82a5.52,5.52,0,0,0,.79,2.34c.56,1,1.05,1.3,1.25,1.3s.68-.35,1.24-1.3a5.3,5.3,0,0,0,.82-2.34,2.09,2.09,0,0,0-2-2.13m0,6.54C3.75,8.23,3,7.17,2.65,6.54a6.18,6.18,0,0,1-.9-2.72,2.94,2.94,0,0,1,.82-2,3,3,0,0,1,.9-.62,2.75,2.75,0,0,1,2.2,0,3,3,0,0,1,.9.62,2.94,2.94,0,0,1,.82,2.05,6.14,6.14,0,0,1-.93,2.73A5.38,5.38,0,0,1,5.6,7.68a1.57,1.57,0,0,1-1,.55"
                      transform="translate(-1.75 -0.92)"/>
            </g>
        </g>
    </g>
</svg>