<svg width="379" height="155" viewBox="0 0 379 155" fill="none" xmlns="http://www.w3.org/2000/svg">
<g opacity="0.7">
<path d="M190.306 43.591L139.633 57.7408C130.262 60.3552 122.314 66.5849 117.536 75.0597C112.758 83.5344 111.541 93.56 114.155 102.931C114.707 105.016 115.463 107.042 116.413 108.978M173.778 124.418L235.739 107.164C242.124 105.384 247.907 101.908 252.475 97.1037C257.042 92.2997 260.224 86.3478 261.679 79.8808C263.135 73.4137 262.81 66.6731 260.741 60.3755C258.672 54.0778 254.936 48.4588 249.929 44.1151M293.063 108.978L312.01 117.041C316.446 118.923 321.21 119.912 326.029 119.953C330.847 119.994 335.627 119.086 340.095 117.28C344.562 115.474 348.631 112.805 352.068 109.426C355.504 106.048 358.241 102.026 360.123 97.5894C362.005 93.1531 362.994 88.3898 363.035 83.571C363.076 78.7522 362.168 73.9726 360.362 69.5049C358.556 65.0372 355.887 60.9686 352.508 57.5322C349.13 54.0957 345.108 51.3585 340.672 49.4765L318.701 40.1641" stroke="#FFBF00" stroke-width="31.4439" stroke-miterlimit="10" stroke-linecap="round"/>
<path d="M71.9879 115.91L91.0154 131.027C98.6331 137.084 108.345 139.866 118.015 138.763C127.684 137.659 136.519 132.759 142.575 125.141C148.632 117.524 151.415 107.812 150.311 98.1423C149.207 88.473 144.308 79.638 136.69 73.5812L98.9569 43.5889" stroke="#F58F2B" stroke-width="31.4439" stroke-miterlimit="10" stroke-linecap="round"/>
<path d="M98.9572 43.5888L74.7696 24.2385C67.1197 18.4969 57.5317 15.9664 48.0448 17.1853C38.5579 18.4041 29.9215 23.2764 23.9714 30.7652C18.0213 38.254 15.2274 47.7685 16.1844 57.2853C17.1415 66.8022 21.774 75.5702 29.0961 81.7244L72.1497 115.909" stroke="#FFBF00" stroke-width="31.4439" stroke-miterlimit="10" stroke-linecap="round"/>
<path d="M318.701 40.1226L267.666 18.4742C258.768 15.0314 248.879 15.1869 240.094 18.9072C231.308 22.6276 224.315 29.6212 220.595 38.4071C216.875 47.193 216.721 57.0815 220.165 65.9793C223.608 74.8772 230.379 82.0855 239.044 86.0786L293.063 108.976" stroke="#F58F2B" stroke-width="31.4439" stroke-miterlimit="10" stroke-linecap="round"/>
<path d="M116.413 108.979C120.147 116.746 126.494 122.953 134.343 126.512C142.191 130.072 151.042 130.758 159.345 128.45L173.777 124.418M249.929 44.116C245.355 40.1296 239.861 37.3422 233.943 36.0052C228.025 34.6682 221.868 34.8234 216.025 36.4565L190.306 43.5919" stroke="#FFBF00" stroke-width="31.4439" stroke-miterlimit="10" stroke-linecap="round"/>
</g>
</svg>
