<svg width="35" height="35" viewBox="0 0 35 35" fill="none" xmlns="http://www.w3.org/2000/svg">
<path d="M27.2986 22.5229C25.3449 24.151 18.833 28.3839 15.5226 30.5546V25.1277C15.5226 24.7823 15.3853 24.4511 15.141 24.2069C14.8968 23.9626 14.5656 23.8253 14.2202 23.8253H13.5683C12.1766 23.9064 10.7835 23.7033 9.47295 23.2277C8.16245 22.7522 6.96178 22.0143 5.94598 21.0595C4.93018 20.1046 4.12073 18.9522 3.56508 17.6736C3.00942 16.395 2.71948 15.0168 2.71447 13.6226C2.71447 10.744 3.85882 7.98346 5.89431 5.94797C7.9298 3.91248 10.6897 2.76879 13.5683 2.76879H20.7866C23.6652 2.76879 26.4251 3.91248 28.4606 5.94797C30.4961 7.98346 31.6404 10.744 31.6404 13.6226C31.597 15.3463 31.1872 17.0413 30.4387 18.5945C29.6902 20.1477 28.6197 21.5237 27.2986 22.6315V22.5229ZM20.7322 0.00100427H13.514C11.7334 -0.0208463 9.96696 0.314073 8.31761 0.98543C6.66826 1.65679 5.17006 2.65104 3.91088 3.91022C2.6517 5.1694 1.65679 6.6676 0.98543 8.31695C0.314073 9.9663 -0.0208463 11.7334 0.00100427 13.514C0.00811599 15.203 0.348383 16.8744 1.00133 18.4322C1.65427 19.9899 2.60684 21.4038 3.80621 22.5931C5.00559 23.7824 6.42848 24.7238 7.99168 25.3635C9.55488 26.0033 11.2287 26.3286 12.9178 26.3215V32.9428C12.8773 33.1762 12.8773 33.4149 12.9178 33.6483C13.0414 33.8239 13.2027 33.9689 13.3908 34.0723C13.5789 34.1758 13.7885 34.2348 14.0029 34.2452C14.2315 34.3238 14.4792 34.3238 14.7078 34.2452C15.1962 34.2452 25.942 27.0816 28.764 24.6938C30.3967 23.3821 31.7266 21.733 32.6633 19.8598C33.5999 17.9865 34.1212 15.9332 34.1909 13.8399V13.8399C34.2493 12.0389 33.9435 10.2444 33.2926 8.56405C32.6417 6.88367 31.6593 5.35177 30.4029 4.05994C29.1466 2.76811 27.6419 1.74309 25.9803 1.04571C24.3187 0.348341 22.5342 -0.00723741 20.7322 0.00100427V0.00100427Z" fill="#FFC000"/>
</svg>
