<svg width="33" height="33" viewBox="0 0 33 33" fill="none" xmlns="http://www.w3.org/2000/svg">
<path d="M16.7625 31.5223C19.682 31.5223 22.535 30.6567 24.9625 29.0347C27.39 27.4127 29.2828 25.1073 30.4 22.41C31.5173 19.7128 31.8096 16.7448 31.2401 13.8814C30.6705 11.018 29.2647 8.38776 27.2003 6.32336C25.1359 4.25896 22.505 2.8532 19.6416 2.28364C16.7782 1.71407 13.8103 2.0064 11.113 3.12365C8.41573 4.24089 6.11031 6.13237 4.48833 8.55985C2.86634 10.9873 2.0001 13.8417 2.0001 16.7612C1.99293 18.7017 2.36979 20.6245 3.10907 22.4187C3.84835 24.2128 4.93665 25.8428 6.30878 27.2149C7.68092 28.587 9.31089 29.674 11.105 30.4133C12.8992 31.1526 14.822 31.5294 16.7625 31.5223V31.5223Z" stroke="#FFC000" stroke-width="2.44212"/>
<path d="M9.27258 16.8154H24.3052" stroke="#FFC000" stroke-width="1.89942" stroke-linecap="round"/>
<path d="M16.7617 24.3041V9.27148" stroke="#FFC000" stroke-width="1.89942" stroke-linecap="round"/>
</svg>
