<svg width="16" height="29" viewBox="0 0 16 29" fill="none" xmlns="http://www.w3.org/2000/svg">
<mask id="mask0_108_532" style="mask-type:alpha" maskUnits="userSpaceOnUse" x="0" y="0" width="16" height="29">
<rect width="16" height="29" transform="matrix(-1 0 0 1 16 0)" fill="#D9D9D9"/>
</mask>
<g mask="url(#mask0_108_532)">
<path d="M-1.37474 1.97278L-4.84776 9.03815L-13.4455 10.2744C-15.0353 10.2744 -15.5058 11.629 -14.3871 12.8066L-8.08648 18.6946L-9.61743 27.6446C-9.68945 27.9145 -9.67238 28.2003 -9.56855 28.4596C-9.46472 28.719 -9.27938 28.9378 -9.04098 29.0835C-8.80259 29.2292 -8.52422 29.2942 -8.24604 29.2682C-7.96786 29.2423 -7.7059 29.127 -7.49853 28.9398L0.391962 24.8184L8.40033 29.0576C9.46018 29.5876 10.5779 29.0578 10.3424 27.7624L8.8704 18.6946L15.3478 12.3947C16.5843 11.276 15.9358 10.216 14.4638 9.98044L5.63169 8.74346L2.15866 1.67809C0.922174 -0.559364 -0.373771 -0.559364 -1.37474 1.67809" fill="#FFC000"/>
</g>
</svg>
