<svg width="31" height="31" viewBox="0 0 31 31" fill="none" xmlns="http://www.w3.org/2000/svg">
<path d="M9.74742 2H6.08247C3.82779 2 2 3.82779 2 6.08248V9.74742C2 12.0021 3.82779 13.8299 6.08247 13.8299H9.74742C12.0021 13.8299 13.8299 12.0021 13.8299 9.74742V6.08248C13.8299 3.82779 12.0021 2 9.74742 2Z" stroke="#FFC000" stroke-width="2.18041"/>
<path d="M9.74742 17.1702H6.08247C3.82779 17.1702 2 18.9979 2 21.2526V24.9176C2 27.1723 3.82779 29.0001 6.08247 29.0001H9.74742C12.0021 29.0001 13.8299 27.1723 13.8299 24.9176V21.2526C13.8299 18.9979 12.0021 17.1702 9.74742 17.1702Z" stroke="#FFC000" stroke-width="2.18041"/>
<path d="M25.1957 2H21.5307C19.276 2 17.4482 3.82779 17.4482 6.08248V9.74742C17.4482 12.0021 19.276 13.8299 21.5307 13.8299H25.1957C27.4504 13.8299 29.2781 12.0021 29.2781 9.74742V6.08248C29.2781 3.82779 27.4504 2 25.1957 2Z" stroke="#FFC000" stroke-width="2.18041"/>
<path d="M25.1957 17.1702H21.5307C19.276 17.1702 17.4482 18.9979 17.4482 21.2526V24.9176C17.4482 27.1723 19.276 29.0001 21.5307 29.0001H25.1957C27.4504 29.0001 29.2781 27.1723 29.2781 24.9176V21.2526C29.2781 18.9979 27.4504 17.1702 25.1957 17.1702Z" stroke="#FFC000" stroke-width="2.18041"/>
</svg>
