<svg width="30" height="29" viewBox="0 0 30 29" fill="none" xmlns="http://www.w3.org/2000/svg">
<path d="M14.9255 28.4756C11.0449 28.401 0.000117731 18.3562 0.000117731 8.83383C-0.0113674 6.64178 0.817844 4.52871 2.3171 2.92951C3.81635 1.3303 5.87158 0.366631 8.05982 0.236816C9.44546 0.322358 10.7908 0.736517 11.9847 1.44505C13.1786 2.15358 14.1866 3.13613 14.9255 4.31144C15.6692 3.12737 16.6865 2.13923 17.8916 1.43016C19.0968 0.72109 20.4546 0.311833 21.8509 0.236816C24.0417 0.362953 26.1007 1.32502 27.6031 2.92461C29.1055 4.52421 29.9368 6.63934 29.9255 8.83383C29.9255 18.3413 18.7912 28.401 15.0001 28.4756H14.9255ZM7.98519 2.47562C6.38585 2.58992 4.89111 3.31274 3.8084 4.49539C2.72568 5.67805 2.13731 7.23064 2.1643 8.83383C2.1643 17.401 12.6121 26.1473 14.9255 26.2368C17.2389 26.3264 27.6867 17.401 27.6867 8.83383C27.7134 7.23219 27.1246 5.68134 26.0415 4.50109C24.9585 3.32084 23.4638 2.60119 21.8658 2.49055C18.0897 2.49055 15.9852 6.86368 15.9703 6.96816C15.8692 7.1552 15.7194 7.31142 15.5368 7.4203C15.3542 7.52918 15.1456 7.58667 14.933 7.58667C14.7204 7.58667 14.5117 7.52918 14.3291 7.4203C14.1465 7.31142 13.9967 7.1552 13.8956 6.96816C13.8956 6.96816 11.7613 2.49055 8.00012 2.49055L7.98519 2.47562Z" fill="#FFC000"/>
</svg>
