<svg width="36" height="36" viewBox="0 0 36 36" fill="none" xmlns="http://www.w3.org/2000/svg">
<path d="M17.2188 18.5332C18.3641 18.6676 19.5234 18.5547 20.6227 18.202C21.7219 17.8493 22.7361 17.2649 23.5969 16.4868C24.4577 15.7088 25.1464 14.7547 25.6181 13.6875C26.0897 12.6202 26.3332 11.4637 26.3332 10.2941C26.3332 9.12446 26.0897 7.9679 25.6181 6.90065C25.1464 5.8334 24.4577 4.87938 23.5969 4.1013C22.7361 3.32322 21.7219 2.73887 20.6227 2.38615C19.5234 2.03344 18.3641 1.92054 17.2188 2.05492C15.2264 2.2887 13.3872 3.25733 12.0529 4.7765C10.7187 6.29566 9.98157 8.25936 9.98157 10.2941C9.98157 12.3288 10.7187 14.2925 12.0529 15.8116C13.3872 17.3308 15.2264 18.2994 17.2188 18.5332V18.5332Z" stroke="#FFC000" stroke-width="2.44212" stroke-linecap="round" stroke-linejoin="round"/>
<path d="M34 34.0002C33.3405 30.1811 31.3745 26.7201 28.4481 24.2262C25.5217 21.7323 21.8219 20.3655 18 20.3655C14.1781 20.3655 10.4783 21.7323 7.55188 24.2262C4.62548 26.7201 2.65949 30.1811 2 34.0002" stroke="#FFC000" stroke-width="2.44212" stroke-linecap="round" stroke-linejoin="round"/>
</svg>
