<svg width="32" height="33" viewBox="0 0 32 33" fill="none" xmlns="http://www.w3.org/2000/svg">
<path d="M0.0917168 12.6365C0.370977 11.6591 1.20876 10.961 2.18617 10.5421C2.88432 10.2628 3.02395 9.7043 2.88432 9.00615C2.74469 8.58726 2.74469 8.16837 2.74469 7.60985C2.88432 6.21355 3.86173 5.23614 5.39767 5.0965C7.07323 4.95687 7.07323 4.95687 7.49212 3.42094C8.05064 1.74538 9.44695 0.907597 11.2621 1.60575C12.7981 2.16427 12.7981 2.16427 13.9151 1.04723C15.1718 -0.349076 16.8473 -0.349076 18.104 1.04723C19.2211 2.16427 19.2211 2.16427 20.6174 1.60575C22.4326 0.907597 23.9685 1.60575 24.527 3.42094C24.9459 4.95687 24.9459 4.95687 26.6215 4.95687C28.4367 5.09651 29.5537 6.35318 29.2744 8.16837C28.9952 9.42504 29.4141 10.1232 30.5311 10.6817C32.067 11.3799 32.4859 13.1951 31.3689 14.5914C30.5311 15.5688 30.5311 16.4066 31.3689 17.384C32.4859 18.7803 32.067 20.5955 30.5311 21.4332C29.4141 21.9918 28.9952 22.6899 29.2744 23.9466C29.6933 25.7618 28.5763 27.0185 26.7611 27.1581C25.0855 27.2977 25.0855 27.2977 24.6666 28.8337C24.1081 30.6488 22.5722 31.347 20.8966 30.6488C19.3607 30.0903 19.3607 30.0903 18.3833 31.2074C17.9644 31.6263 17.5455 32.0451 16.987 32.3244C16.5681 32.464 16.0096 32.464 15.5907 32.3244C14.8925 32.0451 14.334 31.4866 13.9151 31.0677C13.217 30.5092 12.6584 30.3696 11.8207 30.6488C9.58658 31.6263 8.19027 30.9281 7.49212 28.5544C7.21286 27.8562 6.79397 27.4373 5.95619 27.4373C5.5373 27.4373 5.11841 27.4373 4.83915 27.2977C3.44284 26.8788 2.74469 25.6222 3.02395 23.9466C3.16358 23.1088 3.30321 22.4107 2.3258 21.9918C1.20876 21.5729 0.370977 20.8747 0.231347 19.7577C0.231347 19.4784 0.0917167 19.1992 0.231347 18.9199C0.370977 18.2217 0.929498 17.6632 1.20876 17.1047C1.62765 16.5462 1.62765 15.9877 1.20876 15.4291C0.789868 14.8706 0.370977 14.4517 0.231347 13.7536C-0.0479136 13.4743 -0.0479135 13.0554 0.0917168 12.6365ZM21.5948 28.9733C22.2929 28.9733 22.5722 28.694 22.8514 27.9959C23.41 26.041 23.9685 25.6222 26.0629 25.3429C27.18 25.2033 27.4592 24.7844 27.3196 23.6673C27.0404 21.7125 27.3196 21.0144 28.9952 20.0369C29.9726 19.4784 30.1122 18.9199 29.4141 18.0821C28.297 16.4066 28.297 15.7084 29.4141 14.0328C29.9726 13.0554 29.9726 12.6365 28.9952 12.078C27.18 11.1006 26.9007 10.4025 27.18 8.44763C27.3196 7.19096 27.0404 6.9117 25.9233 6.77207C23.9685 6.63244 23.41 6.07392 22.8514 4.25872C22.4326 3.14168 22.0137 2.86242 20.8966 3.42094C19.2211 4.11909 18.2437 3.97946 17.1266 2.58316C16.2888 1.60575 15.8699 1.60575 14.8925 2.58316C13.6359 3.97946 12.7981 4.11909 11.1225 3.42094C9.86584 3.14168 9.44694 3.42094 9.16768 4.67761C8.60916 6.35318 7.91101 6.9117 6.23545 7.05133C4.69952 7.19096 4.55989 7.33059 4.83915 9.00615C5.11841 10.6817 4.69952 11.3799 3.30321 12.2176C2.04654 12.9158 2.04654 13.3347 2.74469 14.4517C3.7221 15.848 3.7221 16.8254 2.74469 18.0821C1.90691 19.3388 2.04654 19.7577 3.30321 20.4558C4.69952 21.2936 5.11841 22.1314 4.83915 23.807C4.55989 25.2033 4.83915 25.4825 6.37508 25.6222C7.91101 25.7618 8.74879 26.3203 9.16768 27.8562C9.58657 29.3922 10.0055 29.5318 11.4018 28.8337C12.7981 28.2751 13.7755 28.5544 14.7529 29.5318C16.0096 30.7885 16.1492 30.7885 17.4059 29.5318C18.3833 28.5544 19.3607 28.2751 20.757 28.8337C21.0363 28.8337 21.4551 28.9733 21.5948 28.9733Z" fill="#FFC000"/>
<path d="M25.3649 16.2666C25.3649 21.4329 21.176 25.6218 16.1493 25.6218C10.983 25.6218 6.79407 21.4329 6.79407 16.2666C6.79407 11.1003 10.983 7.051 16.1493 7.051C21.176 6.91137 25.3649 11.1003 25.3649 16.2666ZM23.2704 16.2666C23.2704 12.2173 20.0589 9.00582 16.0097 9.00582C11.9604 9.00582 8.60926 12.2173 8.60926 16.2666C8.60926 20.3159 11.8208 23.667 15.87 23.667C20.0589 23.5274 23.2704 20.3159 23.2704 16.2666Z" fill="#FFC000"/>
<path d="M15.451 19.0596C15.1718 19.0596 15.0321 18.9199 14.7529 18.7803L12.7981 16.8255C12.3792 16.4066 12.3792 15.8481 12.7981 15.4292C13.2169 15.0103 13.7755 15.0103 14.1944 15.4292L15.5907 16.8255L18.6625 13.7536C19.0814 13.3347 19.6399 13.3347 20.0588 13.7536C20.4777 14.1725 20.4777 14.731 20.0588 15.1499L16.0096 18.7803C15.8699 18.9199 15.5907 19.0596 15.451 19.0596Z" fill="#FFC000"/>
</svg>
