<svg width="45" height="31" viewBox="0 0 45 31" fill="none" xmlns="http://www.w3.org/2000/svg">
<path d="M24.2291 27.8216H13.3752C12.2669 27.8216 11.2043 27.381 10.4206 26.5974C9.63694 25.8137 9.19636 24.751 9.19636 23.6428V4.75717L13.3209 8.82737C13.4458 8.96212 13.5968 9.07006 13.7647 9.14469C13.9327 9.21932 14.1136 9.25884 14.2974 9.26128C14.666 9.24474 15.0158 9.08994 15.2752 8.82737C15.4065 8.70081 15.5099 8.54871 15.5812 8.38087C15.6526 8.21303 15.6899 8.0326 15.6899 7.85023C15.6899 7.66786 15.6526 7.48743 15.5812 7.31959C15.5099 7.15175 15.4065 7.00032 15.2752 6.87375L8.81611 0.415367C8.68955 0.284059 8.53877 0.179983 8.37093 0.108645C8.20309 0.0373065 8.022 0 7.83963 0C7.65726 0 7.4775 0.0373065 7.30966 0.108645C7.14182 0.179983 6.98972 0.284059 6.86315 0.415367L0.40543 6.87375C0.146354 7.13283 0 7.48384 0 7.85023C0 8.21662 0.146354 8.56829 0.40543 8.82737C0.664506 9.08644 1.01552 9.23214 1.38191 9.23214C1.74829 9.23214 2.09931 9.08644 2.35838 8.82737L6.42858 4.75717V23.6428C6.42858 25.4851 7.16096 27.2522 8.46367 28.555C9.76639 29.8577 11.5329 30.5894 13.3752 30.5894H24.2291C24.5938 30.5754 24.9393 30.4206 25.1923 30.1575C25.4453 29.8944 25.5861 29.5434 25.5858 29.1783C25.5858 28.8185 25.4427 28.4735 25.1883 28.2191C24.9339 27.9647 24.5889 27.8216 24.2291 27.8216ZM43.8752 21.7435C43.7486 21.6122 43.5965 21.5074 43.4287 21.4361C43.2608 21.3648 43.0797 21.3281 42.8974 21.3281C42.715 21.3281 42.5352 21.3648 42.3674 21.4361C42.1996 21.5074 42.0475 21.6122 41.9209 21.7435L37.7964 25.868V6.92808C37.7964 5.10015 37.0697 3.34685 35.7772 2.05431C34.4846 0.761771 32.732 0.0357732 30.9041 0.0357732H20.0502C19.6904 0.0357732 19.3454 0.178817 19.091 0.433253C18.8365 0.68769 18.6935 1.03268 18.6935 1.3925C18.6932 1.75751 18.834 2.10852 19.087 2.37163C19.34 2.63474 19.6855 2.78952 20.0502 2.80356H30.9041C31.9979 2.80356 33.0468 3.23775 33.8202 4.01124C34.5937 4.78472 35.0286 5.8342 35.0286 6.92808V25.868L30.9584 21.7435C30.6993 21.4844 30.3483 21.3387 29.9819 21.3387C29.6155 21.3387 29.2645 21.4844 29.0054 21.7435C28.7464 22.0026 28.6 22.3536 28.6 22.72C28.6 23.0863 28.7464 23.438 29.0054 23.6971L35.4632 30.1548C35.5881 30.2896 35.7391 30.3975 35.907 30.4721C36.0749 30.5468 36.2559 30.587 36.4396 30.5894C36.8083 30.5729 37.1568 30.4174 37.4161 30.1548L43.8752 23.6971C44.0065 23.5705 44.1099 23.4184 44.1812 23.2506C44.2526 23.0828 44.2899 22.9023 44.2899 22.72C44.2899 22.5376 44.2526 22.3572 44.1812 22.1893C44.1099 22.0215 44.0065 21.87 43.8752 21.7435" fill="#FFC000"/>
</svg>
