<svg xmlns="http://www.w3.org/2000/svg" xmlns:xlink="http://www.w3.org/1999/xlink" viewBox="0 0 6.41 6.41"><defs><style>.cls-1{fill:none;}.cls-2{clip-path:url(#clip-path);}.cls-3{fill:#ffc000;}</style><clipPath id="clip-path" transform="translate(-0.46 -0.46)"><rect class="cls-1" width="7.32" height="7.32"/></clipPath></defs><g id="图层_2" data-name="图层 2"><g id="图层_1-2" data-name="图层 1"><g class="cls-2"><path class="cls-3" d="M2.57,5h.35S3,4.93,3,4.9a.68.68,0,0,1,.68-.63.7.7,0,0,1,.69.63A.06.06,0,0,0,4.4,5h.35a.06.06,0,0,0,.06-.06A1.16,1.16,0,0,0,3.66,3.81,1.14,1.14,0,0,0,2.52,4.9a.06.06,0,0,0,0,.06m3,.58a2.5,2.5,0,0,1-.84.57,2.65,2.65,0,0,1-1,.21,2.56,2.56,0,0,1-1-.21,2.45,2.45,0,0,1-.85-.57A2.63,2.63,0,0,1,1,3.66a2.56,2.56,0,0,1,.21-1,2.59,2.59,0,0,1,.57-.85,2.7,2.7,0,0,1,.85-.57,2.56,2.56,0,0,1,1-.21,2.63,2.63,0,0,1,1.88.78,2.45,2.45,0,0,1,.57.85,2.56,2.56,0,0,1,.21,1,2.65,2.65,0,0,1-.21,1,2.5,2.5,0,0,1-.57.84M3.66.46a3.21,3.21,0,1,0,3.21,3.2A3.2,3.2,0,0,0,3.66.46M4.58,3a.34.34,0,1,0,.34-.34A.34.34,0,0,0,4.58,3M2.06,3a.34.34,0,0,0,.34.34.34.34,0,1,0,0-.68A.34.34,0,0,0,2.06,3" transform="translate(-0.46 -0.46)"/></g></g></g></svg>