<svg width="156" height="96" viewBox="0 0 156 96" fill="none" xmlns="http://www.w3.org/2000/svg">
<path d="M2 62.8868C6.81825 59.1392 13.007 56.7783 18.4035 55.1883C25.4007 53.1378 36.0704 51.8209 43.0783 51.6817C51.8636 51.4996 79.5793 52.4472 92.3583 50.9214C108.339 49.0048 120.674 43.9296 132.339 35.6101C141.601 29.0037 147.608 22.7614 148.652 16.8724C150.001 9.20072 144.942 6.30977 143.646 5.57097C135.262 0.827663 122.007 10.7051 129.903 20.8341C129.903 20.8341 125.861 19.4208 126.054 12.7395C126.268 5.44783 135.364 -0.585692 142.918 1.37373C151.055 3.48306 155.665 11.3582 152.592 21.5462C149.423 32.0874 132.473 44.2187 117.012 50.6377C102.466 56.6659 85.3665 58.8234 63.7004 57.5974C46.0335 56.6016 35.6689 55.9271 26.6695 56.8318C17.4345 57.7794 12.0541 59.4551 2 62.8868Z" stroke="black" stroke-width="0.467388" stroke-miterlimit="10"/>
<path d="M91.8979 60.0173C100.26 65.2264 108.018 65.3709 115.106 65.114C124.427 64.8035 136.761 64.7713 145.348 70.1196C152.645 74.6648 157.378 81.2498 154.557 89.1249C153.819 91.1255 152.447 92.8296 150.65 93.977C148.853 95.1245 146.729 95.6523 144.604 95.4797C140.006 95.1424 136.574 91.6197 135.84 88.6163C134.77 84.114 137.607 80.1309 141.033 79.3118C138.528 81.6513 136.949 84.917 138.357 87.9471C138.998 89.2162 140.026 90.2484 141.292 90.8942C142.559 91.54 143.998 91.766 145.402 91.5394C149.251 91.0362 151.773 86.5284 149.813 81.662C148.293 77.8877 143.014 73.4388 136.022 71.5865C130.605 70.1571 123.04 69.8466 117.097 69.6271C111.658 69.429 105.362 68.3154 101.46 66.9503C97.5567 65.5851 93.6486 62.9779 91.8979 60.0173Z" stroke="black" stroke-width="0.467388" stroke-miterlimit="10"/>
<path d="M121.958 54.4815C128.094 49.6633 137.757 49.1761 141.847 49.1279C144.717 49.1279 147.956 48.721 150.081 47.7788C152.062 46.9008 154.139 45.723 153.293 41.9755C153.079 40.9958 151.43 38.6616 147.94 38.9989C148.808 38.535 149.799 38.3527 150.776 38.4774C151.752 38.6021 152.666 39.0276 153.39 39.6948C154.926 41.1564 156.248 43.5816 154.808 46.6545C153.438 49.6044 148.652 50.8785 145.878 51.1783C143.882 51.3925 137.066 51.4621 132.302 51.8797C127.36 52.3668 121.958 54.4815 121.958 54.4815Z" stroke="black" stroke-width="0.467388" stroke-miterlimit="10"/>
<path d="M125.171 60.4027C129.181 59.969 141.189 59.0321 145.129 59.9101C147.634 60.4455 152.34 61.7518 155.488 68.3367C153.703 65.8438 151.367 63.7957 148.662 62.3514C144.096 60.0761 139.807 60.6115 136.44 60.6918C132.681 60.8284 128.918 60.7318 125.171 60.4027Z" stroke="black" stroke-width="0.467388" stroke-miterlimit="10"/>
<path d="M87.0582 48.207C94.8531 48.207 105.261 45.0805 109.592 43.2175C113.489 41.5471 117.954 38.9828 121.091 33.1794C121.091 33.1794 118.227 37.0287 115.031 39.1541C110.491 42.1575 106.851 43.1854 103.612 44.149C98.167 45.7845 92.6419 47.139 87.0582 48.207V48.207Z" stroke="black" stroke-width="0.467388" stroke-miterlimit="10"/>
<path d="M6.81287 64.7122C11.524 64.2411 18.1251 60.8255 25.331 61.393C27.8901 61.5964 33.1152 62.4637 37.8103 68.3527C35.8187 66.6473 33.6143 65.2077 31.2521 64.0698C26.6908 61.7945 23.4787 62.5119 20.0952 62.8117C16.1656 63.1704 12.1129 65.1191 6.81287 64.7122Z" stroke="black" stroke-width="0.467388" stroke-miterlimit="10"/>
<path d="M46.7509 49.3903C55.0864 41.8952 66.1149 40.2196 72.9836 39.9626C79.6113 39.7163 94.3177 40.3748 104.206 36.9431C109.415 35.1336 114.843 31.3647 116.873 26.1128C118.366 22.2368 117.558 19.2762 116.38 17.6273C114.774 15.3306 111.562 14.4151 108.296 14.4151C109.966 13.8155 112.418 14.0993 114.051 14.7203C116.193 15.5394 118.843 17.8575 119.094 21.2892C119.41 25.6256 117.681 33.2973 108.596 37.5213C98.6435 42.1522 84.4724 41.9434 75.746 42.0237C62.2978 42.1683 58.063 43.2872 46.7509 49.3903Z" stroke="black" stroke-width="0.467388" stroke-miterlimit="10"/>
<path d="M62.2764 63.1919C67.6889 68.9577 77.3254 71.2812 84.7616 72.8284C90.7041 74.0919 103.499 74.0276 111.246 77.7805C115.904 80.0397 119.009 82.224 119.571 85.8109C120.079 88.9963 116.83 92.6261 110.079 92.4815C112.408 93.0758 116.343 93.1614 119.18 90.6238C120.925 89.0552 122.242 86.2231 120.342 82.3364C118.885 79.3705 115.277 77.0471 112.927 75.971C109.886 74.5951 107.247 73.4441 100.576 72.4804C92.4708 71.308 86.1214 71.1581 80.4091 69.8036C75.5426 68.6579 69.2093 67.2821 62.2764 63.1919Z" stroke="black" stroke-width="0.467388" stroke-miterlimit="10"/>
</svg>
