<svg width="31" height="31" viewBox="0 0 31 31" fill="none" xmlns="http://www.w3.org/2000/svg">
<path d="M20.7632 16.176H19.0732ZM19.0732 16.176C19.0112 17.0644 18.6011 17.8924 17.932 18.4801C17.2629 19.0678 16.389 19.3677 15.5 19.3146C14.7162 19.2985 13.964 19.0023 13.3795 18.4798C12.7949 17.9573 12.4167 17.2429 12.3131 16.4657H10.2368C10.2113 16.5098 10.198 16.5597 10.198 16.6106C10.198 16.6614 10.2113 16.7114 10.2368 16.7555C10.3192 18.1153 10.903 19.3962 11.8752 20.3506C12.8473 21.3049 14.1389 21.8649 15.5 21.9221C16.9487 21.8982 18.3329 21.3186 19.3663 20.3031C20.3998 19.2876 21.0036 17.9138 21.053 16.4657C21.053 16.3889 21.0224 16.3152 20.9681 16.2609C20.9138 16.2065 20.8401 16.176 20.7632 16.176M24.5779 24.5296C23.4366 25.7246 22.0539 26.6629 20.5218 27.2819C18.9926 27.9276 17.353 28.272 15.6932 28.2959C14.0308 28.2954 12.3866 27.9501 10.8645 27.2819C9.31787 26.6636 7.91924 25.7257 6.76013 24.5296C5.49721 23.373 4.48225 21.9721 3.77675 20.4117C3.07124 18.8513 2.68988 17.1639 2.65577 15.4517C2.65634 13.7894 3.00161 12.1452 3.66979 10.6231C4.9673 7.52645 7.42989 5.06387 10.5265 3.76635C12.0486 3.09818 13.6928 2.7529 15.3551 2.75234C17.0418 2.75085 18.7122 3.08284 20.2701 3.72921C21.828 4.37558 23.2428 5.32358 24.433 6.51869C25.6292 7.6778 26.5671 9.07643 27.1854 10.6231C27.8535 12.1452 28.1988 13.7894 28.1994 15.4517C28.1754 17.1115 27.8311 18.7511 27.1854 20.2804C26.5428 21.7433 25.6059 23.0583 24.433 24.1433M15.5 1.84217e-10C12.4344 1.84218e-10 9.43763 0.909059 6.88867 2.61222C4.33971 4.31538 2.35303 6.73615 1.17987 9.56841C0.00671592 12.4007 -0.300236 15.5172 0.297835 18.5239C0.895906 21.5306 2.37214 24.2924 4.53985 26.4602C6.70757 28.6279 9.4694 30.1041 12.4761 30.7022C15.4828 31.3002 18.5993 30.9933 21.4316 29.8201C24.2639 28.647 26.6846 26.6603 28.3878 24.1113C30.0909 21.5624 31 18.5656 31 15.5V15.5C31.0064 13.4668 30.6114 11.4523 29.8377 9.57205C29.064 7.69179 27.9269 5.9827 26.4914 4.54276C25.056 3.10282 23.3504 1.96033 21.4726 1.18079C19.5947 0.401255 17.5815 -9.92766e-06 15.5483 1.84217e-10V1.84217e-10M19.9907 12.2648C19.9907 12.5895 20.0869 12.9069 20.2673 13.1769C20.4477 13.4469 20.7041 13.6573 21.0041 13.7816C21.3041 13.9058 21.6342 13.9383 21.9527 13.875C22.2712 13.8116 22.5637 13.6553 22.7933 13.4257C23.0229 13.1961 23.1793 12.9036 23.2426 12.5851C23.306 12.2666 23.2734 11.9365 23.1492 11.6365C23.0249 11.3365 22.8145 11.0801 22.5445 10.8997C22.2745 10.7193 21.9571 10.6231 21.6324 10.6231C21.197 10.6231 20.7794 10.796 20.4715 11.1039C20.1636 11.4118 19.9907 11.8294 19.9907 12.2648V12.2648ZM7.82244 12.2648C7.82244 12.5895 7.91872 12.9069 8.09912 13.1769C8.27952 13.4469 8.53592 13.6573 8.83591 13.7816C9.1359 13.9058 9.466 13.9383 9.78447 13.875C10.1029 13.8116 10.3955 13.6553 10.6251 13.4257C10.8547 13.1961 11.011 12.9036 11.0744 12.5851C11.1377 12.2666 11.1052 11.9365 10.981 11.6365C10.8567 11.3365 10.6463 11.0801 10.3763 10.8997C10.1063 10.7193 9.78889 10.6231 9.46418 10.6231C9.02876 10.6231 8.61118 10.796 8.30329 11.1039C7.99541 11.4118 7.82244 11.8294 7.82244 12.2648V12.2648Z" fill="#FFC000"/>
</svg>
