<svg width="31" height="30" viewBox="0 0 31 30" fill="none" xmlns="http://www.w3.org/2000/svg">
<path d="M17.3747 1.97278L20.8478 9.03815L29.4455 10.2744C31.0353 10.2744 31.5058 11.629 30.3871 12.8066L24.0865 18.6946L25.6174 27.6446C25.6894 27.9145 25.6724 28.2003 25.5686 28.4596C25.4647 28.719 25.2794 28.9378 25.041 29.0835C24.8026 29.2292 24.5242 29.2942 24.246 29.2682C23.9679 29.2423 23.7059 29.127 23.4985 28.9398L15.608 24.8184L7.59967 29.0576C6.53982 29.5876 5.42207 29.0578 5.65759 27.7624L7.1296 18.6946L0.652177 12.3947C-0.584313 11.276 0.0642347 10.216 1.53625 9.98044L10.3683 8.74346L13.8413 1.67809C15.0778 -0.559364 16.3738 -0.559364 17.3747 1.67809" fill="#FFC000"/>
</svg>
