<svg width="33" height="33" viewBox="0 0 33 33" fill="none" xmlns="http://www.w3.org/2000/svg">
<path d="M16.5 30.9999C19.3701 30.9999 22.1757 30.1481 24.5614 28.5524C26.9471 26.9568 28.8055 24.6892 29.9014 22.0365C30.9973 19.3839 31.2813 16.4659 30.7174 13.6517C30.1536 10.8375 28.7668 8.25369 26.7336 6.22796C24.7004 4.20223 22.1118 2.82553 19.2956 2.27208C16.4793 1.71862 13.5626 2.01369 10.914 3.11935C8.2654 4.225 6.00512 6.09192 4.41826 8.48344C2.83141 10.875 1.98955 13.6833 2.0001 16.5533C2.00009 18.455 2.37571 20.3382 3.10506 22.0944C3.83441 23.8507 4.9023 25.4454 6.24946 26.7876C7.59661 28.1298 9.19672 29.1929 10.9556 29.9158C12.7146 30.6386 14.5983 31.0069 16.5 30.9999Z" stroke="#FFC000" stroke-width="2.48162"/>
<path d="M16.5532 7.01074V16.4998L21.9907 20.3913" stroke="#FFC000" stroke-width="2.48162" stroke-linecap="round" stroke-linejoin="round"/>
</svg>
