<svg width="38" height="24" viewBox="0 0 38 24" fill="none" xmlns="http://www.w3.org/2000/svg">
<path d="M18.7574 23.9319C11.8043 23.9319 5.01277 19.0809 0.970213 14.5532C-0.323404 13.0979 -0.323404 10.834 0.970213 9.37872C5.01277 4.85106 11.966 0 18.7574 0H19.0809H19.2426C26.1957 0 32.9872 4.85106 37.0298 9.37872C38.3234 10.834 38.3234 13.0979 37.0298 14.5532C32.9872 19.0809 26.034 23.9319 19.0809 23.9319H18.9191H18.7574ZM19.2426 21.5064C25.3872 21.5064 31.5319 17.1404 35.4128 12.9362C35.8979 12.4511 35.8979 11.4809 35.4128 10.9957C31.6936 6.79149 25.3872 2.42553 19.4043 2.42553H19.0809H18.9191C12.7745 2.42553 6.62979 6.79149 2.74894 10.9957C2.26383 11.4809 2.26383 12.4511 2.74894 12.9362C6.46809 17.1404 12.7745 21.5064 18.9191 21.5064H19.0809H19.2426Z" fill="#FFC000"/>
<path d="M19.0808 19.0809C15.2 19.0809 11.9659 15.8468 11.9659 11.966C11.9659 8.08512 15.2 4.85107 19.0808 4.85107C22.9617 4.85107 26.1957 8.08512 26.1957 11.966C26.1957 15.8468 22.9617 19.0809 19.0808 19.0809ZM19.0808 7.1149C16.4936 7.1149 14.2298 9.21703 14.2298 11.966C14.2298 14.5532 16.3319 16.817 19.0808 16.817C21.6681 16.817 23.9319 14.7149 23.9319 11.966C23.9319 9.21703 21.6681 7.1149 19.0808 7.1149Z" fill="#FFC000"/>
</svg>
