<svg xmlns="http://www.w3.org/2000/svg" viewBox="0 0 58.6 22.17">
    <defs>
        <style>.cls-1-arr_3{fill:#66b06f;}</style>
    </defs>
    <g id="图层_2">
        <g id="图层_1-2">
            <path class="cls-1-arr_3"
                  d="M55.74,21l-.59,0-1.88.12c-1.27.09-2.53.19-3.8.32-1,.1-1.91.2-2.87.32l-.69.09-.13,0h-.12l-1.49.21a2.56,2.56,0,0,1-3.07-1.74,2.51,2.51,0,0,1,1.74-3.08c2.38-.35,4.76-.65,7.15-.87a49.06,49.06,0,0,0-5.4-3.7,54.53,54.53,0,0,0-41.49-6c-3.12.82-4.44-4-1.33-4.83A57.82,57.82,0,0,1,15.05,0,59.92,59.92,0,0,1,53,12.48q-.44-3.63-.75-7.27a2.53,2.53,0,0,1,2.5-2.5,2.56,2.56,0,0,1,2.5,2.5q.25,3,.59,6c.12,1,.23,2,.36,3l.18,1.44a17.72,17.72,0,0,1,.19,2.06,4.56,4.56,0,0,1-.07,1.33,2.85,2.85,0,0,1-.69,1.11,2.7,2.7,0,0,1-1.13.69A4.28,4.28,0,0,1,55.74,21Z"/>
        </g>
    </g>
</svg>