<svg xmlns="http://www.w3.org/2000/svg" viewBox="0 0 84.11 79.88">
    <defs>
        <style>.cls-1-arr_5{fill:#66b06f;}</style>
    </defs>
    <g id="图层_2">
        <g id="图层_1-2">
            <path class="cls-1-arr_5"
                  d="M83.79,5c-1.67,2.83-3.94,5.33-5.76,7.84a53.2,53.2,0,0,0-4.86,8.19,2.5,2.5,0,1,1-4.31-2.52,52.14,52.14,0,0,1,3.82-6.7q-7.41,4-14.39,8.73a173.7,173.7,0,0,0-30.17,26A170.88,170.88,0,0,0,4.67,78.66c-1.59,2.8-5.91.28-4.32-2.53A173.33,173.33,0,0,1,12.92,57a179.61,179.61,0,0,1,28.3-29.76,176.15,176.15,0,0,1,33.5-22,42.73,42.73,0,0,0-11.18.44,2.55,2.55,0,0,1-3.07-1.75A2.52,2.52,0,0,1,62.21.75,50.56,50.56,0,0,1,82,1.23a2,2,0,0,1,.58.23h0l.31.14A2.53,2.53,0,0,1,83.79,5Z"/>
        </g>
    </g>
</svg>