<svg xmlns="http://www.w3.org/2000/svg" viewBox="0 0 54.68 82.12">
    <defs>
        <style>.cls-1-arr_2{fill:#61b56d;}</style>
    </defs>
    <g id="图层_2">
        <g id="图层_1-2">
            <path class="cls-1-arr_2"
                  d="M54.55,60.4a106.8,106.8,0,0,0-5.67,19.92A2.34,2.34,0,0,1,47.14,82a3.32,3.32,0,0,1-3-.94c-.93-.86-1.88-1.7-2.86-2.51l-1.43-1.17-.34-.27-.05,0s0,0-.06,0l-.59-.44c-2-1.48-4-2.86-6.12-4.14a2.5,2.5,0,1,1,2.52-4.32,79.29,79.29,0,0,1,7.44,5.14,110.24,110.24,0,0,0-3.21-13.55A109,109,0,0,0,1.23,4.69,2.56,2.56,0,0,1,.34,1.27,2.52,2.52,0,0,1,3.76.37,112,112,0,0,1,18.94,14.06,115.26,115.26,0,0,1,46.68,68q1.32-4.53,3-8.92a2.57,2.57,0,0,1,3.08-1.75A2.52,2.52,0,0,1,54.55,60.4Z"/>
        </g>
    </g>
</svg>