<svg xmlns="http://www.w3.org/2000/svg" viewBox="0 0 48.31 25.02">
    <defs>
        <style>.cls-1-arr_6{fill:#66b06f;}</style>
    </defs>
    <g id="图层_2">
        <g id="图层_1-2">
            <path class="cls-1-arr_6"
                  d="M47.58,24.31a2.56,2.56,0,0,1-3.53,0A52.84,52.84,0,0,0,10.23,13.18c1.46,1.05,2.87,2.18,4.24,3.36a2.52,2.52,0,0,1,0,3.53,2.55,2.55,0,0,1-3.54,0c-.39-.34-.79-.68-1.2-1l-.64-.52c-.1-.07-.29-.29-.45-.39a.24.24,0,0,0-.13-.07l-.23-.17-.59-.44c-.39-.29-.79-.58-1.2-.86C5.66,16,4.81,15.46,4,14.92c-.54-.33-1.07-.68-1.62-1A6.79,6.79,0,0,1,.73,13a2.51,2.51,0,0,1-.68-2.29c.2-1.08,1.18-1.65,2-2.32,0,0,.21-.17.26-.22l.37-.31.72-.59L4.82,6.12c1-.77,1.94-1.55,2.92-2.31Q10,2.06,12.33.36a2.54,2.54,0,0,1,3.42.9,2.56,2.56,0,0,1-.9,3.42C13.9,5.37,13,6.08,12,6.79c-.23.17-.46.34-.68.52s-.23.17-.34.26l-.17.13-.08.06-.09.07-.34.26-.2.16A58.22,58.22,0,0,1,47.58,20.78,2.5,2.5,0,0,1,47.58,24.31Z"/>
        </g>
    </g>
</svg>