<svg xmlns="http://www.w3.org/2000/svg" viewBox="0 0 87.67 66.84">
    <defs>
        <style>.cls-1-arr_1{fill:#4ab45f;}</style>
    </defs>
    <g id="图层_2">
        <g id="图层_1-2">
            <path class="cls-1-arr_1"
                  d="M87.38,3.74a87.89,87.89,0,0,1-12,19.56A94.74,94.74,0,0,1,44,48.44a91.92,91.92,0,0,1-33.28,9.45q4.08,2.32,8.31,4.33a2.5,2.5,0,0,1-2.53,4.32,129.7,129.7,0,0,1-15.3-8.6A2.56,2.56,0,0,1,0,55.52a2.66,2.66,0,0,1,.7-2.11A110.56,110.56,0,0,1,14.45,41.3c1.12-.83,2.75-.13,3.42.9a2.56,2.56,0,0,1-.9,3.42l-1,.73-.11.09,0,0-.08.06h0l-.37.3c-.58.45-1.14.9-1.71,1.36-1.09.9-2.17,1.81-3.22,2.75-.8.71-1.6,1.44-2.37,2.18a83.7,83.7,0,0,0,18-3A90.22,90.22,0,0,0,60,32,86.8,86.8,0,0,0,83.07,1.22a2.52,2.52,0,0,1,3.42-.9A2.58,2.58,0,0,1,87.38,3.74Z"/>
            <path class="cls-1-arr_1" d="M15.93,46.4l0,0,0,0h0Z"/>
        </g>
    </g>
</svg>