<svg xmlns="http://www.w3.org/2000/svg" viewBox="0 0 59.63 57.44">
    <defs>
        <style>.cls-1{fill:#66b06f;}</style>
    </defs>
    <g id="图层_2">
        <g id="图层_1-2">
            <path class="cls-1"
                  d="M59.32,15.57c-.67-1.38-1-2.13-1.52-3.52s-1-2.52-1.5-3.77a36.94,36.94,0,0,0-1.93-4C53.94,3.49,53.49,2.72,53,2A4.22,4.22,0,0,0,51.24.18a3.41,3.41,0,0,0-3,.42L38.88,7.81A2.72,2.72,0,0,0,37.73,9.3,2.55,2.55,0,0,0,38,11.23a2.51,2.51,0,0,0,1.49,1.14,2.41,2.41,0,0,0,1.93-.25c1.92-1.48,3.84-2.95,5.76-4.44A60.73,60.73,0,0,1,38.73,30.4,48.54,48.54,0,0,1,17.59,48.89,40.81,40.81,0,0,1,2.41,52.44c-3.2.12-3.22,5.12,0,5a49.22,49.22,0,0,0,28.69-11c8.36-6.66,14.34-15.9,17.92-25.9a67.37,67.37,0,0,0,2.74-10.25s0,0,0,0c1.06,2.61,2,5.26,3.24,7.79a2.51,2.51,0,0,0,3.42.9A2.56,2.56,0,0,0,59.32,15.57ZM48.56,4.36s0-.05-.05-.06h0A.21.21,0,0,0,48.56,4.36Z"/>
            <path class="cls-1-arr_4" d="M48.56,4.36s0-.05-.05-.06h0A.21.21,0,0,0,48.56,4.36Z"/>
        </g>
    </g>
</svg>