<svg xmlns="http://www.w3.org/2000/svg" viewBox="0 0 215.82 56.77">
    <defs>
        <style>.cls-1-color_of_head{opacity:0.9;}.cls-2-color_of_head{fill:#231815;}.cls-3-color_of_head{opacity:0.5;}.cls-4-color_of_head{fill:#040000;opacity:0.7;}</style>
    </defs>
    <g id="图层_2">
        <g id="图层_1-2">
            <g class="cls-1-color_of_head">
                <path class="cls-2-color_of_head"
                      d="M65.8,10.78a2,2,0,0,1,.09.6c0,1.23-1,2.89-2.85,5a23.32,23.32,0,0,1-6,4.76,16.38,16.38,0,0,1-8.08,2.15,11.57,11.57,0,0,1-5.67-1.36,8.33,8.33,0,0,1-4.35-5.26,9.42,9.42,0,0,1-.26-2.21A11.54,11.54,0,0,1,39,11.62a16.31,16.31,0,0,1,5.18-8.24Q48,0,51.89,0h.34a3.19,3.19,0,0,1,1.39.43,2,2,0,0,1,.93,1.06,1.33,1.33,0,0,1,.07.43c0,.82-.82,1.56-2.46,2.24l-.9.37a17.6,17.6,0,0,0-5.34,3.05,13.44,13.44,0,0,0-2.63,3.34,7.09,7.09,0,0,0-1,3.37,4.91,4.91,0,0,0,0,.55,4.57,4.57,0,0,0,2.51,3.47,8.73,8.73,0,0,0,4.48,1.11,12.19,12.19,0,0,0,7.36-2.38s.2-.18.54-.49q6.49-6.18,8-6.18A.54.54,0,0,1,65.8,10.78Z"/>
                <path class="cls-2-color_of_head"
                      d="M69.12,10.37a3.74,3.74,0,0,1,3.08,1.46,6.13,6.13,0,0,1,1.15,3.89,9,9,0,0,1-1.48,5.1,5,5,0,0,1-4.27,2.47,5.33,5.33,0,0,1-1-.11,4,4,0,0,1-3-2.58A8.86,8.86,0,0,1,63,17.19c0-.32,0-.66,0-1A6.31,6.31,0,0,1,64.81,12a5.56,5.56,0,0,1,4.09-1.59ZM66.8,15.26A3.67,3.67,0,0,0,66.4,17v.17A3.79,3.79,0,0,0,66.88,19a1.23,1.23,0,0,0,1,.72,2,2,0,0,0,1.42-.9,4,4,0,0,0,.88-2.36c0-.13,0-.26,0-.38a3.87,3.87,0,0,0-.56-2.1,1,1,0,0,0-.86-.51,1.92,1.92,0,0,0-1.29.61A1.93,1.93,0,0,0,66.8,15.26Z"/>
                <path class="cls-2-color_of_head"
                      d="M80,21.12a2.72,2.72,0,0,1-.52,1.78,1,1,0,0,1-.83.39,2.23,2.23,0,0,1-1.14-.41C76.6,22.29,76,20,75.84,16q-.06-1-.09-1.26c-.11-1.33-.17-2.69-.17-4.07V10A88.94,88.94,0,0,1,76,.78V.68l.09-.05A3.2,3.2,0,0,1,77.86.1a1,1,0,0,1,.76.32c.49.54.73,1.87.73,4,0,1.09-.06,2.41-.19,3.93,0,.49-.07.79-.07.9,0,.62,0,1.24,0,1.86a48,48,0,0,0,.84,8.71A8,8,0,0,1,80,21.12Z"/>
                <path class="cls-2-color_of_head"
                      d="M88.22,10.37a3.73,3.73,0,0,1,3.08,1.46,6.07,6.07,0,0,1,1.16,3.89A9,9,0,0,1,91,20.82a5,5,0,0,1-4.26,2.47,5.51,5.51,0,0,1-1-.11,4,4,0,0,1-3-2.58,8.86,8.86,0,0,1-.62-3.41c0-.32,0-.66,0-1A6.31,6.31,0,0,1,83.92,12,5.52,5.52,0,0,1,88,10.37ZM85.9,15.26A3.79,3.79,0,0,0,85.5,17v.17A3.69,3.69,0,0,0,86,19a1.2,1.2,0,0,0,1,.72,2,2,0,0,0,1.42-.9,3.91,3.91,0,0,0,.87-2.36c0-.13,0-.26,0-.38a3.79,3.79,0,0,0-.56-2.1,1,1,0,0,0-.86-.51,1.88,1.88,0,0,0-1.28.61A2,2,0,0,0,85.9,15.26Z"/>
                <path class="cls-2-color_of_head"
                      d="M105.35,10.5a1.32,1.32,0,0,1,.63,1,1,1,0,0,1,0,.28,11.93,11.93,0,0,0-4.17,3.48,14.12,14.12,0,0,0-2.55,5.64q-.51,2.37-1.47,2.37a1.46,1.46,0,0,1-.91-.45,8.33,8.33,0,0,1-1.91-4.31,22.66,22.66,0,0,1-.56-5,2.24,2.24,0,0,1,.74-1.35.94.94,0,0,1,.5-.15,1,1,0,0,1,.55.17q1.34.82,1.53,3.84A9.76,9.76,0,0,1,100,12.25Q102,10,103.94,10h0A2.38,2.38,0,0,1,105.35,10.5Z"/>
                <path class="cls-2-color_of_head"
                      d="M125.28,10.37a3.73,3.73,0,0,1,3.08,1.46,6.07,6.07,0,0,1,1.15,3.89,9,9,0,0,1-1.48,5.1,5,5,0,0,1-4.27,2.47,5.41,5.41,0,0,1-1-.11,4,4,0,0,1-3-2.58,8.86,8.86,0,0,1-.62-3.41c0-.32,0-.66,0-1A6.34,6.34,0,0,1,121,12a5.56,5.56,0,0,1,4.09-1.59ZM123,15.26a3.79,3.79,0,0,0-.4,1.75v.17a3.69,3.69,0,0,0,.49,1.86,1.2,1.2,0,0,0,1,.72,2,2,0,0,0,1.42-.9,4,4,0,0,0,.87-2.36c0-.13,0-.26,0-.38a3.79,3.79,0,0,0-.56-2.1,1,1,0,0,0-.86-.51,1.88,1.88,0,0,0-1.28.61A2,2,0,0,0,123,15.26Z"/>
                <path class="cls-2-color_of_head"
                      d="M138.62,9.39c2.66.09,4.43.19,5.32.31s1.14.3,1.14.54a2,2,0,0,1-1.51,1.95,8.25,8.25,0,0,1-2.49.28H139l-.42,0a5.07,5.07,0,0,0-1.45.16c.15,2.1.31,3.94.47,5.52.06.57.16,1.25.29,2,.08.47.15.84.2,1.11,0,0,0,.06,0,.1a2,2,0,0,1-.58,1.12,1.91,1.91,0,0,1-1.39.84.87.87,0,0,1-.41-.11c-.59-.05-1-.84-1.1-2.38v-.2c-.09-.7-.17-1.73-.25-3.11-.1-1.79-.22-3.11-.35-4a.78.78,0,0,0-.47-.65,4.18,4.18,0,0,0-1.09-.18c-.34,0-.58-.06-.73-.09a1.83,1.83,0,0,1-1.47-1,1.21,1.21,0,0,1-.11-.49,1.36,1.36,0,0,1,.18-.65q.08-.39,2.1-.75c.67-.13,1.07-.21,1.2-.26a21.46,21.46,0,0,1,.57-5.74C134.85,1.51,136.13.4,138,.4h.18A6,6,0,0,1,142,1.69a7.85,7.85,0,0,1,2.49,3.61,5,5,0,0,1,.32,1.55,1.52,1.52,0,0,1-.24.9,1.71,1.71,0,0,1-1.47.57A1.55,1.55,0,0,1,142,8a2.09,2.09,0,0,1-.38-.89,7.74,7.74,0,0,0-.29-.94Q140.1,3.2,139.06,3.2c-.4,0-.78.37-1.14,1.12a9.34,9.34,0,0,0-.72,2.4,9.74,9.74,0,0,0-.13,1.52c0,.14,0,.28,0,.42,0,.42.09.65.18.68Z"/>
                <path class="cls-2-color_of_head"
                      d="M169,21.73v.09c-.06.9-.48,1.35-1.27,1.35A4,4,0,0,1,165.08,22a11.14,11.14,0,0,1-1.87-5l-.12-.67c-.19.36-.51,1.11-1,2.25a28.76,28.76,0,0,1-1.39,3.21c-.58,1-1.16,1.54-1.72,1.54a2,2,0,0,1-1.51-.68,3.68,3.68,0,0,1-.92-2.55c0-.16,0-.32,0-.49.1-1.07.15-2.69.15-4.84,0-.76,0-1.37,0-1.81q0-3.53.38-6.55.61-5.61,1.92-5.61a.77.77,0,0,1,.44.16q.89.4.9,2.73v.09A38.93,38.93,0,0,1,160,8.6c-.1.8-.16,1.31-.17,1.52-.09,1.62-.14,3.11-.14,4.45,0,.6,0,1.16,0,1.7A7.23,7.23,0,0,0,161,13.65a9.64,9.64,0,0,1,.82-2,3.5,3.5,0,0,1,1.7-1.48,1,1,0,0,1,.47-.11q1.06,0,1.71,2a25.27,25.27,0,0,1,.84,4.45c0,.32.07.52.07.58a8.86,8.86,0,0,0,2.3,4.53Z"/>
                <path class="cls-2-color_of_head"
                      d="M183.31,15.92a2.7,2.7,0,0,1,1.34-.66c.3,0,.44.23.44.68a8.45,8.45,0,0,1-2.29,4.31,9.88,9.88,0,0,1-4,2.88,6.57,6.57,0,0,1-1.45.16q-3.55,0-6.55-4a6.15,6.15,0,0,1-1-3.76,15,15,0,0,1,.18-2.21q.33-2.14,3.45-2.85a4,4,0,0,1,.84-.09,3.46,3.46,0,0,1,2.11.73,6.37,6.37,0,0,1,1.9,2.46,5,5,0,0,1,.21,1.38A3.54,3.54,0,0,1,176.72,18a3.27,3.27,0,0,1-.77.36c-.37.13-.58.21-.66.25a.37.37,0,0,0-.25.34v0a1.4,1.4,0,0,0,.42.69,2.58,2.58,0,0,0,2,.92,3,3,0,0,0,.65-.07,5.45,5.45,0,0,0,2.84-2A25.36,25.36,0,0,1,183.31,15.92Zm-9.65,1a1.66,1.66,0,0,0,1.27-.54,2,2,0,0,0,.53-1.24,1.94,1.94,0,0,0,0-.24,1.84,1.84,0,0,0-.3-1,1.52,1.52,0,0,0-1.14-.7h-.18a.85.85,0,0,0-.75.4,2,2,0,0,0-.28,1.14A2.6,2.6,0,0,0,173.66,16.92Z"/>
                <path class="cls-2-color_of_head"
                      d="M198.1,19.72a3.78,3.78,0,0,1,.87,2,1.69,1.69,0,0,1-.75,1.05,2.21,2.21,0,0,1-1.33.46,1.35,1.35,0,0,1-1-.36A6.55,6.55,0,0,1,194.45,20a7.4,7.4,0,0,0-1-2.27l-.33.51a23.36,23.36,0,0,1-2.14,3,5.79,5.79,0,0,1-3,1.91,4,4,0,0,1-.89.1,2.65,2.65,0,0,1-2-.79,3.17,3.17,0,0,1-.85-2.15c0-1.82,1.16-4.07,3.48-6.73,3-2.42,5.23-3.62,6.75-3.62h.12c.61,0,1.1.58,1.44,1.74a20.64,20.64,0,0,1,.57,3.11c.06.49.1.79.12.91s.07.3.14.63a12.19,12.19,0,0,0,.65,2.39A6.52,6.52,0,0,0,198.1,19.72Zm-6-5.77a.34.34,0,0,0-.17,0c-.27,0-.64.26-1.11.77A13.93,13.93,0,0,0,189,17.32a9,9,0,0,0-1,2.34,5.39,5.39,0,0,0,2.62-2.35A6.77,6.77,0,0,0,192.06,14Z"/>
                <path class="cls-2-color_of_head"
                      d="M213.6,19.4a3.27,3.27,0,0,1,1,1.93,1.23,1.23,0,0,1-.1.46c-.43.92-.93,1.38-1.52,1.38s-1.65-1-2.84-2.84c-.29-.46-.49-.77-.61-.93a6.62,6.62,0,0,1-4.6,3.45,11.21,11.21,0,0,1-2.93.44c-1.26,0-1.89-.38-1.89-1.13a6,6,0,0,1-.11-1.11c0-2.35,1.52-4.55,4.55-6.62a8.15,8.15,0,0,1,1.09-.49q2.1-.84,2.1-1.35c-.05-.53-.08-1.33-.08-2.39,0-.53,0-1.13,0-1.79,0-.84,0-1.53,0-2.08s0-.74,0-1V5.22c0-.28,0-.54,0-.79,0-1.58.24-2.62.73-3.12a1.73,1.73,0,0,1,1.32-.52H210c.27,0,.52.26.76.7a3.65,3.65,0,0,1,.37,1.16A32.88,32.88,0,0,1,211.3,7v.71c0,.28,0,.7,0,1.26,0,.32,0,.62,0,.91a20.57,20.57,0,0,0,.34,4.28A22.5,22.5,0,0,0,213.6,19.4Zm-6.08-2.85a11.05,11.05,0,0,0-2.29,1.12,3.3,3.3,0,0,0-1.53,1.57,1,1,0,0,0,0,.24.8.8,0,0,0,.19.52l.33,0a3,3,0,0,0,2.14-1.18A4.3,4.3,0,0,0,207.52,16.55Z"/>
            </g>
            <g class="cls-3-color_of_head">
                <path class="cls-4-color_of_head"
                      d="M9.63,51.24a.41.41,0,0,1,0,.11,1.24,1.24,0,0,1,0,.27.87.87,0,0,1-.62.77,6.83,6.83,0,0,1-1.2.24h-1c-.45,0-1,0-1.56.06l-.61.05-1.83.12L2,52.9,1.53,53l-.26,0H1L.61,53a.61.61,0,0,1-.42-.24A1.21,1.21,0,0,1,0,52.17v-.08a2.06,2.06,0,0,1,.17-.75,1.09,1.09,0,0,1,1.1-1,3.62,3.62,0,0,1,.48,0H2.86l.76,0,.32,0,1.27-.1.65,0h.48L7,50.07,7.5,50a2.32,2.32,0,0,0,.39-.07l.53-.08h.13a1.28,1.28,0,0,1,.63.14C9.46,50.15,9.62,50.57,9.63,51.24Z"/>
                <path class="cls-4-color_of_head"
                      d="M30.74,47.37a14.62,14.62,0,0,1,4,1.82A2.23,2.23,0,0,1,35.67,51a3.15,3.15,0,0,1-.07.59,5.58,5.58,0,0,1-2.47,3.07,11.31,11.31,0,0,1-5,2,11.63,11.63,0,0,1-1.54.11,9.11,9.11,0,0,1-4.1-1c-1.81-.89-2.73-2.1-2.75-3.61v-.09c0-1.32.41-2.11,1.23-2.38a1.5,1.5,0,0,1,.45-.07,1.42,1.42,0,0,1,.45.08c.28.11.45.26.49.47a.66.66,0,0,1,0,.15,3.43,3.43,0,0,1,0,.4,4.66,4.66,0,0,0-.09.7v.08A1.78,1.78,0,0,0,23,53a5.73,5.73,0,0,0,3.64,1.2,7.47,7.47,0,0,0,1-.07,8.22,8.22,0,0,0,4.91-2.49.74.74,0,0,0,.25-.49.45.45,0,0,0-.13-.32,3.27,3.27,0,0,0-1.28-.64c-.33-.11-1.1-.34-2.32-.67s-2.2-.64-3-.91a31.28,31.28,0,0,1-5.49-2.23,3.75,3.75,0,0,1-2.15-3.08v-.05c0-1.13.87-2,2.6-2.65a14.7,14.7,0,0,1,4.25-.78,4.35,4.35,0,0,1,.51,0,9.59,9.59,0,0,1,3.3.59c1.33.47,2,1.06,2,1.76a1.8,1.8,0,0,1,0,.22,2,2,0,0,1-.36.95.53.53,0,0,1-.41.17l-.18,0a6.93,6.93,0,0,1-.93-.29,9.39,9.39,0,0,0-1.37-.4,9.18,9.18,0,0,0-2-.2,14.12,14.12,0,0,0-1.78.12c-1.41.16-2.15.41-2.19.73a.49.49,0,0,0,0,.12c0,.72,1,1.4,2.94,2.06.58.19,1.57.48,3,.86S30.11,47.16,30.74,47.37Z"/>
                <path class="cls-4-color_of_head"
                      d="M45,51.43A2,2,0,0,1,46,51c.22,0,.33.17.33.5a6.17,6.17,0,0,1-1.67,3.12,7.17,7.17,0,0,1-2.87,2.09,5.35,5.35,0,0,1-1,.11q-2.56,0-4.74-2.92a4.48,4.48,0,0,1-.74-2.72,10.42,10.42,0,0,1,.13-1.6c.16-1,1-1.73,2.5-2.07a3.16,3.16,0,0,1,.6-.07,2.51,2.51,0,0,1,1.53.53,4.64,4.64,0,0,1,1.38,1.79,3.68,3.68,0,0,1,.15,1,2.55,2.55,0,0,1-1.29,2.22,2.69,2.69,0,0,1-.56.26l-.48.18a.28.28,0,0,0-.18.25h0a1,1,0,0,0,.31.5,1.86,1.86,0,0,0,1.41.67,2.06,2.06,0,0,0,.48,0,3.93,3.93,0,0,0,2-1.44A18.55,18.55,0,0,1,45,51.43Zm-7,.73a1.18,1.18,0,0,0,.92-.4,1.54,1.54,0,0,0,.39-.89c0-.06,0-.12,0-.18a1.37,1.37,0,0,0-.21-.75,1.13,1.13,0,0,0-.83-.51H38.2a.63.63,0,0,0-.55.29,1.52,1.52,0,0,0-.2.83A1.9,1.9,0,0,0,38.05,52.16Z"/>
                <path class="cls-4-color_of_head"
                      d="M54.58,54.34a5.84,5.84,0,0,1,.24,1.45,1.14,1.14,0,0,1-.16.66,1,1,0,0,1-.82.32,3.13,3.13,0,0,1-.49-.05c-.5-.09-.89-.69-1.19-1.8a31.6,31.6,0,0,1-.58-3.4,20.12,20.12,0,0,0-.34-2.11,5.4,5.4,0,0,0-1.85,2.16A6,6,0,0,0,48.93,54a3.13,3.13,0,0,1-.48,1.44q-.56.93-1.17.93c-.36,0-.68-.25-1-.74a3.31,3.31,0,0,1-.26-1.52,17.3,17.3,0,0,1,.21-2.4,16.7,16.7,0,0,0,.2-1.73A1.74,1.74,0,0,1,47,48.64a1.18,1.18,0,0,1,.84-.31,1.7,1.7,0,0,1,.44.05c.39.08.59.21.62.39a8.3,8.3,0,0,0,.76-1,7.51,7.51,0,0,1,.69-1,3,3,0,0,1,.65-.51A2.08,2.08,0,0,1,52,45.89a.85.85,0,0,1,.82.54,22.14,22.14,0,0,1,1.25,5.25c.13.85.23,1.49.31,1.92A6.55,6.55,0,0,0,54.58,54.34Z"/>
                <path class="cls-4-color_of_head"
                      d="M65.66,47.77a1.16,1.16,0,0,1,.15.54.85.85,0,0,1-.09.38c-.23.48-.83.8-1.8,1-.59.11-1.51.21-2.73.3l-.35,0a2.66,2.66,0,0,0,0,.35c0,.49-.06.87-.06,1.15a2.44,2.44,0,0,0,0,.29c.06.64.1,1.44.12,2.41v.39c0,1.34-.11,2-.34,2.13,0,0-.16.05-.46.05a3.34,3.34,0,0,1-1.15-.09c-.49-.48-.74-1.53-.74-3.17,0-.5,0-1,.07-1.64,0-.11,0-.22,0-.33A1.61,1.61,0,0,0,58,50.46a1.54,1.54,0,0,0-1.12-.28h-.43a2.84,2.84,0,0,1-.89-.11,1.39,1.39,0,0,1-.87-.88v-.06a.72.72,0,0,1,.22-.54,2.53,2.53,0,0,1,1.83-.51l.51,0a1.62,1.62,0,0,0,.3,0,1.69,1.69,0,0,0,.64-.12c-.07-.77-.1-1.54-.1-2.29q0-.87.06-1.71a6.08,6.08,0,0,1,1-3.42,1.16,1.16,0,0,1,.89-.42h.09a.48.48,0,0,1,.37.17,3.53,3.53,0,0,1,.35,2c0,.64,0,1.43-.12,2.36q-.07.91-.09,1.2c0,.21,0,.48,0,.82v1c0,.09.18.14.54.14h.25a14.88,14.88,0,0,0,2-.28l.28-.07a4.74,4.74,0,0,1,1.14-.19A.84.84,0,0,1,65.66,47.77Z"/>
                <path class="cls-4-color_of_head"
                      d="M66.33,45.37a1.36,1.36,0,0,1-.89-.32.75.75,0,0,1-.24-.55v0a1.09,1.09,0,0,1,.48-.85,1.56,1.56,0,0,1,1-.31h.21a1.49,1.49,0,0,1,.89.25.72.72,0,0,1,.3.61,1,1,0,0,1-.41.81,1.51,1.51,0,0,1-1.06.4Zm.59,2c.4,0,.61.17.61.52a28,28,0,0,1,.39,4.88c0,.22,0,.43,0,.66l0,2.64c0,.14-.18.29-.54.47a2,2,0,0,1-.83.25.35.35,0,0,1-.26-.08,2.59,2.59,0,0,1-.84-1.85,5,5,0,0,1,0-.58c0-.48,0-1.11.11-1.88,0-.32,0-.55.06-.71,0-.57.06-1.17.06-1.78,0-.21,0-.41,0-.62a4.3,4.3,0,0,0,0-.46.86.86,0,0,1,0-.16,1.47,1.47,0,0,1,.31-.86A1.22,1.22,0,0,1,66.92,47.35Z"/>
                <path class="cls-4-color_of_head"
                      d="M78.3,47.28q1.71.27,2.82,3.63c.19.56.45,1.48.79,2.77A21.37,21.37,0,0,0,82.58,56c0,.51-.21.76-.63.76a1.6,1.6,0,0,1-.45-.07,2.48,2.48,0,0,1-1.39-.85,7.05,7.05,0,0,1-.84-2.13,9.3,9.3,0,0,0-.78-2.15l-.38,1.33c-.2.7-.39,1.28-.57,1.73-.57,1.44-1.19,2.17-1.87,2.2h0c-.55,0-1-.92-1.28-2.78-.21-1.27-.31-1.91-.31-1.93-.12-.59-.26-.89-.42-.89,0,0-.44,1.29-1.31,3.73a3.39,3.39,0,0,1-.93,1.56.92.92,0,0,1-.58.21,1.61,1.61,0,0,1-.94-.39h0a3.15,3.15,0,0,0,0-.84c0-.78,0-2.1-.08-3.95v0a1.63,1.63,0,0,1,.21-.77,1.71,1.71,0,0,0,.23-.79c0-.32.21-.49.63-.52l.79-.05c.15-.15.36-.39.62-.71a6.9,6.9,0,0,1,.59-.66,1.17,1.17,0,0,1,.81-.34,1.53,1.53,0,0,1,.77.24q.56.33,1,2.1c.38,1.47.58,2.24.62,2.32.08-.16.36-1.1.86-2.84C77.35,48.24,77.78,47.52,78.3,47.28Z"/>
                <path class="cls-4-color_of_head"
                      d="M93.19,51.43a2,2,0,0,1,1-.48c.21,0,.32.17.32.5a6.14,6.14,0,0,1-1.66,3.12A7.17,7.17,0,0,1,90,56.66a5.35,5.35,0,0,1-1,.11q-2.58,0-4.74-2.92a4.41,4.41,0,0,1-.74-2.72,10.42,10.42,0,0,1,.13-1.6Q83.79,48,86,47.46a3.26,3.26,0,0,1,.61-.07,2.51,2.51,0,0,1,1.53.53,4.64,4.64,0,0,1,1.38,1.79,3.68,3.68,0,0,1,.15,1,2.55,2.55,0,0,1-1.29,2.22,2.69,2.69,0,0,1-.56.26l-.48.18a.28.28,0,0,0-.18.25h0a1,1,0,0,0,.3.5,1.88,1.88,0,0,0,1.42.67,1.93,1.93,0,0,0,.47,0,4,4,0,0,0,2.06-1.44A18.55,18.55,0,0,1,93.19,51.43Zm-7,.73a1.18,1.18,0,0,0,.93-.4,1.47,1.47,0,0,0,.38-.89,1.09,1.09,0,0,0,0-.18,1.37,1.37,0,0,0-.21-.75,1.11,1.11,0,0,0-.82-.51h-.14a.62.62,0,0,0-.54.29,1.44,1.44,0,0,0-.2.83A1.92,1.92,0,0,0,86.19,52.16Z"/>
                <path class="cls-4-color_of_head"
                      d="M102.73,54.34a6.25,6.25,0,0,1,.23,1.45,1.15,1.15,0,0,1-.15.66,1,1,0,0,1-.82.32,3,3,0,0,1-.49-.05c-.5-.09-.9-.69-1.19-1.8a29.21,29.21,0,0,1-.58-3.4c-.15-1.11-.26-1.81-.34-2.11a5.51,5.51,0,0,0-1.86,2.16A6.2,6.2,0,0,0,97.08,54a3,3,0,0,1-.49,1.44q-.54.93-1.17.93c-.35,0-.67-.25-1-.74a3.34,3.34,0,0,1-.25-1.52,17.3,17.3,0,0,1,.21-2.4A15.81,15.81,0,0,0,94.61,50a1.78,1.78,0,0,1,.49-1.36,1.16,1.16,0,0,1,.84-.31,1.75,1.75,0,0,1,.44.05c.38.08.59.21.62.39a7.5,7.5,0,0,0,.75-1,8.44,8.44,0,0,1,.7-1,3,3,0,0,1,.65-.51,2.08,2.08,0,0,1,1.07-.37.86.86,0,0,1,.82.54,22.23,22.23,0,0,1,1.24,5.25c.13.85.24,1.49.31,1.92C102.57,53.74,102.63,54,102.73,54.34Z"/>
                <path class="cls-4-color_of_head"
                      d="M113.81,47.77a1.16,1.16,0,0,1,.15.54.85.85,0,0,1-.09.38c-.23.48-.83.8-1.8,1q-.9.16-2.73.3L109,50s0,.15,0,.35c0,.49-.06.87-.06,1.15a2.44,2.44,0,0,0,0,.29c.06.64.1,1.44.12,2.41v.39c0,1.34-.12,2-.34,2.13,0,0-.17.05-.46.05a3.34,3.34,0,0,1-1.15-.09c-.5-.48-.74-1.53-.74-3.17,0-.5,0-1,.07-1.64,0-.11,0-.22,0-.33a1.61,1.61,0,0,0-.29-1.08,1.57,1.57,0,0,0-1.13-.28h-.42a3,3,0,0,1-.9-.11,1.43,1.43,0,0,1-.87-.88v-.06a.76.76,0,0,1,.22-.54,2.53,2.53,0,0,1,1.83-.51l.51,0a1.93,1.93,0,0,0,.95-.1c-.07-.77-.1-1.54-.1-2.29q0-.87.06-1.71a6.09,6.09,0,0,1,1-3.42,1.17,1.17,0,0,1,.9-.42h.09a.48.48,0,0,1,.37.17,3.53,3.53,0,0,1,.35,2c0,.64,0,1.43-.13,2.36,0,.61-.08,1-.08,1.2s0,.48,0,.82v1c0,.09.18.14.53.14h.26a15.08,15.08,0,0,0,2-.28l.27-.07a4.89,4.89,0,0,1,1.14-.19A.86.86,0,0,1,113.81,47.77Z"/>
                <path class="cls-4-color_of_head"
                      d="M126.69,47.41a2.69,2.69,0,0,1,2.23,1.06,4.44,4.44,0,0,1,.83,2.82A6.45,6.45,0,0,1,128.68,55a3.63,3.63,0,0,1-3.09,1.79,3.33,3.33,0,0,1-.76-.08,2.85,2.85,0,0,1-2.15-1.87,6.33,6.33,0,0,1-.45-2.47q0-.35,0-.72a4.58,4.58,0,0,1,1.31-3.07,4,4,0,0,1,3-1.15ZM125,51a2.62,2.62,0,0,0-.29,1.27v.12a2.71,2.71,0,0,0,.35,1.36.87.87,0,0,0,.74.51,1.42,1.42,0,0,0,1-.65,2.84,2.84,0,0,0,.64-1.71c0-.09,0-.18,0-.27a2.76,2.76,0,0,0-.41-1.52.7.7,0,0,0-.62-.37A1.77,1.77,0,0,0,125,51Z"/>
                <path class="cls-4-color_of_head"
                      d="M136.35,46.7c1.93.06,3.21.14,3.85.23s.83.21.83.38a1.41,1.41,0,0,1-1.09,1.42,6.23,6.23,0,0,1-1.8.2h-1.82a3.51,3.51,0,0,0-1.06.11c.12,1.52.23,2.86.35,4,0,.41.11.9.21,1.46.06.34.1.6.14.8,0,0,0,0,0,.07a1.41,1.41,0,0,1-.43.82,1.37,1.37,0,0,1-1,.6.56.56,0,0,1-.3-.08c-.42,0-.69-.61-.8-1.72v-.15q-.09-.75-.18-2.25c-.08-1.29-.16-2.26-.26-2.88a.55.55,0,0,0-.34-.48,2.9,2.9,0,0,0-.79-.13l-.53-.06a1.32,1.32,0,0,1-1.06-.71.93.93,0,0,1-.08-.35,1.12,1.12,0,0,1,.13-.48c0-.19.55-.37,1.52-.54a6.42,6.42,0,0,0,.87-.19,15.28,15.28,0,0,1,.42-4.16q.72-2.4,2.79-2.4h.13a4.35,4.35,0,0,1,2.74.93,5.73,5.73,0,0,1,1.81,2.62,3.65,3.65,0,0,1,.23,1.12,1.07,1.07,0,0,1-.18.65,1.21,1.21,0,0,1-1.06.42,1.12,1.12,0,0,1-.84-.26,1.5,1.5,0,0,1-.27-.64,5.9,5.9,0,0,0-.21-.69c-.58-1.41-1.11-2.12-1.61-2.12-.29,0-.57.27-.83.81a6.77,6.77,0,0,0-.51,1.74,6.48,6.48,0,0,0-.1,1.09c0,.11,0,.21,0,.31,0,.31.06.47.13.49Z"/>
                <path class="cls-4-color_of_head"
                      d="M152.82,54.06l.34,0a10,10,0,0,0,2.57-.91,13.83,13.83,0,0,1,2.41-.93l.34,0c.5,0,.77.27.8.81q-.28,1.68-4.45,3.27a6.91,6.91,0,0,1-2.46.53,3,3,0,0,1-2.6-1.28,4,4,0,0,1-.7-2.3V53a6.54,6.54,0,0,1,.46-2.39,5.44,5.44,0,0,1,1.39-2.11,3,3,0,0,1,2-.84H153a1.29,1.29,0,0,1,1.39,1.25,1.16,1.16,0,0,1-.69,1,11,11,0,0,0-1.75,1.19,1.84,1.84,0,0,0-.56,1.31,2.47,2.47,0,0,0,.14.77A1.26,1.26,0,0,0,152.82,54.06Z"/>
                <path class="cls-4-color_of_head"
                      d="M162,47.41a2.7,2.7,0,0,1,2.24,1.06,4.44,4.44,0,0,1,.83,2.82A6.52,6.52,0,0,1,164,55a3.63,3.63,0,0,1-3.09,1.79,3.33,3.33,0,0,1-.76-.08A2.85,2.85,0,0,1,158,54.82a6.33,6.33,0,0,1-.45-2.47q0-.35,0-.72a4.62,4.62,0,0,1,1.3-3.07,4,4,0,0,1,3-1.15ZM160.29,51a2.62,2.62,0,0,0-.29,1.27v.12a2.61,2.61,0,0,0,.35,1.36.87.87,0,0,0,.74.51,1.42,1.42,0,0,0,1-.65,2.84,2.84,0,0,0,.64-1.71c0-.09,0-.18,0-.27a2.76,2.76,0,0,0-.41-1.52.7.7,0,0,0-.62-.37A1.77,1.77,0,0,0,160.29,51Z"/>
                <path class="cls-4-color_of_head"
                      d="M175.05,54.34a5.84,5.84,0,0,1,.24,1.45,1.07,1.07,0,0,1-.16.66,1,1,0,0,1-.82.32,3.13,3.13,0,0,1-.49-.05c-.5-.09-.89-.69-1.19-1.8a34.41,34.41,0,0,1-.58-3.4,20.12,20.12,0,0,0-.34-2.11,5.4,5.4,0,0,0-1.85,2.16A6,6,0,0,0,169.4,54a3.13,3.13,0,0,1-.48,1.44q-.55.93-1.17.93c-.36,0-.68-.25-1-.74a3.34,3.34,0,0,1-.25-1.52,17.3,17.3,0,0,1,.21-2.4c.12-.85.18-1.42.19-1.73a1.82,1.82,0,0,1,.48-1.36,1.2,1.2,0,0,1,.85-.31,1.8,1.8,0,0,1,.44.05c.38.08.58.21.61.39a7.37,7.37,0,0,0,.76-1,8.63,8.63,0,0,1,.69-1,3.33,3.33,0,0,1,.65-.51,2.11,2.11,0,0,1,1.07-.37.85.85,0,0,1,.82.54,22.14,22.14,0,0,1,1.25,5.25c.13.85.23,1.49.31,1.92A6.55,6.55,0,0,0,175.05,54.34Z"/>
                <path class="cls-4-color_of_head"
                      d="M186.13,47.77a1.16,1.16,0,0,1,.15.54,1,1,0,0,1-.08.38c-.24.48-.84.8-1.81,1a27.18,27.18,0,0,1-2.73.3l-.35,0a2.66,2.66,0,0,0,0,.35c0,.49-.06.87-.06,1.15a2.44,2.44,0,0,0,0,.29c.06.64.11,1.44.12,2.41v.39c0,1.34-.11,2-.34,2.13,0,0-.16.05-.46.05a3.34,3.34,0,0,1-1.15-.09c-.49-.48-.74-1.53-.74-3.17,0-.5,0-1,.07-1.64,0-.11,0-.22,0-.33a1.12,1.12,0,0,0-1.41-1.36h-.42a2.87,2.87,0,0,1-.9-.11,1.43,1.43,0,0,1-.87-.88v-.06a.72.72,0,0,1,.22-.54,2.53,2.53,0,0,1,1.83-.51l.51,0a1.62,1.62,0,0,0,.3,0,1.78,1.78,0,0,0,.65-.12c-.07-.77-.11-1.54-.11-2.29q0-.87.06-1.71a6.08,6.08,0,0,1,1-3.42,1.16,1.16,0,0,1,.89-.42h.09a.46.46,0,0,1,.37.17,3.44,3.44,0,0,1,.35,2c0,.64,0,1.43-.12,2.36q-.07.91-.09,1.2c0,.21,0,.48,0,.82v1c0,.09.18.14.54.14h.25a14.67,14.67,0,0,0,2-.28l.28-.07a4.89,4.89,0,0,1,1.14-.19A.84.84,0,0,1,186.13,47.77Z"/>
                <path class="cls-4-color_of_head"
                      d="M195.05,51.43a1.93,1.93,0,0,1,1-.48c.22,0,.33.17.33.5a6.22,6.22,0,0,1-1.66,3.12,7.19,7.19,0,0,1-2.88,2.09,5.33,5.33,0,0,1-1,.11q-2.58,0-4.75-2.92a4.48,4.48,0,0,1-.74-2.72,10.5,10.5,0,0,1,.14-1.6c.15-1,1-1.73,2.49-2.07a3.26,3.26,0,0,1,.61-.07,2.56,2.56,0,0,1,1.53.53,4.64,4.64,0,0,1,1.38,1.79,3.68,3.68,0,0,1,.15,1,2.54,2.54,0,0,1-1.3,2.22,2.47,2.47,0,0,1-.56.26l-.47.18a.28.28,0,0,0-.19.25h0a1,1,0,0,0,.31.5,1.86,1.86,0,0,0,1.42.67,1.93,1.93,0,0,0,.47,0,4,4,0,0,0,2.06-1.44A18.55,18.55,0,0,1,195.05,51.43Zm-7,.73a1.16,1.16,0,0,0,.92-.4,1.43,1.43,0,0,0,.39-.89,1.09,1.09,0,0,0,0-.18,1.37,1.37,0,0,0-.21-.75,1.11,1.11,0,0,0-.83-.51h-.13a.61.61,0,0,0-.54.29,1.44,1.44,0,0,0-.21.83A1.9,1.9,0,0,0,188.05,52.16Z"/>
                <path class="cls-4-color_of_head"
                      d="M204.58,54.34a5.84,5.84,0,0,1,.24,1.45,1.07,1.07,0,0,1-.16.66,1,1,0,0,1-.82.32,3.13,3.13,0,0,1-.49-.05c-.5-.09-.89-.69-1.18-1.8a29.21,29.21,0,0,1-.58-3.4,19.13,19.13,0,0,0-.35-2.11,5.48,5.48,0,0,0-1.85,2.16,6.19,6.19,0,0,0-.46,2.45,3,3,0,0,1-.48,1.44c-.37.62-.75.93-1.17.93s-.68-.25-1-.74a3.34,3.34,0,0,1-.25-1.52,17.3,17.3,0,0,1,.21-2.4c.12-.85.18-1.42.19-1.73a1.82,1.82,0,0,1,.48-1.36,1.2,1.2,0,0,1,.85-.31,1.8,1.8,0,0,1,.44.05c.38.08.58.21.61.39a6.64,6.64,0,0,0,.76-1,10.16,10.16,0,0,1,.69-1,3.33,3.33,0,0,1,.65-.51,2.11,2.11,0,0,1,1.08-.37.85.85,0,0,1,.81.54,21.66,21.66,0,0,1,1.25,5.25c.13.85.23,1.49.31,1.92A6.55,6.55,0,0,0,204.58,54.34Z"/>
                <path class="cls-4-color_of_head"
                      d="M215.67,47.77a1.16,1.16,0,0,1,.15.54.85.85,0,0,1-.09.38c-.24.48-.84.8-1.8,1-.6.11-1.51.21-2.74.3l-.35,0s0,.15,0,.35c0,.49-.06.87-.06,1.15,0,.12,0,.21,0,.29.07.64.11,1.44.12,2.41v.39c0,1.34-.11,2-.34,2.13,0,0-.16.05-.46.05a3.38,3.38,0,0,1-1.15-.09c-.49-.48-.73-1.53-.73-3.17,0-.5,0-1,.07-1.64v-.33a1.12,1.12,0,0,0-1.41-1.36h-.42a2.91,2.91,0,0,1-.9-.11,1.43,1.43,0,0,1-.87-.88v-.06a.72.72,0,0,1,.22-.54,2.53,2.53,0,0,1,1.83-.51l.51,0a1.67,1.67,0,0,0,.31,0,1.77,1.77,0,0,0,.64-.12c-.07-.77-.11-1.54-.11-2.29q0-.87.06-1.71a6.08,6.08,0,0,1,1-3.42,1.17,1.17,0,0,1,.9-.42h.08a.46.46,0,0,1,.37.17,3.44,3.44,0,0,1,.35,2c0,.64,0,1.43-.12,2.36q-.08.91-.09,1.2c0,.21,0,.48,0,.82v1c0,.09.18.14.54.14h.26a15.08,15.08,0,0,0,2-.28l.27-.07a4.89,4.89,0,0,1,1.14-.19A.87.87,0,0,1,215.67,47.77Z"/>
            </g>
        </g>
    </g>
</svg>