<svg xmlns="http://www.w3.org/2000/svg" viewBox="0 0 98.65 59.22">
    <defs>
        <style>.cls-1{fill:none;stroke:#ffca36;stroke-miterlimit:10;stroke-width:1.6px;}.cls-2{fill:#66af6f;}</style>
    </defs>
    <g id="图层_2">
        <g id="图层_1-2">
            <path class="cls-1"
                  d="M19.14,20.09A83.38,83.38,0,0,1,40.61,23.3c7.83,2.25,17.8,5.07,25.46,5.52,9.88.57,18.65-3,22.23-7.23,4.62-5.5,3.27-12.44-1.53-14.73a9.17,9.17,0,0,0-10.7,1.67c-3.12,3.34-2.46,8.26-.19,12.38C71.77,18.38,69.75,12,73.09,6.59c2.23-3.6,8.2-6.71,14.32-5.2A13.37,13.37,0,0,1,97.64,13.9C98,25.35,89,31.9,77.57,34.7c-13.45,3.3-29.48-2-41.47-6.37C27,25,16.83,21.85,3.74,25.06,7.27,22,13.56,20.17,19.14,20.09Z"/>
            <path class="cls-2"
                  d="M98.48,52.37a1.57,1.57,0,0,1-.36,1.14,6.5,6.5,0,0,1-1.09.87c-.85.61-1.7,1.24-2.53,1.87S92.85,57.46,92,58l-1.52,1A1.5,1.5,0,1,1,89,56.42c1.21-.76,2.41-1.56,3.57-2.4l.34-.25q-8-.45-16-.75-32.64-1.22-65.32.17a35.74,35.74,0,0,0,4.75,2.51,1.54,1.54,0,0,1,1,1.85,1.5,1.5,0,0,1-1.84,1,37.19,37.19,0,0,1-5.33-2.73c-.69-.4-1.37-.81-2.09-1.15s-1.5-.69-2.26-1a4.65,4.65,0,0,1-1.29-.67A1.46,1.46,0,0,1,4,51.78a1.71,1.71,0,0,1,.74-1.19q4.88-3.2,9.54-6.67a1.5,1.5,0,0,1,1.51,2.59q-2.55,1.91-5.18,3.73,7.53-.33,15.06-.52,33.5-.84,67,1c-1.4-1.06-2.78-2.15-4.15-3.25a1.51,1.51,0,0,1,0-2.12,1.54,1.54,0,0,1,2.12,0c.59.48,1.19,1,1.8,1.43l.9.71.16.11.07.06,0,0,.45.35c.84.62,1.67,1.27,2.51,1.9.4.3.82.58,1.21.89a1.78,1.78,0,0,1,.67,1A2.42,2.42,0,0,1,98.48,52.37Z"/>
        </g>
    </g>
</svg>