<svg xmlns="http://www.w3.org/2000/svg" viewBox="0 0 154.84 57.51">
    <defs>
        <style>.cls-1{fill:none;stroke:#ffca36;stroke-miterlimit:10;stroke-width:2px;}</style>
    </defs>
    <g id="图层_2" data-name="图层 2">
        <g id="图层_1-2" data-name="图层 1">
            <path class="cls-1"
                  d="M28.36,31.51c9-.13,22.87,1.85,34.32,5.14,12.51,3.59,28.45,8.1,40.69,8.81,15.78.91,29.8-4.74,35.52-11.55,7.39-8.78,5.22-19.88-2.44-23.55A14.69,14.69,0,0,0,119.35,13c-5,5.35-3.93,13.21-.31,19.79-6.57-4.05-9.8-14.28-4.47-22.89,3.57-5.75,13.12-10.73,22.9-8.3,8,2,16.05,9.2,16.35,20,.51,18.29-13.81,28.76-32.08,33.24-21.5,5.28-47.12-3.2-66.28-10.19-14.58-5.32-30.8-10.34-51.72-5.21C9.39,34.5,19.44,31.63,28.36,31.51Z"/>
        </g>
    </g>
</svg>