<svg xmlns="http://www.w3.org/2000/svg" xmlns:xlink="http://www.w3.org/1999/xlink" viewBox="0 0 145.71 41.12"><defs><style>.cls-1{stroke:#ffca36;stroke-miterlimit:10;stroke-width:2px;fill:url(#未命名的渐变_133);}.cls-2{fill:#66af6f;}</style><linearGradient id="未命名的渐变_133" x1="21.54" y1="44.46" x2="128.37" y2="-10.25" gradientUnits="userSpaceOnUse"><stop offset="0.19" stop-color="#ffca36" stop-opacity="0"/><stop offset="0.5" stop-color="#ffca36"/></linearGradient></defs><g id="图层_2" data-name="图层 2"><g id="图层_1-2" data-name="图层 1"><path class="cls-1" d="M19.14,24.48a83,83,0,0,1,21.47,3.21c7.83,2.25,17.8,5.07,25.46,5.52,9.88.57,18.65-3,22.23-7.23,4.62-5.5,3.27-12.44-1.53-14.73a9.17,9.17,0,0,0-10.7,1.67c-3.12,3.34-2.46,8.26-.19,12.38-4.11-2.53-6.13-8.93-2.79-14.32,2.23-3.6,8.2-6.72,14.32-5.2A13.37,13.37,0,0,1,97.64,18.29c.32,11.44-8.64,18-20.07,20.8-13.45,3.3-29.48-2-41.47-6.38C27,29.39,16.83,26.24,3.74,29.45,7.27,26.35,13.56,24.56,19.14,24.48Z"/><path class="cls-2" d="M145.71,15.32a1.5,1.5,0,0,1-1.9,1.44q-5.31-1.86-10.51-4a1.54,1.54,0,0,1-1.05-1.85,1.5,1.5,0,0,1,1.84-1c2,.82,4,1.6,6.06,2.36a39.37,39.37,0,0,0-21.37-9.11,40,40,0,0,0-26,6.57c-1.61,1.08-3.11-1.52-1.51-2.59a42.25,42.25,0,0,1,51,3c-.21-1.81-.47-3.6-.8-5.39a1.53,1.53,0,0,1,1.05-1.85,1.51,1.51,0,0,1,1.84,1A88.87,88.87,0,0,1,145.71,15.32Z"/></g></g></svg>