<svg xmlns="http://www.w3.org/2000/svg" xmlns:xlink="http://www.w3.org/1999/xlink" viewBox="0 0 98.65 36.73">
    <defs>
        <style>.cls-1{stroke:#ffca36;stroke-miterlimit:10;stroke-width:1.2px;fill:url(#未命名的渐变_133);}</style>
        <linearGradient id="未命名的渐变_133" x1="21.54" y1="40.07" x2="128.37" y2="-14.64" gradientUnits="userSpaceOnUse">
            <stop offset="0.19" stop-color="#ffca36" stop-opacity="0"/>
            <stop offset="0.5" stop-color="#ffca36"/>
        </linearGradient>
    </defs>
    <g id="图层_2">
        <g id="图层_1-2">
            <path class="cls-1"
                  d="M19.14,20.09A83.38,83.38,0,0,1,40.61,23.3c7.83,2.25,17.8,5.07,25.46,5.52,9.88.57,18.65-3,22.23-7.23,4.62-5.5,3.27-12.44-1.53-14.73a9.17,9.17,0,0,0-10.7,1.67c-3.12,3.34-2.46,8.26-.19,12.38C71.77,18.38,69.75,12,73.09,6.59c2.23-3.6,8.2-6.71,14.32-5.2A13.37,13.37,0,0,1,97.64,13.9C98,25.35,89,31.9,77.57,34.7c-13.45,3.3-29.48-2-41.47-6.37C27,25,16.83,21.85,3.74,25.06,7.27,22,13.56,20.17,19.14,20.09Z"/>
        </g>
    </g>
</svg>