<svg xmlns="http://www.w3.org/2000/svg" viewBox="0 0 196.5 57.24">
    <defs>
        <style>.cls-1-pattern_on_wing{opacity:0.9;}.cls-2-pattern_on_wing{fill:#231815;}.cls-3-pattern_on_wing{opacity:0.5;}.cls-4-pattern_on_wing{fill:#040000;opacity:0.7;}</style>
    </defs>
    <g id="图层_2">
        <g id="图层_1-2">
            <g class="cls-1-pattern_on_wing">
                <path class="cls-2-pattern_on_wing"
                      d="M12.17,2.81A12.57,12.57,0,0,1,17,5.68a3.64,3.64,0,0,1,.92,2.41,5.62,5.62,0,0,1-.73,2.6c-.82,1.6-2.43,2.77-4.81,3.53A28.76,28.76,0,0,1,9.15,15L6,15.58c-.4.09-.59.57-.59,1.45a12.07,12.07,0,0,0,.14,1.63c.06.38.2,1.14.43,2.27a11.39,11.39,0,0,1,.24,1.66v.28a4.16,4.16,0,0,1-.46,2.4.91.91,0,0,1-.71.35A2.06,2.06,0,0,1,4,25.15,3.21,3.21,0,0,1,2.4,23.64a11.52,11.52,0,0,1-.17-2.56c0-.38,0-.79,0-1.23,0-.25,0-.48,0-.7a7.14,7.14,0,0,0-.38-2.94,2.56,2.56,0,0,0-.71-.55,1.15,1.15,0,0,1-.62-.79.88.88,0,0,1,0-.17A1,1,0,0,1,.91,14l.86-.63c-.1-2.38-.17-4.18-.19-5.41,0-.14,0-.47.07-1s.1-1,.11-1.29V5.5a4.24,4.24,0,0,0,.06-.66c0-.5-.16-.75-.49-.75H1.18A1.08,1.08,0,0,1,.1,3.53.86.86,0,0,1,0,3.12a1.86,1.86,0,0,1,.61-1.2,2.87,2.87,0,0,1,1-.63,4.15,4.15,0,0,0,1-.57A2.65,2.65,0,0,1,4.37,0h.22a1.06,1.06,0,0,1,1,.5,1.6,1.6,0,0,0,1,.73A46.11,46.11,0,0,1,12.17,2.81Zm-1.4,8.28q3.57-1,3.57-2.44V8.6c0-1-1.18-2-3.54-2.84q-.32-.09-4.93-1.17l-.57.07c0,1.42,0,2.51,0,3.26,0,2.22,0,3.6.08,4.15Q9.72,11.38,10.77,11.09Z"/>
                <path class="cls-2-pattern_on_wing"
                      d="M28.49,21.08a3.73,3.73,0,0,1,.88,2,1.76,1.76,0,0,1-.75,1.06,2.22,2.22,0,0,1-1.34.46,1.37,1.37,0,0,1-1-.36,6.77,6.77,0,0,1-1.47-2.84,7.69,7.69,0,0,0-1-2.27l-.33.51a23.22,23.22,0,0,1-2.15,3,5.79,5.79,0,0,1-3,1.91,3.9,3.9,0,0,1-.88.1,2.64,2.64,0,0,1-2-.79,3.19,3.19,0,0,1-.85-2.15c0-1.82,1.16-4.07,3.48-6.73q4.45-3.63,6.74-3.63H25c.62,0,1.1.59,1.45,1.75A20.64,20.64,0,0,1,27,16.21c.05.49.1.79.12.91s.07.3.13.63a12,12,0,0,0,.66,2.39A6.24,6.24,0,0,0,28.49,21.08Zm-6-5.77a.29.29,0,0,0-.17-.05c-.26,0-.63.26-1.1.76a13.89,13.89,0,0,0-1.8,2.66A8.57,8.57,0,0,0,18.43,21a5.43,5.43,0,0,0,2.62-2.35A6.83,6.83,0,0,0,22.45,15.31Z"/>
                <path class="cls-2-pattern_on_wing"
                      d="M43.92,12.23a1.55,1.55,0,0,1,.21.74,1.17,1.17,0,0,1-.12.52c-.32.66-1.15,1.12-2.49,1.36-.82.14-2.08.28-3.77.41l-.49,0s0,.22,0,.48q-.09,1-.09,1.59c0,.16,0,.3,0,.4.08.88.14,2,.17,3.32v.55q0,2.77-.48,2.94s-.22.07-.63.07a4.77,4.77,0,0,1-1.59-.12q-1-1-1-4.38c0-.69,0-1.44.1-2.27,0-.15,0-.3,0-.45a2.18,2.18,0,0,0-.4-1.49,2.14,2.14,0,0,0-1.55-.39h-.58A4,4,0,0,1,30,15.42a2,2,0,0,1-1.2-1.23v-.07a1,1,0,0,1,.3-.75,3.5,3.5,0,0,1,2.53-.7c.27,0,.5,0,.7,0l.42,0a2.43,2.43,0,0,0,.89-.17c-.1-1.07-.15-2.12-.15-3.16,0-.8,0-1.59.09-2.36q.27-3.55,1.35-4.72a1.57,1.57,0,0,1,1.23-.58h.12a.64.64,0,0,1,.51.23c.33.34.49,1.27.49,2.79,0,.89-.06,2-.17,3.26Q37,9.28,36.94,9.67c0,.29,0,.67,0,1.14v1.44c0,.13.25.2.75.2l.35,0a22.21,22.21,0,0,0,2.8-.38l.37-.1a6.86,6.86,0,0,1,1.58-.27A1.15,1.15,0,0,1,43.92,12.23Z"/>
                <path class="cls-2-pattern_on_wing"
                      d="M56.2,12.23a1.55,1.55,0,0,1,.21.74,1.17,1.17,0,0,1-.12.52,3.23,3.23,0,0,1-2.49,1.36c-.83.14-2.08.28-3.77.41l-.49,0s0,.22,0,.48c0,.68-.08,1.21-.08,1.59,0,.16,0,.3,0,.4.09.88.15,2,.17,3.32v.55c0,1.85-.16,2.83-.47,2.94,0,0-.23.07-.63.07a4.77,4.77,0,0,1-1.59-.12q-1-1-1-4.38c0-.69,0-1.44.1-2.27,0-.15,0-.3,0-.45a2.18,2.18,0,0,0-.4-1.49,2.16,2.16,0,0,0-1.55-.39h-.59a3.9,3.9,0,0,1-1.23-.14A2,2,0,0,1,41,14.19v-.07a1,1,0,0,1,.3-.75,3.47,3.47,0,0,1,2.52-.7c.28,0,.51,0,.71,0l.42,0a2.47,2.47,0,0,0,.89-.17c-.1-1.07-.15-2.12-.15-3.16,0-.8,0-1.59.08-2.36q.29-3.55,1.35-4.72a1.61,1.61,0,0,1,1.24-.58h.12A.67.67,0,0,1,49,2q.48.51.48,2.79c0,.89,0,2-.17,3.26q-.11,1.26-.12,1.65c0,.29,0,.67,0,1.14v1.44c0,.13.25.2.74.2l.35,0a22,22,0,0,0,2.8-.38l.38-.1a6.78,6.78,0,0,1,1.58-.27A1.16,1.16,0,0,1,56.2,12.23Z"/>
                <path class="cls-2-pattern_on_wing"
                      d="M68.5,17.27a2.77,2.77,0,0,1,1.33-.65c.3,0,.45.23.45.68A8.39,8.39,0,0,1,68,21.6a9.82,9.82,0,0,1-4,2.89,6.57,6.57,0,0,1-1.45.16q-3.55,0-6.55-4a6.15,6.15,0,0,1-1-3.76,15,15,0,0,1,.18-2.21q.33-2.16,3.45-2.85a4,4,0,0,1,.84-.09,3.52,3.52,0,0,1,2.11.72,6.41,6.41,0,0,1,1.9,2.47,5,5,0,0,1,.21,1.38,3.54,3.54,0,0,1-1.79,3.07,3.27,3.27,0,0,1-.77.36c-.37.13-.58.21-.66.25a.37.37,0,0,0-.25.33v0a1.4,1.4,0,0,0,.42.69,2.62,2.62,0,0,0,2,.92,3,3,0,0,0,.65-.07,5.45,5.45,0,0,0,2.84-2A26,26,0,0,1,68.5,17.27Zm-9.65,1a1.66,1.66,0,0,0,1.27-.54,2.09,2.09,0,0,0,.53-1.24,2,2,0,0,0,0-.25,1.83,1.83,0,0,0-.3-1,1.5,1.5,0,0,0-1.14-.7h-.18a.85.85,0,0,0-.75.4A2,2,0,0,0,58,16.05,2.58,2.58,0,0,0,58.85,18.28Z"/>
                <path class="cls-2-pattern_on_wing"
                      d="M80.73,11.86a1.31,1.31,0,0,1,.63,1,1,1,0,0,1,0,.28,11.93,11.93,0,0,0-4.17,3.48,14.12,14.12,0,0,0-2.55,5.64q-.51,2.37-1.47,2.37a1.44,1.44,0,0,1-.91-.45,8.33,8.33,0,0,1-1.91-4.31,22.66,22.66,0,0,1-.56-5,2.24,2.24,0,0,1,.74-1.35.91.91,0,0,1,.49-.15,1,1,0,0,1,.56.17q1.34.83,1.53,3.84a9.76,9.76,0,0,1,2.29-3.82q2.06-2.27,4-2.27h0A2.38,2.38,0,0,1,80.73,11.86Z"/>
                <path class="cls-2-pattern_on_wing"
                      d="M93.94,21.29a8.12,8.12,0,0,1,.33,2,1.56,1.56,0,0,1-.22.91,1.35,1.35,0,0,1-1.13.45,4.48,4.48,0,0,1-.68-.07c-.69-.12-1.23-.95-1.64-2.49a42.31,42.31,0,0,1-.8-4.69c-.2-1.52-.36-2.5-.47-2.92a7.66,7.66,0,0,0-2.56,3,8.32,8.32,0,0,0-.63,3.38,4.15,4.15,0,0,1-.67,2c-.5.86-1,1.29-1.61,1.29s-.94-.35-1.32-1A4.47,4.47,0,0,1,82.18,21a24.42,24.42,0,0,1,.29-3.32,24,24,0,0,0,.27-2.39,2.44,2.44,0,0,1,.67-1.87A1.63,1.63,0,0,1,84.57,13a3.46,3.46,0,0,1,.61.07c.53.12.81.3.85.55a10.52,10.52,0,0,0,1-1.42,16.2,16.2,0,0,1,1-1.35,4.47,4.47,0,0,1,.9-.7,2.94,2.94,0,0,1,1.48-.51,1.18,1.18,0,0,1,1.13.74,30.78,30.78,0,0,1,1.72,7.26q.27,1.76.42,2.64C93.72,20.46,93.8,20.8,93.94,21.29Z"/>
                <path class="cls-2-pattern_on_wing"
                      d="M114.73,11.73a3.73,3.73,0,0,1,3.08,1.46A6.07,6.07,0,0,1,119,17.08a8.9,8.9,0,0,1-1.48,5.09,5,5,0,0,1-4.27,2.48,5.41,5.41,0,0,1-1-.11,4,4,0,0,1-3-2.58,8.86,8.86,0,0,1-.62-3.41c0-.33,0-.66,0-1a6.34,6.34,0,0,1,1.8-4.23,5.56,5.56,0,0,1,4.09-1.59Zm-2.32,4.89a3.79,3.79,0,0,0-.4,1.75v.17a3.72,3.72,0,0,0,.49,1.86,1.2,1.2,0,0,0,1,.72,2,2,0,0,0,1.42-.9,4,4,0,0,0,.87-2.36c0-.13,0-.26,0-.38a3.79,3.79,0,0,0-.56-2.1,1,1,0,0,0-.86-.51,1.88,1.88,0,0,0-1.28.61A2,2,0,0,0,112.41,16.62Z"/>
                <path class="cls-2-pattern_on_wing"
                      d="M132.79,21.29a8.12,8.12,0,0,1,.33,2,1.49,1.49,0,0,1-.22.91,1.34,1.34,0,0,1-1.13.45,4.48,4.48,0,0,1-.68-.07c-.68-.12-1.23-.95-1.63-2.49a40,40,0,0,1-.8-4.69c-.21-1.52-.37-2.5-.48-2.92a7.74,7.74,0,0,0-2.56,3,8.67,8.67,0,0,0-.63,3.38,4.15,4.15,0,0,1-.67,2c-.5.86-1,1.29-1.61,1.29s-.93-.35-1.32-1A4.49,4.49,0,0,1,121,21a22.9,22.9,0,0,1,.29-3.32,24,24,0,0,0,.27-2.39,2.44,2.44,0,0,1,.66-1.87,1.65,1.65,0,0,1,1.17-.44,3.36,3.36,0,0,1,.6.07c.53.12.81.3.85.55a10.4,10.4,0,0,0,1.05-1.42,14.42,14.42,0,0,1,.95-1.35,4.47,4.47,0,0,1,.9-.7,2.94,2.94,0,0,1,1.48-.51,1.18,1.18,0,0,1,1.13.74,30.78,30.78,0,0,1,1.72,7.26c.18,1.17.32,2.05.43,2.64A9.85,9.85,0,0,0,132.79,21.29Z"/>
                <path class="cls-2-pattern_on_wing"
                      d="M162.48,14.1a13.32,13.32,0,0,1,.42,3.38v.28a18.69,18.69,0,0,1-.4,4c-.42,1.64-1.17,2.46-2.26,2.46h-.18a3.39,3.39,0,0,1-2.1-1.13,16.4,16.4,0,0,1-1.63-2.17,12.59,12.59,0,0,0-1.75-2.21l-.07.17q-2.61,5.8-4.27,5.8a1.11,1.11,0,0,1-.77-.33,6.81,6.81,0,0,1-1.72-4.15A15.76,15.76,0,0,1,147.6,18a18.18,18.18,0,0,1,.16-2.31,5.62,5.62,0,0,1,.9-2.15c.65-1.09,1.25-1.63,1.82-1.63s.81.34,1.07,1a2.26,2.26,0,0,1,.11.76,9.63,9.63,0,0,1-.36,2.25,9.5,9.5,0,0,0-.35,2.18,1.83,1.83,0,0,0,.17.87,3.53,3.53,0,0,0,1-1.74,5.73,5.73,0,0,1,.48-1.12,2.93,2.93,0,0,1,.78-.73,2.06,2.06,0,0,1,1.13-.42,1.07,1.07,0,0,1,.41.08,11.81,11.81,0,0,1,3.47,3.24c.49.61.87,1.07,1.14,1.37a4.69,4.69,0,0,0,.13-1.25,19.37,19.37,0,0,0-.28-2.92,14.9,14.9,0,0,1-.2-2.22,2.23,2.23,0,0,1,.29-1.38,1.06,1.06,0,0,1,.85-.34h.13C161.36,11.63,162,12.48,162.48,14.1Z"/>
                <path class="cls-2-pattern_on_wing"
                      d="M166.36,8.92a2,2,0,0,1-1.23-.45,1,1,0,0,1-.34-.75v0a1.55,1.55,0,0,1,.67-1.17,2.16,2.16,0,0,1,1.33-.43h.29a2,2,0,0,1,1.23.34,1,1,0,0,1,.42.84,1.45,1.45,0,0,1-.57,1.12,2.07,2.07,0,0,1-1.46.55Zm.81,2.73c.56,0,.84.23.84.71a38.63,38.63,0,0,1,.54,6.75c0,.29,0,.59,0,.89l-.07,3.65c0,.19-.25.4-.74.65a2.89,2.89,0,0,1-1.15.35.58.58,0,0,1-.37-.11A3.61,3.61,0,0,1,165.06,22c0-.23,0-.49,0-.8,0-.66,0-1.53.15-2.6,0-.43.07-.76.08-1q.09-1.18.09-2.46c0-.28,0-.57,0-.86s0-.39-.06-.63a1.64,1.64,0,0,1,0-.22,2,2,0,0,1,.43-1.19A1.7,1.7,0,0,1,167.17,11.65Z"/>
                <path class="cls-2-pattern_on_wing"
                      d="M182.92,21.29a8.53,8.53,0,0,1,.32,2,1.49,1.49,0,0,1-.22.91,1.33,1.33,0,0,1-1.12.45,4.36,4.36,0,0,1-.68-.07c-.69-.12-1.24-.95-1.64-2.49a42.31,42.31,0,0,1-.8-4.69,27.09,27.09,0,0,0-.48-2.92,7.63,7.63,0,0,0-2.55,3,8.32,8.32,0,0,0-.63,3.38,4.26,4.26,0,0,1-.67,2q-.75,1.29-1.62,1.29c-.49,0-.93-.35-1.32-1a4.63,4.63,0,0,1-.35-2.09,24.42,24.42,0,0,1,.29-3.32,24,24,0,0,0,.27-2.39,2.44,2.44,0,0,1,.67-1.87,1.61,1.61,0,0,1,1.16-.44,3.46,3.46,0,0,1,.61.07c.52.12.8.3.85.55a11.48,11.48,0,0,0,1-1.42,14.13,14.13,0,0,1,1-1.35,4,4,0,0,1,.9-.7,2.91,2.91,0,0,1,1.47-.51,1.18,1.18,0,0,1,1.13.74,30.69,30.69,0,0,1,1.73,7.26q.25,1.76.42,2.64C182.69,20.46,182.78,20.8,182.92,21.29Z"/>
                <path class="cls-2-pattern_on_wing"
                      d="M194.77,12.12c1.15.33,1.73.81,1.73,1.43v.11l-.08.06c-.3.2-.45.78-.45,1.72a15.9,15.9,0,0,0,.13,1.89c.07.53.1.89.11,1.07v.5c.06,1.54.09,2.92.09,4.15a42.72,42.72,0,0,1-.2,4.56A10.09,10.09,0,0,1,195.2,31a4.29,4.29,0,0,1-4,2.77,5.29,5.29,0,0,1-3.36-1.24A5.13,5.13,0,0,1,186.57,31a7.4,7.4,0,0,0-.45-.74,5.1,5.1,0,0,1-1-2.6,1.48,1.48,0,0,1,.57-1.22.58.58,0,0,1,.3-.09c.57,0,1.18.54,1.81,1.6a6.4,6.4,0,0,0,1.45,1.69,2.91,2.91,0,0,0,1.77.78c.76,0,1.31-.53,1.67-1.57a14.41,14.41,0,0,0,.51-4.35c0-.67,0-1.38-.07-2.15-.06-1.11-.09-2-.09-2.72,0-.25,0-.48,0-.68a11.77,11.77,0,0,0-1,1.47c-.95,1.58-1.9,2.52-2.87,2.81a2.58,2.58,0,0,1-.78.11,3,3,0,0,1-2.22-1.05A4.28,4.28,0,0,1,185.05,20a7.22,7.22,0,0,1-.1-1.21,6.68,6.68,0,0,1,1.7-4.45,7,7,0,0,1,5.6-2.59h.31A8.17,8.17,0,0,1,194.77,12.12Zm-6,4.24a5.46,5.46,0,0,0-.8,1.87,3.1,3.1,0,0,0-.1.75,1.28,1.28,0,0,0,.44,1.06.15.15,0,0,0,.1,0q.86,0,3.94-4.74l.51-.79c-.06-.11-.22-.17-.5-.17a4.1,4.1,0,0,0-1.84.55A4.38,4.38,0,0,0,188.81,16.36Z"/>
            </g>
            <g class="cls-3-pattern_on_wing">
                <path class="cls-4-pattern_on_wing"
                      d="M46.78,51.71a.41.41,0,0,1,0,.11.84.84,0,0,1,0,.27.88.88,0,0,1-.61.78,7.67,7.67,0,0,1-1.21.23H44c-.46,0-1,0-1.57.06l-.6.05L40,53.33l-.83.05a4,4,0,0,0-.44,0l-.26,0h-.25l-.42,0a.59.59,0,0,1-.41-.24,1.07,1.07,0,0,1-.19-.55v-.09a2,2,0,0,1,.16-.75,1.09,1.09,0,0,1,1.11-1l.48,0H40l.77,0,.31,0,1.28-.1.65,0,.47,0,.64-.06.52-.06a2.23,2.23,0,0,0,.4-.07c.19,0,.37-.06.53-.08h.13a1.24,1.24,0,0,1,.62.14C46.61,50.62,46.76,51,46.78,51.71Z"/>
                <path class="cls-4-pattern_on_wing"
                      d="M68.15,53.31a11.55,11.55,0,0,1,.14,1.61A2.87,2.87,0,0,1,68,56.39a1.45,1.45,0,0,1-1.28.79,2.9,2.9,0,0,1-2.32-1.61A60,60,0,0,1,60.93,49c-.62-1.31-1.08-2.24-1.36-2.81,0,1.36,0,2.63,0,3.83,0,2,0,3.82.1,5.37v.06a1.9,1.9,0,0,1-.6,1.35,1.24,1.24,0,0,1-.89.45,1,1,0,0,1-.9-.64,4.35,4.35,0,0,1-.35-1.91v-.28c0-.34,0-1.1,0-2.28V47.77c0-.34,0-.87,0-1.58,0-.34,0-.67,0-1A23.76,23.76,0,0,1,57,41.69a2.58,2.58,0,0,1,.51-1.31,1.08,1.08,0,0,1,.89-.48c.7,0,1.28.54,1.74,1.61a116.39,116.39,0,0,0,5.53,11.34v-.51q0-3.23-.3-8.38c0-.11,0-.24,0-.38-.06-.71-.08-1.36-.08-1.94,0-1.74.23-2.86.7-3.36a1,1,0,0,1,.79-.36,1.08,1.08,0,0,1,.85.36,4,4,0,0,1,.57,2.55,19.29,19.29,0,0,1-.12,2q0,.3,0,.36c-.12,1.37-.18,2.86-.18,4.46s0,3.06.15,4.74C68.05,52.57,68.09,52.87,68.15,53.31Z"/>
                <path class="cls-4-pattern_on_wing"
                      d="M74.37,47.88a2.69,2.69,0,0,1,2.23,1.06,4.39,4.39,0,0,1,.84,2.82,6.45,6.45,0,0,1-1.08,3.69,3.63,3.63,0,0,1-3.09,1.79,3.33,3.33,0,0,1-.76-.08,2.86,2.86,0,0,1-2.15-1.87,6.33,6.33,0,0,1-.45-2.47q0-.34,0-.72A4.58,4.58,0,0,1,71.25,49a4,4,0,0,1,3-1.15Zm-1.68,3.54a2.73,2.73,0,0,0-.29,1.27v.12a2.71,2.71,0,0,0,.35,1.36.88.88,0,0,0,.74.51,1.46,1.46,0,0,0,1-.65,2.9,2.9,0,0,0,.63-1.71,2.44,2.44,0,0,0,0-.27,2.78,2.78,0,0,0-.41-1.52.69.69,0,0,0-.62-.37,1.38,1.38,0,0,0-.93.44A1.34,1.34,0,0,0,72.69,51.42Z"/>
                <path class="cls-4-pattern_on_wing"
                      d="M80.65,54.47a1.85,1.85,0,0,1,1.3.45,1.28,1.28,0,0,1,.44,1,1.22,1.22,0,0,1-.45,1,1.85,1.85,0,0,1-1.22.38,2.89,2.89,0,0,1-.5,0,1.19,1.19,0,0,1-.78-.53,1.38,1.38,0,0,1-.22-.77v-.09a1.38,1.38,0,0,1,.38-.87A1.52,1.52,0,0,1,80.65,54.47Z"/>
                <path class="cls-4-pattern_on_wing"
                      d="M97.6,47.88a2.69,2.69,0,0,1,2.23,1.06,4.39,4.39,0,0,1,.84,2.82,6.45,6.45,0,0,1-1.08,3.69,3.63,3.63,0,0,1-3.09,1.79,3.33,3.33,0,0,1-.76-.08,2.86,2.86,0,0,1-2.15-1.87,6.33,6.33,0,0,1-.45-2.47q0-.34,0-.72A4.58,4.58,0,0,1,94.48,49a4,4,0,0,1,3-1.15Zm-1.68,3.54a2.73,2.73,0,0,0-.29,1.27v.12A2.71,2.71,0,0,0,96,54.17a.88.88,0,0,0,.74.51,1.46,1.46,0,0,0,1-.65,2.9,2.9,0,0,0,.63-1.71,2.44,2.44,0,0,0,0-.27A2.78,2.78,0,0,0,98,50.53a.69.69,0,0,0-.62-.37,1.38,1.38,0,0,0-.93.44A1.34,1.34,0,0,0,95.92,51.42Z"/>
                <path class="cls-4-pattern_on_wing"
                      d="M107.27,47.17c1.92.06,3.2.14,3.85.23s.82.21.82.39a1.41,1.41,0,0,1-1.09,1.41,6.18,6.18,0,0,1-1.8.2h-1.82a3.44,3.44,0,0,0-1,.11c.11,1.52.22,2.86.34,4,0,.42.11.9.21,1.46.06.34.1.6.14.8a.15.15,0,0,1,0,.07,1.9,1.9,0,0,1-1.42,1.42.52.52,0,0,1-.3-.08c-.43,0-.7-.61-.8-1.72v-.15q-.09-.75-.18-2.25c-.07-1.29-.16-2.25-.25-2.88a.58.58,0,0,0-.35-.48,2.9,2.9,0,0,0-.79-.13l-.52-.06a1.32,1.32,0,0,1-1.07-.71.93.93,0,0,1-.08-.35,1,1,0,0,1,.14-.48c0-.19.54-.37,1.52-.54a7.36,7.36,0,0,0,.87-.19,15.28,15.28,0,0,1,.41-4.15c.48-1.61,1.41-2.41,2.79-2.41H107a4.34,4.34,0,0,1,2.73.93,5.73,5.73,0,0,1,1.81,2.62,3.65,3.65,0,0,1,.23,1.12,1.07,1.07,0,0,1-.18.65,1.21,1.21,0,0,1-1.06.42,1.12,1.12,0,0,1-.84-.26,1.5,1.5,0,0,1-.27-.64,5.9,5.9,0,0,0-.21-.69c-.57-1.41-1.11-2.12-1.61-2.12-.29,0-.57.27-.82.81a6.39,6.39,0,0,0-.52,1.74,6.48,6.48,0,0,0-.1,1.09c0,.11,0,.21,0,.31,0,.31.07.47.13.49Z"/>
                <path class="cls-4-pattern_on_wing"
                      d="M123.74,54.53l.33,0a10.14,10.14,0,0,0,2.58-.91,13.85,13.85,0,0,1,2.4-.93l.34,0c.5,0,.77.27.8.82-.18,1.11-1.67,2.2-4.45,3.26a6.91,6.91,0,0,1-2.46.53,3,3,0,0,1-2.6-1.28,4.07,4.07,0,0,1-.7-2.3v-.21a6.77,6.77,0,0,1,.46-2.4,5.44,5.44,0,0,1,1.39-2.11,3,3,0,0,1,2-.84h.06a1.25,1.25,0,0,1,1.31.84,1,1,0,0,1,.08.41,1.16,1.16,0,0,1-.69,1,11,11,0,0,0-1.75,1.19,1.84,1.84,0,0,0-.56,1.31,2.23,2.23,0,0,0,.15.77A1.24,1.24,0,0,0,123.74,54.53Z"/>
                <path class="cls-4-pattern_on_wing"
                      d="M132.88,47.88a2.69,2.69,0,0,1,2.23,1.06,4.38,4.38,0,0,1,.83,2.82,6.45,6.45,0,0,1-1.07,3.69,3.63,3.63,0,0,1-3.09,1.79,3.33,3.33,0,0,1-.76-.08,2.85,2.85,0,0,1-2.15-1.87,6.33,6.33,0,0,1-.45-2.47q0-.34,0-.72A4.58,4.58,0,0,1,129.76,49a4,4,0,0,1,3-1.15Zm-1.68,3.54a2.62,2.62,0,0,0-.29,1.27v.12a2.71,2.71,0,0,0,.35,1.36.87.87,0,0,0,.74.51,1.46,1.46,0,0,0,1-.65,2.9,2.9,0,0,0,.63-1.71,2.44,2.44,0,0,0,0-.27,2.78,2.78,0,0,0-.41-1.52.69.69,0,0,0-.62-.37,1.77,1.77,0,0,0-1.44,1.26Z"/>
                <path class="cls-4-pattern_on_wing"
                      d="M145.94,47.75q1.69.27,2.82,3.63c.19.56.45,1.49.78,2.77a20.72,20.72,0,0,0,.68,2.27c0,.51-.21.76-.64.76a1.59,1.59,0,0,1-.44-.07,2.44,2.44,0,0,1-1.39-.85,6.77,6.77,0,0,1-.85-2.13,8.43,8.43,0,0,0-.78-2.15s-.12.45-.38,1.33c-.2.7-.39,1.28-.57,1.73-.56,1.44-1.18,2.17-1.87,2.2h0c-.54,0-1-.92-1.27-2.78-.21-1.27-.32-1.91-.32-1.93-.11-.59-.25-.89-.41-.89,0,0-.44,1.29-1.32,3.73a3.39,3.39,0,0,1-.92,1.56.94.94,0,0,1-.58.21,1.59,1.59,0,0,1-.94-.39h0a3.15,3.15,0,0,0,0-.84c0-.78,0-2.1-.09-3.95v0a1.63,1.63,0,0,1,.21-.77,1.57,1.57,0,0,0,.23-.79c0-.32.21-.49.63-.52l.8-.05c.15-.15.36-.39.62-.71a5.74,5.74,0,0,1,.59-.66,1.17,1.17,0,0,1,.81-.34,1.49,1.49,0,0,1,.76.24q.57.33,1,2.1c.38,1.47.59,2.24.63,2.32.07-.16.36-1.1.86-2.84C145,48.71,145.42,48,145.94,47.75Z"/>
                <path class="cls-4-pattern_on_wing"
                      d="M159.89,47.75q1.71.27,2.83,3.63c.18.56.44,1.49.78,2.77.29,1.11.51,1.86.67,2.27,0,.51-.21.76-.63.76a1.6,1.6,0,0,1-.45-.07,2.42,2.42,0,0,1-1.38-.85,6.77,6.77,0,0,1-.85-2.13,8.43,8.43,0,0,0-.78-2.15l-.38,1.33c-.2.7-.39,1.28-.57,1.73-.56,1.44-1.19,2.17-1.87,2.2h0c-.54,0-1-.92-1.27-2.78-.22-1.27-.32-1.91-.32-1.93-.12-.59-.26-.89-.41-.89s-.44,1.29-1.32,3.73a3.39,3.39,0,0,1-.92,1.56,1,1,0,0,1-.58.21,1.61,1.61,0,0,1-.95-.39h0a2.83,2.83,0,0,0,.05-.84c0-.78,0-2.1-.09-3.95v0a1.63,1.63,0,0,1,.21-.77,1.68,1.68,0,0,0,.23-.79c0-.32.21-.49.63-.52l.79-.05c.16-.15.36-.39.63-.71a4.92,4.92,0,0,1,.59-.66,1.17,1.17,0,0,1,.8-.34,1.53,1.53,0,0,1,.77.24q.56.33,1,2.1c.38,1.47.59,2.24.62,2.32.08-.16.37-1.1.86-2.84C158.94,48.71,159.37,48,159.89,47.75Z"/>
                <path class="cls-4-pattern_on_wing"
                      d="M174.78,51.9a2,2,0,0,1,1-.48c.22,0,.33.17.33.5A6.24,6.24,0,0,1,174.41,55a7.17,7.17,0,0,1-2.87,2.09,5.35,5.35,0,0,1-1,.11q-2.56,0-4.74-2.92A4.48,4.48,0,0,1,165,51.6a10.42,10.42,0,0,1,.13-1.6c.16-1,1-1.73,2.5-2.07a3.07,3.07,0,0,1,.6-.07,2.51,2.51,0,0,1,1.53.53,4.64,4.64,0,0,1,1.38,1.79,3.68,3.68,0,0,1,.15,1A2.55,2.55,0,0,1,170,53.4a2.66,2.66,0,0,1-.56.27l-.48.17a.29.29,0,0,0-.18.25h0a1,1,0,0,0,.31.51,1.88,1.88,0,0,0,1.41.66,2.06,2.06,0,0,0,.48-.05,3.93,3.93,0,0,0,2-1.44A18.55,18.55,0,0,1,174.78,51.9Zm-7,.73a1.18,1.18,0,0,0,.92-.4,1.54,1.54,0,0,0,.39-.89c0-.06,0-.12,0-.18a1.3,1.3,0,0,0-.22-.75,1.1,1.1,0,0,0-.82-.51h-.13a.63.63,0,0,0-.55.29,1.52,1.52,0,0,0-.2.83A1.9,1.9,0,0,0,167.79,52.63Z"/>
                <path class="cls-4-pattern_on_wing"
                      d="M184.32,54.81a5.91,5.91,0,0,1,.24,1.45,1.14,1.14,0,0,1-.16.66,1,1,0,0,1-.82.32,3,3,0,0,1-.49-.05c-.5-.09-.89-.69-1.19-1.8a31.6,31.6,0,0,1-.58-3.4,20.12,20.12,0,0,0-.34-2.11A5.51,5.51,0,0,0,179.12,52a6.23,6.23,0,0,0-.45,2.45,3,3,0,0,1-.49,1.44c-.36.62-.75.93-1.16.93s-.68-.24-1-.74a3.29,3.29,0,0,1-.26-1.51A17.3,17.3,0,0,1,176,52.2a16.7,16.7,0,0,0,.2-1.73,1.74,1.74,0,0,1,.48-1.36,1.16,1.16,0,0,1,.84-.31,1.7,1.7,0,0,1,.44.05c.38.08.59.21.62.39a7.5,7.5,0,0,0,.75-1,9.43,9.43,0,0,1,.7-1,3,3,0,0,1,.65-.51,2.08,2.08,0,0,1,1.07-.37.85.85,0,0,1,.82.54,22.14,22.14,0,0,1,1.25,5.25q.19,1.27.3,1.92C184.16,54.21,184.22,54.46,184.32,54.81Z"/>
                <path class="cls-4-pattern_on_wing"
                      d="M195.4,48.24a1.16,1.16,0,0,1,.15.54.85.85,0,0,1-.09.38c-.23.48-.83.8-1.8,1q-.9.16-2.73.3l-.35,0a2.66,2.66,0,0,0,0,.35c0,.49-.06.87-.06,1.15a2.44,2.44,0,0,0,0,.29c.06.64.1,1.44.12,2.41v.39c0,1.34-.11,2-.34,2.13,0,0-.17.05-.46.05a3.34,3.34,0,0,1-1.15-.09c-.49-.48-.74-1.53-.74-3.17,0-.5,0-1,.07-1.64,0-.11,0-.22,0-.33a1.61,1.61,0,0,0-.29-1.08,1.54,1.54,0,0,0-1.12-.28h-.43a2.84,2.84,0,0,1-.89-.11,1.39,1.39,0,0,1-.87-.88v-.06a.72.72,0,0,1,.22-.54,2.52,2.52,0,0,1,1.83-.51l.5,0a1.78,1.78,0,0,0,.31,0,1.69,1.69,0,0,0,.64-.12c-.07-.77-.1-1.54-.1-2.29q0-.87.06-1.71a6,6,0,0,1,1-3.42,1.16,1.16,0,0,1,.89-.42h.09a.51.51,0,0,1,.37.17,3.53,3.53,0,0,1,.35,2c0,.64,0,1.43-.12,2.36q-.08.91-.09,1.2c0,.21,0,.48,0,.82v1c0,.09.18.14.54.14h.25a14.88,14.88,0,0,0,2-.28l.27-.07a4.88,4.88,0,0,1,1.15-.19A.84.84,0,0,1,195.4,48.24Z"/>
            </g>
        </g>
    </g>
</svg>