<svg xmlns="http://www.w3.org/2000/svg" viewBox="0 0 186.03 57.86">
    <defs>
        <style>.cls-1,.cls-2{fill:#ffca36;}.cls-2{opacity:0.3;}</style>
    </defs>
    <g id="图层_2" data-name="图层 2">
        <g id="图层_1-2" data-name="图层 1">
            <path class="cls-1"
                  d="M57.6,6.89c-11.6,1-27.75-.47-37-.12C9.22,7.2-1.68,9.24.22,18.61,2.28,28.77,8.25,37,21.44,37,44,37,57.07,12.5,75,8.92,95.66,4.78,162.06-6,185.11,23c-3.67-11.37-27.23-23-58.7-23C97.89,0,81.12,4.86,57.6,6.89Z"/>
            <path class="cls-2"
                  d="M185.11,23c7.1,11.23-28.57,34.89-53,34.89-31.51,0-57.07-27.1-93.53-27.1C50.93,16.55,69,8.67,69,8.67S162.94-12.13,185.11,23Z"/>
        </g>
    </g>
</svg>