<svg xmlns="http://www.w3.org/2000/svg" viewBox="0 0 144.11 132.62">
    <defs>
        <style>.cls-1,.cls-2{fill:#ffca36;}.cls-2{opacity:0.3;}</style>
    </defs>
    <g id="图层_2" data-name="图层 2">
        <g id="图层_1-2" data-name="图层 1">
            <path class="cls-1"
                  d="M36.32,79.91c-7.55,8.86-20.08,19.16-26.39,25.88C2.1,114.11-4.35,123.4,3.71,128.56s21.2,6.75,29.65-3.37c15.39-18.45,7.59-42.64,16.76-56S101.63-2.63,138.39,1.8c-10.6-5.51-34.64,1.31-57.92,24.88C60.43,47,51.64,62,36.32,79.91Z"/>
            <path class="cls-2"
                  d="M138.39,1.8c12.94,3,2.44,49.83-16.56,65.12-24.65,19.84-51.6,14-79.91,41a106.75,106.75,0,0,1,3.79-34.78S98-7.61,138.39,1.8Z"/>
        </g>
    </g>
</svg>