<svg xmlns="http://www.w3.org/2000/svg" viewBox="0 0 168.13 57.38">
    <defs>
        <style>.cls-1-size_of_head{opacity:0.9;}.cls-2-size_of_head{fill:#231815;}.cls-3-size_of_head{opacity:0.5;}.cls-4-size_of_head{fill:#040000;opacity:0.7;}</style>
    </defs>
    <g id="图层_2">
        <g id="图层_1-2">
            <g class="cls-1-size_of_head">
                <path class="cls-2-size_of_head"
                      d="M17,10.43a20.25,20.25,0,0,1,5.49,2.51,3.08,3.08,0,0,1,1.3,2.48,3.32,3.32,0,0,1-.1.81c-.33,1.45-1.46,2.86-3.4,4.25a15.78,15.78,0,0,1-6.95,2.77,14,14,0,0,1-2.12.16,12.62,12.62,0,0,1-5.66-1.32q-3.75-1.86-3.79-5V17c0-1.82.57-2.91,1.7-3.28a2,2,0,0,1,.62-.1,1.69,1.69,0,0,1,.62.11,1,1,0,0,1,.68.64c0,.06,0,.13,0,.21a4.75,4.75,0,0,1-.05.56,6.65,6.65,0,0,0-.12,1v.11a2.47,2.47,0,0,0,1,2,7.88,7.88,0,0,0,5,1.66,11.84,11.84,0,0,0,1.44-.09,11.31,11.31,0,0,0,6.77-3.45,1,1,0,0,0,.35-.68.68.68,0,0,0-.18-.44,4.78,4.78,0,0,0-1.76-.88c-.46-.16-1.53-.46-3.2-.92s-3-.89-4.15-1.25A45.09,45.09,0,0,1,3,9.09Q.06,7.32,0,4.83V4.77Q0,2.42,3.59,1.1A20.81,20.81,0,0,1,9.45,0l.7,0a13.54,13.54,0,0,1,4.56.81c1.84.66,2.76,1.47,2.76,2.44a1.36,1.36,0,0,1,0,.29A2.72,2.72,0,0,1,17,4.86a.71.71,0,0,1-.57.23,1.1,1.1,0,0,1-.25,0,9.15,9.15,0,0,1-1.28-.4A14.53,14.53,0,0,0,13,4.11a12.75,12.75,0,0,0-2.72-.26A21.29,21.29,0,0,0,7.79,4c-2,.23-3,.57-3,1a1,1,0,0,0,0,.17c0,1,1.36,1.93,4.07,2.84.8.27,2.16.66,4.07,1.19S16.12,10.14,17,10.43Z"/>
                <path class="cls-2-size_of_head"
                      d="M25.35,7.68a1.81,1.81,0,0,1-1.22-.45,1,1,0,0,1-.34-.75v0a1.5,1.5,0,0,1,.67-1.16,2.15,2.15,0,0,1,1.33-.44h.29a2,2,0,0,1,1.23.34,1,1,0,0,1,.42.84,1.47,1.47,0,0,1-.57,1.13,2.12,2.12,0,0,1-1.47.54A2.06,2.06,0,0,1,25.35,7.68Zm.82,2.73c.55,0,.83.24.83.71a37.71,37.71,0,0,1,.55,6.75c0,.29,0,.59,0,.9l-.08,3.65c0,.18-.24.4-.74.64a2.84,2.84,0,0,1-1.15.35.52.52,0,0,1-.36-.11,3.57,3.57,0,0,1-1.15-2.56,6.17,6.17,0,0,1,0-.8c0-.66.05-1.53.14-2.59.05-.44.07-.76.09-1,.06-.8.08-1.62.08-2.47,0-.28,0-.57,0-.86s0-.38-.06-.63a1.55,1.55,0,0,1,0-.22A2.13,2.13,0,0,1,24.67,11,1.72,1.72,0,0,1,26.17,10.41Z"/>
                <path class="cls-2-size_of_head"
                      d="M35.58,20.12c.27.05,1,.09,2.32.13s2.45.1,3.19.18c1.88.22,2.82.69,2.82,1.39a1.51,1.51,0,0,1-.37.88c-.35.46-1.39.7-3.12.71h-.28c-.48,0-1.06,0-1.73-.05l-1.5-.06q-.9,0-2.58-.18c-1.17-.13-2-.2-2.57-.2-1.59,0-2.38-.41-2.38-1.13a1.6,1.6,0,0,1,.21-.72,6.73,6.73,0,0,1,2.66-2.57l1.67-.93c.76-.43,1.33-.75,1.71-1a14.56,14.56,0,0,0,3.08-2.34L37,14.47c-1,.13-1.78.22-2.42.27-.43,0-.83,0-1.18,0-1.36,0-2.14-.22-2.37-.66a2.07,2.07,0,0,1-.28-1A1.43,1.43,0,0,1,31.32,12,2.45,2.45,0,0,1,33,11.45a3.12,3.12,0,0,1,.52,0,9.86,9.86,0,0,0,1.28.08,20.28,20.28,0,0,0,3.47-.35,32.6,32.6,0,0,1,4.61-.56H43c1.12.22,1.69.66,1.69,1.33,0,.84-1,2.06-2.83,3.63a47.4,47.4,0,0,1-4,2.94Z"/>
                <path class="cls-2-size_of_head"
                      d="M58.93,16a2.68,2.68,0,0,1,1.33-.66c.3,0,.45.23.45.68a8.53,8.53,0,0,1-2.29,4.31,9.74,9.74,0,0,1-4,2.88,6.42,6.42,0,0,1-1.44.16q-3.55,0-6.55-4a6.15,6.15,0,0,1-1-3.76,14.89,14.89,0,0,1,.18-2.2q.33-2.16,3.45-2.85a3.42,3.42,0,0,1,.83-.1A3.47,3.47,0,0,1,52,11.2a6.55,6.55,0,0,1,1.9,2.46A5,5,0,0,1,54.13,15a3.54,3.54,0,0,1-1.79,3.07,3.27,3.27,0,0,1-.77.36c-.37.13-.59.22-.66.25a.38.38,0,0,0-.25.34v0a1.33,1.33,0,0,0,.42.69,2.59,2.59,0,0,0,2,.93,3.13,3.13,0,0,0,.66-.08,5.45,5.45,0,0,0,2.84-2A25.36,25.36,0,0,1,58.93,16Zm-9.66,1a1.66,1.66,0,0,0,1.28-.54,2.12,2.12,0,0,0,.53-1.24,1.93,1.93,0,0,0,0-.24,1.8,1.8,0,0,0-.29-1,1.52,1.52,0,0,0-1.14-.71h-.18a.85.85,0,0,0-.75.4,2,2,0,0,0-.28,1.14A2.59,2.59,0,0,0,49.27,17Z"/>
                <path class="cls-2-size_of_head"
                      d="M78.81,10.49A3.73,3.73,0,0,1,81.89,12,6.09,6.09,0,0,1,83,15.84a9,9,0,0,1-1.48,5.1,5,5,0,0,1-4.27,2.47,4.78,4.78,0,0,1-1-.11,4,4,0,0,1-3-2.58,8.83,8.83,0,0,1-.62-3.41c0-.32,0-.65,0-1a6.35,6.35,0,0,1,1.8-4.24,5.56,5.56,0,0,1,4.09-1.59Zm-2.32,4.89a3.79,3.79,0,0,0-.4,1.75v.17a3.76,3.76,0,0,0,.49,1.87,1.21,1.21,0,0,0,1,.71A2,2,0,0,0,79,19a3.91,3.91,0,0,0,.87-2.36c0-.13,0-.26,0-.38a3.81,3.81,0,0,0-.56-2.1,1,1,0,0,0-.86-.51,1.93,1.93,0,0,0-1.28.61A2,2,0,0,0,76.49,15.38Z"/>
                <path class="cls-2-size_of_head"
                      d="M92.16,9.51c2.65.09,4.42.2,5.31.32s1.14.29,1.14.53a1.94,1.94,0,0,1-1.51,2,8.13,8.13,0,0,1-2.48.28H92.11a5.23,5.23,0,0,0-1.46.15c.15,2.11.31,3.95.47,5.52.06.58.16,1.25.3,2,.08.46.14.83.19,1.1a.34.34,0,0,1,0,.1A2,2,0,0,1,91,22.58a1.93,1.93,0,0,1-1.38.83.78.78,0,0,1-.42-.11c-.59-.05-.95-.84-1.1-2.37v-.21c-.08-.7-.16-1.73-.25-3.11-.1-1.78-.22-3.11-.35-4a.78.78,0,0,0-.47-.65A4.09,4.09,0,0,0,86,12.8a5.47,5.47,0,0,1-.73-.09,1.82,1.82,0,0,1-1.47-1,1.2,1.2,0,0,1-.11-.48,1.33,1.33,0,0,1,.19-.66c0-.26.74-.51,2.09-.75a9.63,9.63,0,0,0,1.21-.26,21.41,21.41,0,0,1,.56-5.73c.67-2.22,2-3.33,3.86-3.33h.18a6,6,0,0,1,3.78,1.29A7.94,7.94,0,0,1,98,5.42,5,5,0,0,1,98.34,7a1.49,1.49,0,0,1-.24.89,1.71,1.71,0,0,1-1.47.57,1.51,1.51,0,0,1-1.15-.35,2.16,2.16,0,0,1-.38-.88,6.1,6.1,0,0,0-.29-1q-1.19-2.94-2.22-2.94c-.4,0-.78.38-1.14,1.12a9.35,9.35,0,0,0-.71,2.4,9.86,9.86,0,0,0-.14,1.52c0,.14,0,.29,0,.42,0,.42.1.65.19.68Z"/>
                <path class="cls-2-size_of_head"
                      d="M122.54,21.85v.09c-.05.9-.48,1.35-1.27,1.35a4,4,0,0,1-2.66-1.16,11.19,11.19,0,0,1-1.87-5.05l-.12-.67c-.19.37-.51,1.11-.94,2.25a28.31,28.31,0,0,1-1.4,3.21c-.58,1-1.16,1.54-1.72,1.54a2,2,0,0,1-1.51-.68,3.67,3.67,0,0,1-.92-2.54,4.19,4.19,0,0,1,0-.5c.09-1.07.14-2.68.14-4.84,0-.76,0-1.36,0-1.81,0-2.34.16-4.53.38-6.55.41-3.74,1-5.6,1.92-5.6a.81.81,0,0,1,.45.15c.58.27.88,1.18.89,2.73v.09a40.15,40.15,0,0,1-.43,4.86c-.11.8-.17,1.31-.17,1.52-.1,1.62-.15,3.11-.15,4.45,0,.6,0,1.16,0,1.7a7.15,7.15,0,0,0,1.33-2.62,9.89,9.89,0,0,1,.82-2,3.54,3.54,0,0,1,1.7-1.48,1.24,1.24,0,0,1,.48-.11q1.05,0,1.71,2a26.44,26.44,0,0,1,.83,4.45c0,.32.07.52.08.58a8.86,8.86,0,0,0,2.29,4.53Z"/>
                <path class="cls-2-size_of_head"
                      d="M136.84,16a2.7,2.7,0,0,1,1.34-.66c.3,0,.45.23.45.68a8.56,8.56,0,0,1-2.3,4.31,9.78,9.78,0,0,1-4,2.88,6.57,6.57,0,0,1-1.45.16q-3.55,0-6.55-4a6.15,6.15,0,0,1-1-3.76,15,15,0,0,1,.19-2.2q.31-2.16,3.44-2.85a3.46,3.46,0,0,1,3,.63,6.45,6.45,0,0,1,1.9,2.46A5,5,0,0,1,132,15a3.53,3.53,0,0,1-1.78,3.07,3.58,3.58,0,0,1-.78.36l-.65.25c-.17.09-.26.2-.26.34v0a1.44,1.44,0,0,0,.43.69,2.56,2.56,0,0,0,1.95.93,3,3,0,0,0,.65-.08,5.42,5.42,0,0,0,2.84-2A25.36,25.36,0,0,1,136.84,16Zm-9.65,1a1.64,1.64,0,0,0,1.27-.54,2.07,2.07,0,0,0,.54-1.24c0-.08,0-.16,0-.24a1.88,1.88,0,0,0-.29-1,1.52,1.52,0,0,0-1.14-.71h-.19a.85.85,0,0,0-.75.4,2.09,2.09,0,0,0-.28,1.14A2.59,2.59,0,0,0,127.19,17Z"/>
                <path class="cls-2-size_of_head"
                      d="M151.63,19.85a3.72,3.72,0,0,1,.87,2,1.66,1.66,0,0,1-.75,1,2.19,2.19,0,0,1-1.33.46,1.37,1.37,0,0,1-1-.36A6.55,6.55,0,0,1,148,20.16a7.52,7.52,0,0,0-1-2.27l-.32.51a23.48,23.48,0,0,1-2.15,3,5.87,5.87,0,0,1-3,1.92,4.63,4.63,0,0,1-.89.09,2.65,2.65,0,0,1-2-.79,3.16,3.16,0,0,1-.85-2.14c0-1.83,1.16-4.07,3.48-6.74q4.47-3.61,6.75-3.62h.12c.61,0,1.1.58,1.44,1.74a18.35,18.35,0,0,1,.57,3.11c.06.49.1.8.13.91l.13.63A12.19,12.19,0,0,0,151,18.9,6.48,6.48,0,0,0,151.63,19.85Zm-6-5.78a.34.34,0,0,0-.17-.05c-.27,0-.64.26-1.1.77a13.78,13.78,0,0,0-1.8,2.65,8.93,8.93,0,0,0-1,2.35,5.42,5.42,0,0,0,2.62-2.36A6.77,6.77,0,0,0,145.59,14.07Z"/>
                <path class="cls-2-size_of_head"
                      d="M167.13,19.52a3.22,3.22,0,0,1,1,1.93,1.06,1.06,0,0,1-.1.46c-.43.92-.93,1.38-1.52,1.38s-1.64-.95-2.83-2.84c-.29-.46-.5-.77-.62-.93a6.66,6.66,0,0,1-4.6,3.46,11.09,11.09,0,0,1-2.92.43c-1.26,0-1.9-.37-1.9-1.13a6,6,0,0,1-.1-1.11q0-3.53,4.54-6.61a8.09,8.09,0,0,1,1.1-.5c1.4-.56,2.09-1,2.09-1.35-.05-.53-.08-1.33-.08-2.39,0-.53,0-1.13,0-1.79,0-.83,0-1.53,0-2.08s0-.74,0-1l0-.12c0-.28,0-.54,0-.79,0-1.58.24-2.62.73-3.12a1.73,1.73,0,0,1,1.32-.52h.27c.26,0,.51.26.75.71a3.59,3.59,0,0,1,.37,1.15,33.09,33.09,0,0,1,.2,4.38v.71c0,.28,0,.7,0,1.26,0,.32,0,.62,0,.91a20.68,20.68,0,0,0,.34,4.29A22.61,22.61,0,0,0,167.13,19.52Zm-6.07-2.85a10.68,10.68,0,0,0-2.3,1.13,3.21,3.21,0,0,0-1.52,1.56.67.67,0,0,0,0,.24.8.8,0,0,0,.19.52l.33,0A3,3,0,0,0,159.87,19,4.44,4.44,0,0,0,161.06,16.67Z"/>
            </g>
            <g class="cls-3-size_of_head">
                <path class="cls-4-size_of_head"
                      d="M17.52,51.85a.41.41,0,0,1,0,.11,1.31,1.31,0,0,1,0,.27.86.86,0,0,1-.62.77,7.7,7.7,0,0,1-1.2.24h-1c-.45,0-1,0-1.56.06l-.61.05-1.83.12-.82,0-.45.06-.25,0H8.91a2.73,2.73,0,0,1-.41,0,.56.56,0,0,1-.42-.23,1.21,1.21,0,0,1-.19-.56V52.7A2,2,0,0,1,8.06,52a1.09,1.09,0,0,1,1.11-1,3.39,3.39,0,0,1,.47,0h1.11l.76,0,.32,0,1.27-.09.65,0h.48l.64-.07.52-.05a2.32,2.32,0,0,0,.39-.07,4,4,0,0,1,.53-.08h.13a1.41,1.41,0,0,1,.63.13C17.35,50.76,17.51,51.18,17.52,51.85Z"/>
                <path class="cls-4-size_of_head"
                      d="M38.9,53.45A11.38,11.38,0,0,1,39,55.06a2.91,2.91,0,0,1-.28,1.47,1.47,1.47,0,0,1-1.28.79,2.88,2.88,0,0,1-2.32-1.61,57.91,57.91,0,0,1-3.48-6.58c-.62-1.31-1.07-2.25-1.36-2.82q0,2,0,3.84,0,3,.09,5.37v.06a2,2,0,0,1-.59,1.35,1.26,1.26,0,0,1-.89.45,1,1,0,0,1-.91-.64,4.38,4.38,0,0,1-.35-1.91v-.28c0-.34,0-1.1,0-2.29V47.91c0-.34,0-.87,0-1.59v-1a25.36,25.36,0,0,1,.18-3.52,2.85,2.85,0,0,1,.51-1.32,1.12,1.12,0,0,1,.9-.47c.69,0,1.27.54,1.74,1.61A113,113,0,0,0,36.46,53v-.51q0-3.23-.3-8.38,0-.16,0-.39c-.05-.71-.08-1.35-.08-1.93,0-1.74.24-2.86.7-3.37a1.05,1.05,0,0,1,.79-.35,1.1,1.1,0,0,1,.86.36A4.08,4.08,0,0,1,39,41c0,.57,0,1.24-.11,2a3.2,3.2,0,0,0,0,.36c-.12,1.37-.18,2.86-.18,4.46s0,3.06.15,4.74C38.8,52.7,38.83,53,38.9,53.45Z"/>
                <path class="cls-4-size_of_head"
                      d="M45.11,48a2.7,2.7,0,0,1,2.23,1,4.44,4.44,0,0,1,.84,2.83,6.57,6.57,0,0,1-1.07,3.69A3.63,3.63,0,0,1,44,57.38a4,4,0,0,1-.75-.08,2.9,2.9,0,0,1-2.16-1.87A6.56,6.56,0,0,1,40.66,53c0-.24,0-.48,0-.72A4.62,4.62,0,0,1,42,49.17,4,4,0,0,1,45,48Zm-1.68,3.54a2.73,2.73,0,0,0-.29,1.27V53a2.7,2.7,0,0,0,.36,1.35.86.86,0,0,0,.73.52,1.42,1.42,0,0,0,1-.65,2.78,2.78,0,0,0,.63-1.71,2.62,2.62,0,0,0,0-.27,2.76,2.76,0,0,0-.4-1.52.71.71,0,0,0-.62-.37,1.38,1.38,0,0,0-.94.44A1.43,1.43,0,0,0,43.43,51.56Z"/>
                <path class="cls-4-size_of_head"
                      d="M51.4,54.61a1.85,1.85,0,0,1,1.3.45,1.3,1.3,0,0,1,.44,1,1.19,1.19,0,0,1-.45,1,1.82,1.82,0,0,1-1.22.39,2.81,2.81,0,0,1-.5,0,1.18,1.18,0,0,1-.79-.53A1.5,1.5,0,0,1,50,56V56a1.39,1.39,0,0,1,.38-.87A1.56,1.56,0,0,1,51.4,54.61Z"/>
                <path class="cls-4-size_of_head"
                      d="M68.34,48a2.7,2.7,0,0,1,2.23,1,4.44,4.44,0,0,1,.84,2.83,6.57,6.57,0,0,1-1.07,3.69,3.63,3.63,0,0,1-3.1,1.79,4,4,0,0,1-.75-.08,2.9,2.9,0,0,1-2.16-1.87A6.56,6.56,0,0,1,63.89,53c0-.24,0-.48,0-.72a4.62,4.62,0,0,1,1.31-3.07,4,4,0,0,1,3-1.15Zm-1.68,3.54a2.73,2.73,0,0,0-.29,1.27V53a2.7,2.7,0,0,0,.35,1.35.89.89,0,0,0,.74.52,1.42,1.42,0,0,0,1-.65,2.78,2.78,0,0,0,.63-1.71,2.62,2.62,0,0,0,0-.27,2.76,2.76,0,0,0-.4-1.52.72.72,0,0,0-.63-.37,1.38,1.38,0,0,0-.93.44A1.43,1.43,0,0,0,66.66,51.56Z"/>
                <path class="cls-4-size_of_head"
                      d="M78,47.31c1.92.06,3.2.14,3.85.23s.83.21.83.38a1.42,1.42,0,0,1-1.09,1.42,6.31,6.31,0,0,1-1.81.2H78a3.42,3.42,0,0,0-1,.12c.11,1.52.23,2.85.34,4,0,.41.11.9.21,1.46.06.34.11.6.14.8a.15.15,0,0,1,0,.07,1.39,1.39,0,0,1-.42.81,1.37,1.37,0,0,1-1,.61.61.61,0,0,1-.3-.08c-.43,0-.69-.61-.8-1.72v-.15c-.06-.51-.12-1.26-.17-2.25-.08-1.3-.17-2.26-.26-2.88a.57.57,0,0,0-.34-.48,3,3,0,0,0-.79-.13L73,49.63a1.33,1.33,0,0,1-1.06-.71.78.78,0,0,1-.08-.36,1,1,0,0,1,.13-.47c0-.19.54-.37,1.52-.55a5.58,5.58,0,0,0,.87-.18,15.78,15.78,0,0,1,.41-4.16c.48-1.6,1.42-2.41,2.8-2.41h.13a4.31,4.31,0,0,1,2.73.94,5.61,5.61,0,0,1,1.81,2.62,3.37,3.37,0,0,1,.23,1.12,1.14,1.14,0,0,1-.17.65,1.23,1.23,0,0,1-1.07.41,1.1,1.1,0,0,1-.83-.25,1.56,1.56,0,0,1-.27-.64,5.71,5.71,0,0,0-.22-.69c-.57-1.42-1.11-2.12-1.6-2.12-.3,0-.57.26-.83.8A6.76,6.76,0,0,0,77,45.37a7.86,7.86,0,0,0-.1,1.1c0,.11,0,.21,0,.31,0,.3.07.47.14.49Z"/>
                <path class="cls-4-size_of_head"
                      d="M96,47.31c1.92.06,3.21.14,3.85.23s.83.21.83.38a1.42,1.42,0,0,1-1.09,1.42,6.28,6.28,0,0,1-1.8.2H96a3.45,3.45,0,0,0-1.06.12c.11,1.52.23,2.85.34,4,0,.41.12.9.21,1.46.06.34.11.6.15.8V56a1.39,1.39,0,0,1-.42.81,1.37,1.37,0,0,1-1,.61.64.64,0,0,1-.3-.08c-.43,0-.69-.61-.8-1.72v-.15c-.06-.51-.11-1.26-.17-2.25-.08-1.3-.16-2.26-.26-2.88a.57.57,0,0,0-.34-.48,2.9,2.9,0,0,0-.79-.13L91,49.63a1.33,1.33,0,0,1-1.06-.71.94.94,0,0,1-.08-.36,1,1,0,0,1,.13-.47c0-.19.54-.37,1.52-.55a5.58,5.58,0,0,0,.87-.18,15.78,15.78,0,0,1,.41-4.16c.48-1.6,1.42-2.41,2.8-2.41h.13a4.31,4.31,0,0,1,2.73.94,5.54,5.54,0,0,1,1.81,2.62,3.37,3.37,0,0,1,.23,1.12,1.14,1.14,0,0,1-.17.65,1.23,1.23,0,0,1-1.07.41,1.11,1.11,0,0,1-.83-.25,1.56,1.56,0,0,1-.27-.64,5.9,5.9,0,0,0-.21-.69c-.58-1.42-1.11-2.12-1.61-2.12-.3,0-.57.26-.83.8A6.76,6.76,0,0,0,95,45.37a7.72,7.72,0,0,0-.09,1.1v.31c0,.3.07.47.14.49Z"/>
                <path class="cls-4-size_of_head"
                      d="M104.16,48a2.71,2.71,0,0,1,2.23,1,4.43,4.43,0,0,1,.83,2.83,6.49,6.49,0,0,1-1.07,3.69,3.63,3.63,0,0,1-3.09,1.79,4,4,0,0,1-.76-.08,2.87,2.87,0,0,1-2.15-1.87A6.36,6.36,0,0,1,99.7,53q0-.36,0-.72A4.58,4.58,0,0,1,101,49.17,4,4,0,0,1,104,48Zm-1.68,3.54a2.73,2.73,0,0,0-.29,1.27V53a2.7,2.7,0,0,0,.35,1.35.87.87,0,0,0,.74.52,1.46,1.46,0,0,0,1-.65,2.9,2.9,0,0,0,.63-1.71,2.62,2.62,0,0,0,0-.27,2.76,2.76,0,0,0-.41-1.52.69.69,0,0,0-.62-.37,1.36,1.36,0,0,0-.93.44A1.34,1.34,0,0,0,102.48,51.56Z"/>
                <path class="cls-4-size_of_head"
                      d="M112.05,55.81a2,2,0,0,1-.38,1.29.75.75,0,0,1-.6.28,1.56,1.56,0,0,1-.82-.3c-.67-.42-1.08-2.08-1.22-5,0-.47,0-.77-.07-.92-.08-1-.12-2-.12-3v-.54a62.93,62.93,0,0,1,.34-6.64V41l.07,0a2.3,2.3,0,0,1,1.24-.38.72.72,0,0,1,.56.23c.35.39.53,1.35.53,2.89q0,1.2-.15,2.85c0,.36,0,.58-.05.66,0,.45,0,.89,0,1.35a35.27,35.27,0,0,0,.6,6.31A4.71,4.71,0,0,1,112.05,55.81Z"/>
                <path class="cls-4-size_of_head"
                      d="M117,55.81a2,2,0,0,1-.38,1.29.75.75,0,0,1-.6.28,1.56,1.56,0,0,1-.82-.3c-.67-.42-1.08-2.08-1.23-5,0-.47,0-.77-.06-.92-.08-1-.12-2-.12-3v-.54a65.75,65.75,0,0,1,.33-6.64V41l.06,0a2.36,2.36,0,0,1,1.25-.38.72.72,0,0,1,.56.23c.35.39.52,1.35.52,2.89,0,.8,0,1.75-.14,2.85,0,.36,0,.58,0,.66,0,.45,0,.89,0,1.35a35.31,35.31,0,0,0,.61,6.31A4.71,4.71,0,0,1,117,55.81Z"/>
                <path class="cls-4-size_of_head"
                      d="M123,48a2.71,2.71,0,0,1,2.23,1A4.44,4.44,0,0,1,126,51.9a6.5,6.5,0,0,1-1.08,3.69,3.63,3.63,0,0,1-3.09,1.79,4,4,0,0,1-.76-.08,2.88,2.88,0,0,1-2.15-1.87,6.36,6.36,0,0,1-.45-2.47q0-.36,0-.72a4.58,4.58,0,0,1,1.31-3.07,4,4,0,0,1,3-1.15Zm-1.68,3.54a2.73,2.73,0,0,0-.29,1.27V53a2.7,2.7,0,0,0,.35,1.35.87.87,0,0,0,.74.52,1.46,1.46,0,0,0,1-.65,2.9,2.9,0,0,0,.63-1.71,2.62,2.62,0,0,0,0-.27,2.76,2.76,0,0,0-.41-1.52.69.69,0,0,0-.62-.37,1.38,1.38,0,0,0-.93.44A1.34,1.34,0,0,0,121.27,51.56Z"/>
                <path class="cls-4-size_of_head"
                      d="M138.29,49.73a9.87,9.87,0,0,1,.3,2.46v.2a13.22,13.22,0,0,1-.29,2.88c-.3,1.19-.85,1.78-1.63,1.78h-.13a2.44,2.44,0,0,1-1.52-.82,11.32,11.32,0,0,1-1.19-1.57,7.75,7.75,0,0,0-1.27-1.6l-.05.12q-1.87,4.2-3.09,4.2a.81.81,0,0,1-.56-.24,4.92,4.92,0,0,1-1.24-3,10.44,10.44,0,0,1-.11-1.59,13.63,13.63,0,0,1,.11-1.67,4.17,4.17,0,0,1,.65-1.56c.47-.78.91-1.18,1.32-1.18s.59.25.78.74a1.68,1.68,0,0,1,.08.55,7.14,7.14,0,0,1-.26,1.63,6.68,6.68,0,0,0-.25,1.58,1.37,1.37,0,0,0,.12.64,2.68,2.68,0,0,0,.72-1.27,4.33,4.33,0,0,1,.35-.81,2.41,2.41,0,0,1,.56-.53,1.51,1.51,0,0,1,.82-.3.73.73,0,0,1,.3.06,8.34,8.34,0,0,1,2.51,2.34l.83,1a3.64,3.64,0,0,0,.1-.91,14,14,0,0,0-.21-2.12,11,11,0,0,1-.15-1.6,1.61,1.61,0,0,1,.22-1,.78.78,0,0,1,.61-.24h.1C137.48,48,138,48.56,138.29,49.73Z"/>
                <path class="cls-4-size_of_head"
                      d="M149.34,52a2,2,0,0,1,1-.48c.22,0,.32.17.32.49A6.14,6.14,0,0,1,149,55.17a7.1,7.1,0,0,1-2.87,2.1,5.35,5.35,0,0,1-1,.11c-1.71,0-3.3-1-4.74-2.92a4.41,4.41,0,0,1-.74-2.72,10.42,10.42,0,0,1,.13-1.6c.16-1,1-1.73,2.5-2.07a3.07,3.07,0,0,1,.6-.07,2.51,2.51,0,0,1,1.53.53,4.67,4.67,0,0,1,1.38,1.78,3.75,3.75,0,0,1,.15,1,2.55,2.55,0,0,1-1.29,2.22,2.69,2.69,0,0,1-.56.26l-.48.18a.27.27,0,0,0-.18.24v0a1,1,0,0,0,.31.5,1.86,1.86,0,0,0,1.41.67,2.59,2.59,0,0,0,.47,0,3.91,3.91,0,0,0,2.06-1.44A17.4,17.4,0,0,1,149.34,52Zm-7,.73a1.21,1.21,0,0,0,.92-.4,1.55,1.55,0,0,0,.39-.9V51.3a1.37,1.37,0,0,0-.21-.75,1.1,1.1,0,0,0-.82-.51h-.13a.63.63,0,0,0-.55.29,1.52,1.52,0,0,0-.2.83A1.91,1.91,0,0,0,142.35,52.77Z"/>
                <path class="cls-4-size_of_head"
                      d="M158.2,48.12a.92.92,0,0,1,.46.73.51.51,0,0,1,0,.2,8.66,8.66,0,0,0-3,2.52,10.27,10.27,0,0,0-1.85,4.09c-.24,1.14-.6,1.71-1.06,1.71a1.06,1.06,0,0,1-.66-.32,6.05,6.05,0,0,1-1.39-3.12,16.75,16.75,0,0,1-.4-3.6,1.6,1.6,0,0,1,.53-1,.65.65,0,0,1,.36-.12.81.81,0,0,1,.41.12q1,.6,1.11,2.79a7,7,0,0,1,1.66-2.77,4.1,4.1,0,0,1,2.87-1.64h0A1.63,1.63,0,0,1,158.2,48.12Z"/>
                <path class="cls-4-size_of_head"
                      d="M161.56,51l.07.06c.27.07,1.67.57,4.18,1.49a4.43,4.43,0,0,1,1.9,1.15,1.45,1.45,0,0,1,.34.94,2.15,2.15,0,0,1-.26,1,2.77,2.77,0,0,1-1.46,1,11.26,11.26,0,0,1-2.5.64,10.65,10.65,0,0,1-1.52.12,6.81,6.81,0,0,1-.93-.06c-.76-.11-1.22-.35-1.37-.72a2.74,2.74,0,0,1-.22-1,1.36,1.36,0,0,1,.13-.61.66.66,0,0,1,.63-.48,1.2,1.2,0,0,1,.51.13,6.06,6.06,0,0,0,2.26.55,2.21,2.21,0,0,0,1.64-.63c-.11,0-1.29-.36-3.56-1.06-1.69-.52-2.54-1.21-2.54-2.07a2.38,2.38,0,0,1,0-.36,2.63,2.63,0,0,1,1.5-2.21,5.31,5.31,0,0,1,2.79-.86h.16a1.72,1.72,0,0,1,.92.25,1.29,1.29,0,0,1,.55.59.89.89,0,0,1,.06.3.73.73,0,0,1-.11.38,1.38,1.38,0,0,1-.86.49l-1.53.25c-.55.13-.82.29-.82.48A.24.24,0,0,0,161.56,51Z"/>
            </g>
        </g>
    </g>
</svg>