<svg xmlns="http://www.w3.org/2000/svg" viewBox="0 0 19.85 31.47"><defs><style>.cls-1{fill:#ffe290;}.cls-2{fill:#ffbf00;}</style></defs><g id="图层_2" data-name="图层 2"><g id="图层_1-2" data-name="图层 1"><path class="cls-1" d="M18.69,28.61a15.81,15.81,0,0,1-3.56,2.86H12.49c.56-4.95-2-7.21-2.55-9.78s5.1-4.12,4.86-6-3.92-4.12-4.86-6.19,2.26-3.74,2.32-5.7C12.29,2.79,10.69,0,10.69,0h2.15a9.46,9.46,0,0,0,3.31,4.84c3,2.32,1.7,2.86-.34,4.05s-1.8,2.75-.15,3.64c2.11,1.16,1.72,2,1.05,4.71-.48,2,2.17,5,2.84,6.39A5.36,5.36,0,0,1,18.69,28.61Z"/><path class="cls-2" d="M9.94,21.69c.51,2.57,3.11,4.83,2.55,9.78H5C2.43,29.8.81,28.17.27,26.68A3.82,3.82,0,0,1,.7,23.05c.57-.84,3-3.62,2.24-6.63s.34-3.08,1.39-4.09,1.83-2.1-.62-3.51S1.78,6,3.71,4.73A6.78,6.78,0,0,0,6.71,0h4s1.6,2.79,1.57,3.85c-.06,2-3.26,3.63-2.32,5.7s4.62,4.34,4.86,6.19S9.42,19.12,9.94,21.69Z"/></g></g></svg>