<svg xmlns="http://www.w3.org/2000/svg" viewBox="0 0 162 65.29">
    <defs>
        <style>.cls-1-type_of_dots{opacity:0.9;}.cls-2-type_of_dots{fill:#231815;}.cls-3-type_of_dots{opacity:0.5;}.cls-4-type_of_dots{fill:#040000;opacity:0.7;}</style>
    </defs>
    <g id="图层_2">
        <g id="图层_1-2">
            <g class="cls-1-type_of_dots">
                <path class="cls-2-type_of_dots"
                      d="M20.55,0a2.86,2.86,0,0,1,1.57.51,1.15,1.15,0,0,1,.65.91A1,1,0,0,1,22.6,2a3.8,3.8,0,0,1-2.26,1.54A16.6,16.6,0,0,1,17.66,4l-.33,0-.55,0L15.55,4Q14,4,13.66,4.42A6.55,6.55,0,0,0,13,7.92V8c0,.56,0,1.26.1,2.1q.11,1.65.12,1.71c.2,4.36.32,7,.34,7.93,0,.19,0,.5.07.95s.07.82.08,1.05V22a3.17,3.17,0,0,1-.34,1.63,2.09,2.09,0,0,1-1.71.72H11.6c-.43,0-.75-.35-.95-1.05,0-.07-.12-.65-.29-1.74A61.43,61.43,0,0,1,9.78,13c0-.51,0-1.1,0-1.77q0-2.36.07-6h0q0-.54-1-.72a13.28,13.28,0,0,0-1.36-.07H7.39a14.57,14.57,0,0,0-1.52.13c-1,.12-1.7.2-2.17.23s-.63,0-.91,0C1.46,4.83.64,4.57.31,4.06A1.74,1.74,0,0,1,0,3.13c0-.72.68-1.27,2-1.66A14.75,14.75,0,0,1,5.82,1C7.55,1,10,.8,13.19.52,16.58.21,19,0,20.55,0Z"/>
                <path class="cls-2-type_of_dots"
                      d="M30.26,25.77a18.73,18.73,0,0,1,.2,2.45,6.09,6.09,0,0,1-.13,1.35,5.6,5.6,0,0,1-2.83,3.24,4.6,4.6,0,0,1-2.43.68q-3.12,0-6.26-3.62a3,3,0,0,1-.52-1.17,2.89,2.89,0,0,1-.06-.56,1.46,1.46,0,0,1,.12-.62.78.78,0,0,1,.73-.46,2.19,2.19,0,0,1,.83.22,39.09,39.09,0,0,1,3.49,1.88,4,4,0,0,0,2,.73,1.4,1.4,0,0,0,1.13-.52,5.68,5.68,0,0,0,.79-3.5,39,39,0,0,0-.86-7.06c-.29.36-.67.92-1.17,1.69a13.61,13.61,0,0,1-1.65,2.2A4.42,4.42,0,0,1,21.2,24a2.9,2.9,0,0,1-.58.05,2.14,2.14,0,0,1-1.72-.74,5.34,5.34,0,0,1-.9-3.51,21.53,21.53,0,0,1,.23-2.89A16.24,16.24,0,0,1,19,14c.65-1.9,1.34-2.85,2.06-2.85.45,0,.85.36,1.21,1.07l0,.1a16.81,16.81,0,0,1-.62,3.73,16.3,16.3,0,0,0-.59,3.75c0,.11,0,.22,0,.33a4.64,4.64,0,0,0,2.07-2.05,32.06,32.06,0,0,0,1.65-3.31,26.31,26.31,0,0,1,1.48-2.95c.54-.84,1.09-1.26,1.64-1.26a1.22,1.22,0,0,1,.32,0h.06a.82.82,0,0,1,.53.28Q30,12,30,20v1.65c0,1,0,1.65,0,2C30.07,24.15,30.14,24.86,30.26,25.77Z"/>
                <path class="cls-2-type_of_dots"
                      d="M43.6,15.31a3.32,3.32,0,0,1,.26,1.27A5.57,5.57,0,0,1,42,20.29a7.72,7.72,0,0,1-4,2.36,1.88,1.88,0,0,0-1,.37.85.85,0,0,0-.09.48,4.21,4.21,0,0,0,0,.46c0,.46.06.85.06,1.16v.44a59.35,59.35,0,0,0,.33,6.55c0,.1,0,.19,0,.28a1.17,1.17,0,0,1-.26.79,1,1,0,0,1-.8.31A3.26,3.26,0,0,1,34.61,33a3.33,3.33,0,0,1-1.18-2.48,23.28,23.28,0,0,1-.14-3V26.18q-.16-5.05-.16-8.14a33.56,33.56,0,0,1,.17-4.32,4.22,4.22,0,0,1,.48-2,1.07,1.07,0,0,1,.88-.34H35a13.26,13.26,0,0,1,4.91,1Q42.82,13.46,43.6,15.31Zm-6.78,4.24v.17a3.55,3.55,0,0,0,2.25-1,3.75,3.75,0,0,0,1.19-2.21.93.93,0,0,0,0-.23,1.31,1.31,0,0,0-.32-.86,2.79,2.79,0,0,0-1.63-.84,4.56,4.56,0,0,0-.85-.09,1.78,1.78,0,0,0-.69.12,2.74,2.74,0,0,0-.18,1.28c0,.52,0,1.19.11,2S36.82,19.21,36.82,19.55Z"/>
                <path class="cls-2-type_of_dots"
                      d="M58.75,17a2.68,2.68,0,0,1,1.33-.66c.3,0,.45.23.45.68a8.49,8.49,0,0,1-2.29,4.31,9.84,9.84,0,0,1-4,2.89,7.12,7.12,0,0,1-1.44.15c-2.37,0-4.56-1.34-6.55-4a6.19,6.19,0,0,1-1-3.76,15,15,0,0,1,.18-2.21q.33-2.16,3.44-2.85a3.56,3.56,0,0,1,.84-.1,3.44,3.44,0,0,1,2.11.73,6.47,6.47,0,0,1,1.91,2.46,5.06,5.06,0,0,1,.2,1.38,3.52,3.52,0,0,1-1.78,3.07,3.57,3.57,0,0,1-.78.37l-.65.24c-.17.09-.26.2-.26.34v0a1.51,1.51,0,0,0,.43.7,2.6,2.6,0,0,0,2,.92,3.13,3.13,0,0,0,.66-.08,5.52,5.52,0,0,0,2.84-2A24.8,24.8,0,0,1,58.75,17Zm-9.66,1a1.69,1.69,0,0,0,1.28-.55,2.1,2.1,0,0,0,.53-1.24,1.93,1.93,0,0,0,0-.24,1.88,1.88,0,0,0-.29-1,1.49,1.49,0,0,0-1.14-.7l-.18,0a.85.85,0,0,0-.75.4,2,2,0,0,0-.28,1.14A2.62,2.62,0,0,0,49.09,18Z"/>
                <path class="cls-2-type_of_dots"
                      d="M78.63,11.48a3.73,3.73,0,0,1,3.08,1.45,6.1,6.1,0,0,1,1.15,3.9,9,9,0,0,1-1.48,5.09,5,5,0,0,1-4.27,2.47,5.31,5.31,0,0,1-1-.1,4,4,0,0,1-3-2.59,8.64,8.64,0,0,1-.62-3.41q0-.48,0-1a6.4,6.4,0,0,1,1.81-4.24,5.59,5.59,0,0,1,4.09-1.58Zm-2.32,4.88a3.7,3.7,0,0,0-.4,1.75v.17a3.73,3.73,0,0,0,.49,1.87,1.19,1.19,0,0,0,1,.71A2,2,0,0,0,78.83,20a4,4,0,0,0,.88-2.37c0-.13,0-.25,0-.37a3.87,3.87,0,0,0-.56-2.1,1,1,0,0,0-.86-.51,1.91,1.91,0,0,0-1.28.6A1.9,1.9,0,0,0,76.31,16.36Z"/>
                <path class="cls-2-type_of_dots"
                      d="M92,10.49c2.65.09,4.43.2,5.32.32s1.14.29,1.14.53a1.94,1.94,0,0,1-1.51,1.95,8.25,8.25,0,0,1-2.49.28H91.92a4.73,4.73,0,0,0-1.45.16c.15,2.1.31,3.94.47,5.51.06.58.15,1.25.29,2,.08.47.15.84.2,1.1,0,0,0,.07,0,.1a2,2,0,0,1-.58,1.13,1.89,1.89,0,0,1-1.39.83.86.86,0,0,1-.41-.1c-.59-.05-1-.85-1.1-2.38V21.7c-.09-.69-.17-1.73-.25-3.1-.1-1.79-.22-3.12-.35-4a.78.78,0,0,0-.47-.66,4.18,4.18,0,0,0-1.09-.18,5.66,5.66,0,0,1-.73-.08,1.82,1.82,0,0,1-1.47-1,1.2,1.2,0,0,1-.11-.48,1.43,1.43,0,0,1,.18-.66q.07-.39,2.1-.75c.67-.12,1.07-.21,1.2-.25a21.36,21.36,0,0,1,.57-5.74c.67-2.22,2-3.33,3.86-3.33h.18a5.92,5.92,0,0,1,3.77,1.29,7.77,7.77,0,0,1,2.5,3.62A5,5,0,0,1,98.16,8a1.54,1.54,0,0,1-.24.9,1.71,1.71,0,0,1-1.47.57,1.49,1.49,0,0,1-1.15-.36,2,2,0,0,1-.38-.88,7.43,7.43,0,0,0-.29-.95c-.79-1.95-1.53-2.93-2.22-2.93q-.61,0-1.14,1.11a9.19,9.19,0,0,0-.72,2.4,9.84,9.84,0,0,0-.13,1.52c0,.15,0,.29,0,.43,0,.42.09.64.18.67Z"/>
                <path class="cls-2-type_of_dots"
                      d="M122.82,20.5a3.25,3.25,0,0,1,1,1.93,1.18,1.18,0,0,1-.09.46c-.43.92-.94,1.38-1.52,1.38s-1.65-.94-2.84-2.84c-.29-.46-.49-.77-.62-.93A6.62,6.62,0,0,1,114.15,24a11.17,11.17,0,0,1-2.93.43c-1.26,0-1.89-.37-1.89-1.12a6.16,6.16,0,0,1-.11-1.12c0-2.34,1.52-4.55,4.55-6.61a7.76,7.76,0,0,1,1.09-.5c1.4-.56,2.1-1,2.1-1.34-.06-.54-.08-1.33-.08-2.39,0-.54,0-1.14,0-1.8,0-.83,0-1.52,0-2.07s0-.75,0-1V6.32c0-.28,0-.54,0-.79a4.76,4.76,0,0,1,.72-3.12,1.8,1.8,0,0,1,1.33-.52h.26c.27,0,.52.26.76.71a3.86,3.86,0,0,1,.37,1.15,33.09,33.09,0,0,1,.2,4.38v.72c0,.27,0,.69,0,1.26,0,.31,0,.62,0,.91a20,20,0,0,0,.34,4.28A22.27,22.27,0,0,0,122.82,20.5Zm-6.08-2.85a11.09,11.09,0,0,0-2.29,1.13,3.33,3.33,0,0,0-1.53,1.56,1,1,0,0,0,0,.25.82.82,0,0,0,.19.52l.33,0A3,3,0,0,0,115.55,20,4.32,4.32,0,0,0,116.74,17.65Z"/>
                <path class="cls-2-type_of_dots"
                      d="M131.28,11.48a3.73,3.73,0,0,1,3.08,1.45,6.16,6.16,0,0,1,1.15,3.9A9,9,0,0,1,134,21.92a5,5,0,0,1-4.27,2.47,5.31,5.31,0,0,1-1-.1,4,4,0,0,1-3-2.59,8.83,8.83,0,0,1-.62-3.41c0-.32,0-.65,0-1A6.35,6.35,0,0,1,127,13.06a5.59,5.59,0,0,1,4.09-1.58ZM129,16.36a3.7,3.7,0,0,0-.4,1.75v.17a3.73,3.73,0,0,0,.48,1.87,1.21,1.21,0,0,0,1,.71,2,2,0,0,0,1.42-.89,4,4,0,0,0,.87-2.37c0-.13,0-.25,0-.37a3.87,3.87,0,0,0-.56-2.1,1,1,0,0,0-.86-.51,2,2,0,0,0-1.29.6A1.93,1.93,0,0,0,129,16.36Z"/>
                <path class="cls-2-type_of_dots"
                      d="M150.56,12a1.58,1.58,0,0,1,.21.74,1.14,1.14,0,0,1-.12.52,3.2,3.2,0,0,1-2.49,1.36c-.83.15-2.08.29-3.77.42l-.49,0c0,.06,0,.22,0,.49q-.09,1-.09,1.59c0,.16,0,.29,0,.4.09.88.15,2,.17,3.32v.55c0,1.85-.16,2.83-.47,2.93,0,.05-.23.07-.63.07a4.77,4.77,0,0,1-1.59-.12q-1-1-1-4.38c0-.68,0-1.44.1-2.26,0-.16,0-.31,0-.45a2.21,2.21,0,0,0-.4-1.5,2.2,2.2,0,0,0-1.55-.38h-.58a3.88,3.88,0,0,1-1.24-.15,1.94,1.94,0,0,1-1.2-1.22v-.07a1.06,1.06,0,0,1,.3-.76,3.47,3.47,0,0,1,2.52-.7,4.87,4.87,0,0,1,.71,0l.42,0a2.47,2.47,0,0,0,.89-.17q-.15-1.61-.15-3.15,0-1.2.09-2.37.27-3.54,1.34-4.72a1.61,1.61,0,0,1,1.24-.58h.12a.68.68,0,0,1,.51.23,4.87,4.87,0,0,1,.49,2.79c0,.89-.06,2-.17,3.26-.08.84-.12,1.39-.13,1.65s0,.67,0,1.14V12c0,.13.25.19.74.19h.35a20.64,20.64,0,0,0,2.81-.39l.37-.1a7.3,7.3,0,0,1,1.58-.26A1.16,1.16,0,0,1,150.56,12Z"/>
                <path class="cls-2-type_of_dots"
                      d="M153,15.51l.09.09c.38.11,2.31.79,5.78,2.06a6.07,6.07,0,0,1,2.62,1.59,2,2,0,0,1,.47,1.3,3.11,3.11,0,0,1-.36,1.36,3.8,3.8,0,0,1-2,1.43,14.77,14.77,0,0,1-3.44.88,13.67,13.67,0,0,1-2.11.17,8.71,8.71,0,0,1-1.28-.08c-1.06-.15-1.69-.48-1.89-1a3.6,3.6,0,0,1-.3-1.34,2.15,2.15,0,0,1,.17-.85.92.92,0,0,1,.87-.66,1.87,1.87,0,0,1,.71.17,8.14,8.14,0,0,0,3.11.77,3,3,0,0,0,2.27-.87q-.21,0-4.91-1.46-3.51-1.08-3.51-2.86a4.32,4.32,0,0,1,0-.5,3.62,3.62,0,0,1,2.06-3.05,7.29,7.29,0,0,1,3.86-1.18h.21a2.37,2.37,0,0,1,1.28.35,1.81,1.81,0,0,1,.75.81,1.09,1.09,0,0,1,.09.41,1,1,0,0,1-.16.52,1.84,1.84,0,0,1-1.18.68l-2.11.34c-.76.19-1.14.41-1.14.67A.29.29,0,0,0,153,15.51Z"/>
            </g>
            <g class="cls-3-type_of_dots">
                <path class="cls-4-type_of_dots"
                      d="M29.66,53.17v.11a1.24,1.24,0,0,1,0,.27.88.88,0,0,1-.62.78,6.43,6.43,0,0,1-1.2.23h-1c-.46,0-1,0-1.57.06l-.61.05-1.82.12-.83.05-.45,0-.25,0H21a2.75,2.75,0,0,1-.41,0,.57.57,0,0,1-.41-.24,1.08,1.08,0,0,1-.2-.55V54a2.1,2.1,0,0,1,.17-.75,1.09,1.09,0,0,1,1.11-1l.47,0h1.11l.76,0,.32,0,1.27-.1.65,0,.48,0L27,52l.52-.06a1.74,1.74,0,0,0,.4-.07c.19,0,.36-.06.52-.08h.13a1.28,1.28,0,0,1,.63.14C29.49,52.08,29.64,52.5,29.66,53.17Z"/>
                <path class="cls-4-type_of_dots"
                      d="M54.46,55.47a6.27,6.27,0,0,1,.93,1.26,1.82,1.82,0,0,1,.21.82,1.51,1.51,0,0,1-.15.65.74.74,0,0,1-.69.5c-.53,0-1.23-.56-2.09-1.68a13,13,0,0,1-1.16-1.72c-.19-.37-.46-.94-.8-1.71s-.67-1.44-.88-1.83-.62-.53-1.31-.53l-.6,0-.38,0a19.56,19.56,0,0,0-3.07.41c-1.52,2.52-2.46,4-2.83,4.48-.61.77-1.13,1.15-1.58,1.15a.88.88,0,0,1-.33-.06.58.58,0,0,1-.34-.36.78.78,0,0,1,0-.24,7.9,7.9,0,0,1,1.09-2.84,6.79,6.79,0,0,0,.72-1.61v0s-.08-.08-.22-.08l-.45,0-.46,0a.54.54,0,0,1-.46-.19.43.43,0,0,1-.06-.22.69.69,0,0,1,.08-.32,2.53,2.53,0,0,1,.72-1,4.16,4.16,0,0,1,1.15-.53q1.35-.43,2.9-4.38l.24-.69a17,17,0,0,1,1.09-2.62c.56-1,1.17-1.5,1.83-1.51,1.31,0,2.09.79,2.34,2.36A32.66,32.66,0,0,0,51,48c0,.08.07.2.11.35a1.45,1.45,0,0,0,.25.6.45.45,0,0,0,.33.11h.15l.34-.06a4.94,4.94,0,0,1,.7-.08,1.14,1.14,0,0,1,.92.38.63.63,0,0,1,.17.42.57.57,0,0,1,0,.22c-.16.46-.75.85-1.78,1.17l.08.25A16.62,16.62,0,0,0,54,55Zm-5.91-6.8-.17-.87a12.76,12.76,0,0,0-.94-3.36A29.57,29.57,0,0,0,46,48.06c-.21.59-.36,1-.44,1.2q.41-.06,1.32-.27A13.39,13.39,0,0,1,48.55,48.67Z"/>
                <path class="cls-4-type_of_dots"
                      d="M59.89,56l.33,0a10.42,10.42,0,0,0,2.58-.9,13.34,13.34,0,0,1,2.41-.94l.33,0c.5,0,.77.27.8.82q-.27,1.68-4.45,3.27a7,7,0,0,1-2.46.52,3,3,0,0,1-2.6-1.28,4,4,0,0,1-.69-2.3v-.21a6.66,6.66,0,0,1,.45-2.39A5.52,5.52,0,0,1,58,50.4a3,3,0,0,1,2-.84h.06a1.26,1.26,0,0,1,1.31.84,1.24,1.24,0,0,1,.08.41,1.17,1.17,0,0,1-.7,1A11.58,11.58,0,0,0,59,53a1.82,1.82,0,0,0-.55,1.31,2.47,2.47,0,0,0,.14.77A1.25,1.25,0,0,0,59.89,56Z"/>
                <path class="cls-4-type_of_dots"
                      d="M68.28,56l.34,0a10.25,10.25,0,0,0,2.57-.9,13.34,13.34,0,0,1,2.41-.94l.33,0c.51,0,.78.27.8.82q-.27,1.68-4.44,3.27a7.1,7.1,0,0,1-2.46.52,3,3,0,0,1-2.61-1.28,4.07,4.07,0,0,1-.69-2.3v-.21A6.46,6.46,0,0,1,65,52.52a5.41,5.41,0,0,1,1.39-2.12,3,3,0,0,1,2-.84h.06a1.26,1.26,0,0,1,1.31.84,1.24,1.24,0,0,1,.08.41,1.16,1.16,0,0,1-.7,1A11.28,11.28,0,0,0,67.4,53a1.84,1.84,0,0,0-.56,1.31,2.47,2.47,0,0,0,.14.77A1.26,1.26,0,0,0,68.28,56Z"/>
                <path class="cls-4-type_of_dots"
                      d="M77.42,49.34a2.7,2.7,0,0,1,2.24,1.06,4.44,4.44,0,0,1,.83,2.82,6.52,6.52,0,0,1-1.07,3.69,3.61,3.61,0,0,1-3.09,1.79,3.33,3.33,0,0,1-.76-.08,2.85,2.85,0,0,1-2.15-1.87A6.33,6.33,0,0,1,73,54.28c0-.23,0-.47,0-.72a4.64,4.64,0,0,1,1.31-3.07,4.07,4.07,0,0,1,3-1.15Zm-1.67,3.54a2.64,2.64,0,0,0-.29,1.27v.12a2.61,2.61,0,0,0,.35,1.36.88.88,0,0,0,.73.52,1.46,1.46,0,0,0,1-.65,2.9,2.9,0,0,0,.64-1.72v-.27a2.78,2.78,0,0,0-.4-1.52.71.71,0,0,0-.62-.37,1.43,1.43,0,0,0-.94.44A1.36,1.36,0,0,0,75.75,52.88Z"/>
                <path class="cls-4-type_of_dots"
                      d="M90.05,56.12a8,8,0,0,1,.58,2.37c0,.61-.26.92-.78.92a1.57,1.57,0,0,1-1-.42,4.57,4.57,0,0,1-1.07-2.52c-.08-.39-.13-.66-.17-.83a6.93,6.93,0,0,1-1.77,2.07,3.67,3.67,0,0,1-2.18,1A1.39,1.39,0,0,1,82.4,58a4.1,4.1,0,0,1-.47-2.18,13.57,13.57,0,0,1,.57-3.56c.48-1.75,1.08-2.64,1.78-2.66h0a.73.73,0,0,1,.6.25,1.62,1.62,0,0,1,.21,1,14.55,14.55,0,0,1-.45,3,11.54,11.54,0,0,0-.34,2c0,.11,0,.18,0,.2a.28.28,0,0,0,.12,0,4.38,4.38,0,0,0,1.79-2.15,11.56,11.56,0,0,0,.59-2.4,7,7,0,0,1,.29-1.33.76.76,0,0,1,.7-.55c.61,0,1,.42,1.28,1.27a12,12,0,0,1,.32,2.45c0,.6.07,1,.1,1.21A13.72,13.72,0,0,0,90.05,56.12Z"/>
                <path class="cls-4-type_of_dots"
                      d="M100.44,56.27a5.91,5.91,0,0,1,.24,1.45,1.07,1.07,0,0,1-.16.66,1,1,0,0,1-.82.32,2.26,2.26,0,0,1-.49-.05c-.5-.09-.89-.69-1.18-1.8a29.21,29.21,0,0,1-.58-3.4c-.15-1.1-.27-1.81-.35-2.11a5.48,5.48,0,0,0-1.85,2.16A6.22,6.22,0,0,0,94.79,56a3,3,0,0,1-.48,1.44c-.37.62-.76.94-1.17.94s-.68-.25-1-.75a3.32,3.32,0,0,1-.25-1.51,17.3,17.3,0,0,1,.21-2.41c.12-.85.18-1.42.19-1.73a1.82,1.82,0,0,1,.48-1.36,1.2,1.2,0,0,1,.85-.31,1.8,1.8,0,0,1,.44.05c.38.08.58.21.61.4a7.41,7.41,0,0,0,.76-1,9.68,9.68,0,0,1,.69-1,3.33,3.33,0,0,1,.65-.51,2.21,2.21,0,0,1,1.07-.37.85.85,0,0,1,.82.54A22.14,22.14,0,0,1,100,53.61c.13.85.23,1.49.31,1.92A6.55,6.55,0,0,0,100.44,56.27Z"/>
                <path class="cls-4-type_of_dots"
                      d="M111.53,49.7a1.27,1.27,0,0,1,.14.54.84.84,0,0,1-.08.38,2.32,2.32,0,0,1-1.8,1c-.6.11-1.51.21-2.74.3l-.35,0s0,.15,0,.35c0,.49-.06.87-.06,1.15,0,.12,0,.21,0,.29.07.64.11,1.44.12,2.41v.39c0,1.35-.11,2-.34,2.13,0,0-.16.05-.46.05a3.92,3.92,0,0,1-1.15-.08c-.49-.49-.74-1.54-.74-3.18,0-.5,0-1,.07-1.64,0-.11,0-.22,0-.33a1.55,1.55,0,0,0-.29-1.08,1.59,1.59,0,0,0-1.12-.28h-.42a2.91,2.91,0,0,1-.9-.11,1.43,1.43,0,0,1-.87-.88v-.06a.73.73,0,0,1,.22-.54,2.53,2.53,0,0,1,1.83-.51,3.68,3.68,0,0,1,.51,0h.31a1.77,1.77,0,0,0,.64-.12c-.07-.77-.11-1.53-.11-2.28,0-.58,0-1.16.06-1.72a6.08,6.08,0,0,1,1-3.42,1.17,1.17,0,0,1,.9-.42H106a.5.5,0,0,1,.37.17,3.44,3.44,0,0,1,.35,2c0,.64,0,1.43-.12,2.36q-.08.91-.09,1.2c0,.21,0,.48,0,.82v1c0,.09.18.14.54.14h.26a15.08,15.08,0,0,0,2-.28l.27-.07a4.89,4.89,0,0,1,1.14-.19A.87.87,0,0,1,111.53,49.7Z"/>
                <path class="cls-4-type_of_dots"
                      d="M129.48,49.7a1.16,1.16,0,0,1,.15.54.85.85,0,0,1-.09.38c-.23.48-.83.81-1.8,1q-.9.16-2.73.3l-.35,0a2.66,2.66,0,0,0,0,.35c0,.49-.06.87-.06,1.15a2.44,2.44,0,0,0,0,.29c.06.64.1,1.44.12,2.41v.39c0,1.35-.11,2-.34,2.13,0,0-.17.05-.46.05a3.87,3.87,0,0,1-1.15-.08c-.49-.49-.74-1.54-.74-3.18,0-.5,0-1,.07-1.64,0-.11,0-.22,0-.33a1.61,1.61,0,0,0-.29-1.08,1.62,1.62,0,0,0-1.13-.28h-.42a2.84,2.84,0,0,1-.89-.11,1.39,1.39,0,0,1-.87-.88v-.06a.73.73,0,0,1,.22-.54,2.49,2.49,0,0,1,1.82-.51,3.68,3.68,0,0,1,.51,0h.31a1.73,1.73,0,0,0,.64-.12c-.07-.77-.1-1.53-.1-2.28,0-.58,0-1.16.06-1.72a6.09,6.09,0,0,1,1-3.42,1.2,1.2,0,0,1,.9-.42h.09a.51.51,0,0,1,.37.17,3.53,3.53,0,0,1,.35,2c0,.64,0,1.43-.12,2.36q-.09.91-.09,1.2c0,.21,0,.48,0,.82v1c0,.09.18.14.54.14h.25a14.88,14.88,0,0,0,2-.28l.27-.07a4.88,4.88,0,0,1,1.15-.19A.84.84,0,0,1,129.48,49.7Z"/>
                <path class="cls-4-type_of_dots"
                      d="M137.8,59.7a12.75,12.75,0,0,1,.15,1.77,4.38,4.38,0,0,1-.1,1,4,4,0,0,1-2,2.34,3.37,3.37,0,0,1-1.76.49q-2.26,0-4.53-2.62a2.13,2.13,0,0,1-.38-.85,1.94,1.94,0,0,1,0-.4,1.17,1.17,0,0,1,.08-.45.57.57,0,0,1,.53-.33,1.55,1.55,0,0,1,.6.15c.87.42,1.71.87,2.53,1.37a2.94,2.94,0,0,0,1.46.52,1,1,0,0,0,.82-.37,4.15,4.15,0,0,0,.57-2.53,27.72,27.72,0,0,0-.63-5.12c-.2.26-.48.67-.84,1.22a9.09,9.09,0,0,1-1.2,1.59,3.14,3.14,0,0,1-1.77.94,2.12,2.12,0,0,1-.42,0,1.57,1.57,0,0,1-1.25-.54,3.93,3.93,0,0,1-.65-2.55,14,14,0,0,1,.17-2.09,11.07,11.07,0,0,1,.57-2.09c.47-1.38,1-2.07,1.49-2.07.32,0,.62.26.88.78l0,.07a12.11,12.11,0,0,1-.45,2.71,11.68,11.68,0,0,0-.43,2.71,1.93,1.93,0,0,0,0,.24,3.34,3.34,0,0,0,1.5-1.49,25.91,25.91,0,0,0,1.2-2.4A18.06,18.06,0,0,1,135,49.6c.39-.61.79-.92,1.18-.92a.85.85,0,0,1,.23,0h0a.57.57,0,0,1,.38.2q.83.82.82,6.62v1.19c0,.73,0,1.2,0,1.43S137.72,59,137.8,59.7Z"/>
                <path class="cls-4-type_of_dots"
                      d="M147.46,52.12a2.31,2.31,0,0,1,.2.92,4.05,4.05,0,0,1-1.37,2.69,5.62,5.62,0,0,1-2.93,1.71q-.62.12-.72.27a.63.63,0,0,0-.06.34c0,.1,0,.21,0,.34,0,.33,0,.61,0,.84v.32a46.13,46.13,0,0,0,.23,4.74,1.48,1.48,0,0,1,0,.21.85.85,0,0,1-.18.57.75.75,0,0,1-.58.22A2.37,2.37,0,0,1,141,64.9a2.41,2.41,0,0,1-.85-1.79,17.15,17.15,0,0,1-.11-2.22V60q-.11-3.66-.11-5.9A26,26,0,0,1,140,51a3,3,0,0,1,.35-1.47.78.78,0,0,1,.64-.25h.25a9.65,9.65,0,0,1,3.56.71A4.33,4.33,0,0,1,147.46,52.12Zm-4.91,3.08v.12a2.63,2.63,0,0,0,1.64-.72,2.78,2.78,0,0,0,.86-1.6,1,1,0,0,0,0-.17.9.9,0,0,0-.23-.62,2,2,0,0,0-1.18-.61,2.87,2.87,0,0,0-.62-.07,1.24,1.24,0,0,0-.5.09,2.13,2.13,0,0,0-.13.93c0,.38,0,.86.08,1.46S142.55,55,142.55,55.2Z"/>
                <path class="cls-4-type_of_dots"
                      d="M158.44,53.36a2,2,0,0,1,1-.48c.21,0,.32.17.32.5a6.14,6.14,0,0,1-1.66,3.12,7.17,7.17,0,0,1-2.87,2.09,4.68,4.68,0,0,1-1,.11c-1.71,0-3.3-1-4.74-2.91a4.47,4.47,0,0,1-.74-2.73,10.42,10.42,0,0,1,.13-1.6c.16-1,1-1.73,2.5-2.06a2.46,2.46,0,0,1,.6-.07,2.5,2.5,0,0,1,1.53.52,4.71,4.71,0,0,1,1.38,1.79,3.68,3.68,0,0,1,.15,1,2.55,2.55,0,0,1-1.29,2.22,2.66,2.66,0,0,1-.56.27l-.48.17a.29.29,0,0,0-.18.25v0a1,1,0,0,0,.3.5,1.93,1.93,0,0,0,1.89.61,3.91,3.91,0,0,0,2.06-1.44A18.55,18.55,0,0,1,158.44,53.36Zm-7,.73a1.18,1.18,0,0,0,.92-.4,1.47,1.47,0,0,0,.38-.89,1.09,1.09,0,0,0,0-.18,1.37,1.37,0,0,0-.21-.75,1.1,1.1,0,0,0-.82-.51h-.14a.6.6,0,0,0-.54.29,1.46,1.46,0,0,0-.2.82A1.88,1.88,0,0,0,151.45,54.09Z"/>
            </g>
        </g>
    </g>
</svg>