<svg xmlns="http://www.w3.org/2000/svg" viewBox="0 0 55.26 55.26">
    <defs>
        <style>.cls-1{fill:#FFF9F0;}.cls-2{fill:#ffc000;}</style>
    </defs>
    <g id="图层_2">
        <path class="cls-2"
              d="M34.3,5a.72.72,0,0,1,.72.72V7.91l1.56-1.55a.71.71,0,0,1,1,0,.66.66,0,0,1,.22.5.7.7,0,0,1-.22.52L36,9a3.29,3.29,0,0,1,1.57,2.8v.33h2.79a1.09,1.09,0,0,1,0,2.17H37.57V20A11,11,0,0,1,28.21,31v3.65H39.4l-.81-2.23a19,19,0,0,0,5.32,2.95,18.53,18.53,0,0,0-5.32,3l.81-2.24H28.21v3.13a3.23,3.23,0,0,1,0,6.09v5H26v-5a3.24,3.24,0,0,1,0-6.09V36.05h-10a5.7,5.7,0,0,0-1,1.13H11.36a6.34,6.34,0,0,1,1.76-1.85,6.46,6.46,0,0,1-1.77-1.84H15.1a4.83,4.83,0,0,0,1,1.12H26V31.07A11,11,0,0,1,15.46,20V19H31V11.78A3.28,3.28,0,0,1,32.59,9L31,7.38a.72.72,0,0,1,1-1l1.56,1.55V5.68A.72.72,0,0,1,34.3,5Z"/>
        <rect class="cls-1" x="33.22" y="10.64" width="2.15" height="2.15" rx="1.08"
              transform="translate(68.6 23.43) rotate(180)"/>
        <path class="cls-1"
              d="M29.57,23.7a3.82,3.82,0,1,1-7.64,0,.54.54,0,0,1,1.08,0,2.74,2.74,0,0,0,5.48,0,.54.54,0,0,1,1.08,0Z"/>
    </g>
</svg>