<svg xmlns="http://www.w3.org/2000/svg" viewBox="0 0 89.79 58">
    <defs>
        <style>.cls-1{fill:#f5c43e;}.cls-2{fill:#fff8ef;}</style>
    </defs>
    <g id="图层_2" data-name="图层 2">
        <g id="图层_1-2" data-name="图层 1">
            <path class="cls-1" d="M0,0H60.79a29,29,0,0,1,29,29v0a29,29,0,0,1-29,29H0a0,0,0,0,1,0,0V0A0,0,0,0,1,0,0Z"/>
            <path class="cls-1"
                  d="M80.8,38.92a1,1,0,0,1-1,1H76.72l2.15,2.16a1,1,0,0,1,0,1.41,1,1,0,0,1-1.41,0l-2.22-2.22a4.54,4.54,0,0,1-3.88,2.18h-.45V47.3a1.5,1.5,0,0,1-3,0V43.45H60a15.28,15.28,0,0,1-15.11-13H37V50.13L40.11,49A26.08,26.08,0,0,0,36,56.36,25.83,25.83,0,0,0,31.93,49L35,50.13V30.5H26.54a4.47,4.47,0,0,1-8.42,0H0v-3H18.12a4.47,4.47,0,0,1,8.42,0H35V8.14a7.48,7.48,0,0,0-1.55-1.31V1.65A8.86,8.86,0,0,1,36,4.09a9,9,0,0,1,2.55-2.45V6.83A6.7,6.7,0,0,0,37,8.14V27.5h7.66A15.28,15.28,0,0,1,60,12.86h1.49V34.35h9.92a4.54,4.54,0,0,1,3.89,2.21l2.21-2.21a1,1,0,0,1,1.41,0,1,1,0,0,1,0,1.42l-2.15,2.15H79.8A1,1,0,0,1,80.8,38.92Z"/>
            <rect class="cls-2" x="69.96" y="37.43" width="2.98" height="2.98" rx="1.49"
                  transform="translate(32.53 110.37) rotate(-90)"/>
            <path class="cls-2"
                  d="M54.88,32.38a5.29,5.29,0,1,1,0-10.58.75.75,0,0,1,0,1.5,3.79,3.79,0,1,0,0,7.58.75.75,0,0,1,0,1.5Z"/>
            <path class="cls-2"
                  d="M80.8,38.92a1,1,0,0,1-1,1H76.72l2.15,2.16a1,1,0,0,1,0,1.41,1,1,0,0,1-1.41,0l-2.22-2.22a4.54,4.54,0,0,1-3.88,2.18h-.45V47.3a1.5,1.5,0,0,1-3,0V43.45H60a15.28,15.28,0,0,1-15.11-13H37V50.13L40.11,49A26.08,26.08,0,0,0,36,56.36,25.83,25.83,0,0,0,31.93,49L35,50.13V30.5H26.54a4.47,4.47,0,0,1-8.42,0H0v-3H18.12a4.47,4.47,0,0,1,8.42,0H35V8.14a7.48,7.48,0,0,0-1.55-1.31V1.65A8.86,8.86,0,0,1,36,4.09a9,9,0,0,1,2.55-2.45V6.83A6.7,6.7,0,0,0,37,8.14V27.5h7.66A15.28,15.28,0,0,1,60,12.86h1.49V34.35h9.92a4.54,4.54,0,0,1,3.89,2.21l2.21-2.21a1,1,0,0,1,1.41,0,1,1,0,0,1,0,1.42l-2.15,2.15H79.8A1,1,0,0,1,80.8,38.92Z"/>
            <rect class="cls-1" x="69.96" y="37.43" width="2.98" height="2.98" rx="1.49"
                  transform="translate(32.53 110.37) rotate(-90)"/>
            <path class="cls-1"
                  d="M54.88,32.38a5.29,5.29,0,1,1,0-10.58.75.75,0,0,1,0,1.5,3.79,3.79,0,1,0,0,7.58.75.75,0,0,1,0,1.5Z"/>
        </g>
    </g>
</svg>