<?xml version="1.0" encoding="utf-8"?>
<!-- Generator: Adobe Illustrator 26.0.3, svg Export Plug-In . svg Version: 6.00 Build 0)  -->
<svg version="1.1" id="图层_1" xmlns="http://www.w3.org/2000/svg" xmlns:xlink="http://www.w3.org/1999/xlink" x="0px" y="0px"
	 viewBox="0 0 24 24" style="enable-background:new 0 0 24 24;" xml:space="preserve">
<style type="text/css">
	.st0{clip-path:url(#SVGID_00000031896241274636853360000008565191362543062918_);fill:#FFC000;}
	.st1{fill:#FFC000;}
</style>
<g>
	<g>
		<defs>
			<rect id="SVGID_1_" x="0.2" y="4.6" width="23.6" height="14.8"/>
		</defs>
		<clipPath id="SVGID_00000131366688833378509940000000476142802343742102_">
			<use xlink:href="#SVGID_1_"  style="overflow:visible;"/>
		</clipPath>
		<path style="clip-path:url(#SVGID_00000131366688833378509940000000476142802343742102_);fill:#FFC000;" d="M11.8,19.4
			c-4.3,0-8.5-3-11-5.8c-0.8-0.9-0.8-2.3,0-3.2c2.5-2.8,6.8-5.8,11-5.8l0.2,0l0.1,0c4.3,0,8.5,3,11,5.8c0.8,0.9,0.8,2.3,0,3.2
			c-2.5,2.8-6.8,5.8-11.1,5.8l-0.1,0L11.8,19.4z M12.1,17.9c3.8,0,7.6-2.7,10-5.3c0.3-0.3,0.3-0.9,0-1.2c-2.3-2.6-6.2-5.3-9.9-5.3
			l-0.2,0h-0.1c-3.8,0-7.6,2.7-10,5.3c-0.3,0.3-0.3,0.9,0,1.2c2.3,2.6,6.2,5.3,10,5.3l0.1,0L12.1,17.9z M12.1,17.9"/>
	</g>
	<path class="st1" d="M12,16.4c-2.4,0-4.4-2-4.4-4.4c0-2.4,2-4.4,4.4-4.4c2.4,0,4.4,2,4.4,4.4S14.4,16.4,12,16.4L12,16.4z M12,9
		c-1.6,0-3,1.3-3,3c0,1.6,1.3,3,3,3c1.6,0,3-1.3,3-3S13.6,9,12,9L12,9z M12,9"/>
</g>
</svg>
