<svg xmlns="http://www.w3.org/2000/svg" viewBox="0 0 169.39 62.45">
    <defs>
        <style>.cls-1-width_of_wing{opacity:0.9;}.cls-2-width_of_wing{fill:#231815;}.cls-3-width_of_wing{opacity:0.5;}.cls-4-width_of_wing{fill:#040000;opacity:0.7;}</style>
    </defs>
    <g id="图层_2">
        <g id="图层_1-2">
            <g class="cls-1-width_of_wing">
                <path class="cls-2-width_of_wing"
                      d="M18.6,0a7.7,7.7,0,0,1,1.84,4.55,22.33,22.33,0,0,1,.11,2.53c0,.72,0,1.56-.05,2.5q-.3,10-.79,13.4-.8,5.61-2.73,5.61c-.68,0-1.47-.53-2.36-1.59a21.37,21.37,0,0,1-3.19-5.76,62.64,62.64,0,0,0-2.68-6h0c0,.53-.34,3.61-1,9.26a10.2,10.2,0,0,1-1,3.92,1.11,1.11,0,0,1-.91.54,1.94,1.94,0,0,1-1.17-.54,4.6,4.6,0,0,1-1.46-2C2,22.83,1.21,20.05.76,18.06A28.15,28.15,0,0,1,0,11.91,16.81,16.81,0,0,1,.17,9.49,5.29,5.29,0,0,1,.71,7.73a1.55,1.55,0,0,1,1.34-1h.06c.71,0,1.16.24,1.33.64a3.67,3.67,0,0,1,.13,1.26V9c0,.45,0,.88,0,1.3q0,6,1,8.69a14.08,14.08,0,0,0,.63-2.9c.24-1.82.36-2.81.39-3,.32-1.72.53-2.75.62-3.07A4,4,0,0,1,7.76,7.48a1.52,1.52,0,0,1,.68-.19q1.77,0,3.22,5.19A52.39,52.39,0,0,0,16,23.62a36.34,36.34,0,0,0,1.24-10.86c0-1.18,0-2.43-.07-3.76-.08-2.13-.25-4.15-.51-6a5.61,5.61,0,0,1-.07-.86A1.49,1.49,0,0,1,16.9,1a3.16,3.16,0,0,1,.66-.44C18,.36,18.34.16,18.6,0Z"/>
                <path class="cls-2-width_of_wing"
                      d="M24.38,13.21a1.81,1.81,0,0,1-1.22-.45,1,1,0,0,1-.34-.75v0a1.49,1.49,0,0,1,.66-1.16,2.2,2.2,0,0,1,1.34-.44h.29a2,2,0,0,1,1.22.34,1,1,0,0,1,.43.84,1.47,1.47,0,0,1-.57,1.13,2.15,2.15,0,0,1-1.47.54A2.06,2.06,0,0,1,24.38,13.21Zm.81,2.73q.84,0,.84.72a37.52,37.52,0,0,1,.55,6.74c0,.29,0,.59,0,.9L26.49,28c0,.18-.24.4-.74.64a2.69,2.69,0,0,1-1.15.35.52.52,0,0,1-.36-.11,3.61,3.61,0,0,1-1.16-2.56c0-.22,0-.49,0-.8,0-.66.05-1.52.14-2.59l.09-1c0-.79.08-1.62.08-2.46,0-.29,0-.57,0-.87s0-.38-.06-.63a1.55,1.55,0,0,1,0-.22,2.07,2.07,0,0,1,.42-1.18A1.69,1.69,0,0,1,25.19,15.94Z"/>
                <path class="cls-2-width_of_wing"
                      d="M42.24,25.05a3.25,3.25,0,0,1,1,1.93,1.22,1.22,0,0,1-.09.46c-.43.92-.94,1.38-1.52,1.38S40,27.88,38.78,26c-.29-.46-.5-.77-.62-.93a6.62,6.62,0,0,1-4.6,3.46,11.09,11.09,0,0,1-2.92.43c-1.26,0-1.89-.37-1.89-1.12a6.16,6.16,0,0,1-.11-1.12q0-3.52,4.55-6.61a7.22,7.22,0,0,1,1.09-.5q2.1-.84,2.1-1.35a23.23,23.23,0,0,1-.09-2.39c0-.53,0-1.13,0-1.79,0-.83,0-1.52,0-2.07s0-.75,0-1v-.12c0-.28,0-.54,0-.79,0-1.58.25-2.62.73-3.12a1.76,1.76,0,0,1,1.32-.52h.27c.27,0,.52.26.75.71a3.62,3.62,0,0,1,.38,1.15,33.59,33.59,0,0,1,.19,4.38v.71c0,.28,0,.7,0,1.27,0,.31,0,.61,0,.91a20,20,0,0,0,.34,4.28A22,22,0,0,0,42.24,25.05ZM36.16,22.2a10.84,10.84,0,0,0-2.29,1.13,3.29,3.29,0,0,0-1.53,1.56,1,1,0,0,0,0,.24.85.85,0,0,0,.2.53l.33,0A3,3,0,0,0,35,24.52,4.32,4.32,0,0,0,36.16,22.2Z"/>
                <path class="cls-2-width_of_wing"
                      d="M57.7,16.52a1.58,1.58,0,0,1,.21.74,1.14,1.14,0,0,1-.12.52c-.32.67-1.15,1.12-2.49,1.36-.82.15-2.08.28-3.77.41l-.49,0c0,.06,0,.22,0,.49-.06.67-.09,1.21-.09,1.59,0,.16,0,.29,0,.4.08.88.14,2,.17,3.32v.54q0,2.79-.48,2.94c0,.05-.22.07-.63.07a4.77,4.77,0,0,1-1.59-.12q-1-1-1-4.38c0-.68,0-1.44.1-2.27,0-.15,0-.3,0-.44a2.19,2.19,0,0,0-.4-1.5,2.15,2.15,0,0,0-1.55-.38H45a3.92,3.92,0,0,1-1.24-.15,1.94,1.94,0,0,1-1.2-1.22v-.08a1,1,0,0,1,.3-.75,3.51,3.51,0,0,1,2.53-.7,4.72,4.72,0,0,1,.7,0l.42,0a2.43,2.43,0,0,0,.89-.17q-.15-1.61-.15-3.15c0-.81,0-1.59.09-2.37q.27-3.54,1.35-4.72A1.59,1.59,0,0,1,49.89,6H50a.68.68,0,0,1,.51.23c.33.35.49,1.28.49,2.79,0,.89-.06,2-.17,3.26q-.11,1.26-.12,1.65c0,.29,0,.67,0,1.14v1.45c0,.13.24.19.74.19h.35a20.74,20.74,0,0,0,2.8-.39l.37-.1A7.3,7.3,0,0,1,56.55,16,1.16,1.16,0,0,1,57.7,16.52Z"/>
                <path class="cls-2-width_of_wing"
                      d="M69.59,27.38v.1c0,.89-.48,1.34-1.27,1.34a4,4,0,0,1-2.66-1.16,11.14,11.14,0,0,1-1.87-5.05l-.12-.67c-.19.37-.51,1.12-.94,2.25a27.5,27.5,0,0,1-1.4,3.21c-.58,1-1.16,1.54-1.72,1.54a2,2,0,0,1-1.51-.68,3.66,3.66,0,0,1-.92-2.54,4.19,4.19,0,0,1,0-.5c.09-1.07.14-2.68.14-4.84,0-.76,0-1.36,0-1.81,0-2.34.16-4.53.38-6.55q.61-5.6,1.92-5.6a.75.75,0,0,1,.45.16c.58.26.88,1.17.89,2.72v.09a40.15,40.15,0,0,1-.43,4.86c-.11.8-.17,1.31-.17,1.52-.1,1.63-.15,3.11-.15,4.45,0,.6,0,1.17,0,1.7a7.15,7.15,0,0,0,1.33-2.62,9.89,9.89,0,0,1,.82-2,3.54,3.54,0,0,1,1.7-1.48,1.2,1.2,0,0,1,.48-.11q1,0,1.71,2a26.64,26.64,0,0,1,.83,4.45c0,.32.07.52.08.58a8.86,8.86,0,0,0,2.29,4.53Z"/>
                <path class="cls-2-width_of_wing"
                      d="M89.36,16a3.75,3.75,0,0,1,3.09,1.46,6.15,6.15,0,0,1,1.15,3.89,9,9,0,0,1-1.48,5.1,5,5,0,0,1-4.27,2.47,4.81,4.81,0,0,1-1-.11,4,4,0,0,1-3-2.58,8.83,8.83,0,0,1-.62-3.41c0-.32,0-.65,0-1a6.35,6.35,0,0,1,1.81-4.24A5.55,5.55,0,0,1,89.15,16Zm-2.31,4.89a3.67,3.67,0,0,0-.4,1.75v.17a3.63,3.63,0,0,0,.48,1.87,1.22,1.22,0,0,0,1,.71,2,2,0,0,0,1.42-.89,4,4,0,0,0,.87-2.37c0-.13,0-.25,0-.38a3.86,3.86,0,0,0-.56-2.09,1,1,0,0,0-.86-.51,2,2,0,0,0-1.29.6A1.93,1.93,0,0,0,87.05,20.91Z"/>
                <path class="cls-2-width_of_wing"
                      d="M102.71,15c2.65.09,4.42.2,5.31.32s1.14.29,1.14.53a1.94,1.94,0,0,1-1.5,1.95,8.25,8.25,0,0,1-2.49.28h-2.51a5.23,5.23,0,0,0-1.46.15c.16,2.11.31,4,.48,5.52,0,.58.15,1.25.29,2,.08.47.14.83.19,1.1a.34.34,0,0,1,0,.1,2,2,0,0,1-.58,1.13,1.93,1.93,0,0,1-1.38.83.74.74,0,0,1-.41-.11c-.59,0-1-.84-1.11-2.37v-.21c-.08-.7-.16-1.73-.24-3.1-.11-1.79-.23-3.12-.35-4a.77.77,0,0,0-.48-.66,4.09,4.09,0,0,0-1.09-.18,5.7,5.7,0,0,1-.73-.09,1.79,1.79,0,0,1-1.46-1,1.05,1.05,0,0,1-.11-.48,1.43,1.43,0,0,1,.18-.66q.07-.39,2.1-.75a9.75,9.75,0,0,0,1.2-.26,21.32,21.32,0,0,1,.57-5.73c.66-2.22,2-3.33,3.85-3.33h.19a6,6,0,0,1,3.77,1.29,7.94,7.94,0,0,1,2.5,3.61,5,5,0,0,1,.31,1.56,1.49,1.49,0,0,1-.24.89,1.69,1.69,0,0,1-1.47.57,1.51,1.51,0,0,1-1.15-.35,2,2,0,0,1-.37-.88,7.25,7.25,0,0,0-.3-1c-.79-2-1.53-2.93-2.22-2.93q-.6,0-1.14,1.11a9.47,9.47,0,0,0-.71,2.4,9.84,9.84,0,0,0-.13,1.52c0,.15,0,.29,0,.42,0,.42.09.65.18.68Z"/>
                <path class="cls-2-width_of_wing"
                      d="M135.36,18.39a12.94,12.94,0,0,1,.43,3.38v.28a19.37,19.37,0,0,1-.4,4c-.42,1.64-1.18,2.46-2.26,2.46H133a3.34,3.34,0,0,1-2.1-1.13,15.59,15.59,0,0,1-1.64-2.17,11.67,11.67,0,0,0-1.74-2.2l-.08.17q-2.6,5.79-4.27,5.79a1.12,1.12,0,0,1-.76-.32,6.87,6.87,0,0,1-1.72-4.15,15.9,15.9,0,0,1-.15-2.19,16.27,16.27,0,0,1,.16-2.3,5.59,5.59,0,0,1,.9-2.16c.64-1.08,1.25-1.63,1.82-1.63s.8.34,1.06,1a2.09,2.09,0,0,1,.11.77,10,10,0,0,1-.35,2.24,9.57,9.57,0,0,0-.35,2.19,1.83,1.83,0,0,0,.17.87,3.64,3.64,0,0,0,1-1.75,5.75,5.75,0,0,1,.49-1.11,2.72,2.72,0,0,1,.77-.73,2.11,2.11,0,0,1,1.13-.43,1,1,0,0,1,.42.09,11.54,11.54,0,0,1,3.47,3.24c.49.6.87,1.06,1.14,1.37a5.2,5.2,0,0,0,.13-1.25,19.26,19.26,0,0,0-.28-2.92,15.24,15.24,0,0,1-.21-2.22,2.37,2.37,0,0,1,.29-1.39,1.12,1.12,0,0,1,.85-.34h.14C134.25,15.92,134.93,16.77,135.36,18.39Z"/>
                <path class="cls-2-width_of_wing"
                      d="M139.25,13.21a1.82,1.82,0,0,1-1.23-.45,1,1,0,0,1-.34-.75v0a1.53,1.53,0,0,1,.67-1.16,2.17,2.17,0,0,1,1.33-.44H140a2,2,0,0,1,1.23.34,1,1,0,0,1,.42.84,1.47,1.47,0,0,1-.57,1.13,2.12,2.12,0,0,1-1.47.54A1.94,1.94,0,0,1,139.25,13.21Zm.81,2.73c.56,0,.83.24.83.72a37.52,37.52,0,0,1,.55,6.74c0,.29,0,.59,0,.9L141.36,28c0,.18-.25.4-.74.64a2.76,2.76,0,0,1-1.16.35.52.52,0,0,1-.36-.11A3.57,3.57,0,0,1,138,26.27a6.17,6.17,0,0,1,0-.8c0-.66.05-1.52.15-2.59,0-.44.06-.76.08-1,.06-.79.09-1.62.09-2.46,0-.29,0-.57,0-.87a4.11,4.11,0,0,0-.06-.63,1.55,1.55,0,0,1,0-.22,2,2,0,0,1,.43-1.18A1.68,1.68,0,0,1,140.06,15.94Z"/>
                <path class="cls-2-width_of_wing"
                      d="M155.8,25.58a8.27,8.27,0,0,1,.33,2,1.47,1.47,0,0,1-.22.91,1.34,1.34,0,0,1-1.13.45,3.49,3.49,0,0,1-.68-.07c-.68-.12-1.23-.95-1.63-2.49a39.62,39.62,0,0,1-.8-4.69c-.21-1.52-.36-2.49-.48-2.91a7.72,7.72,0,0,0-2.56,3,8.76,8.76,0,0,0-.63,3.39,4.18,4.18,0,0,1-.67,2c-.5.85-1,1.28-1.61,1.28s-.93-.34-1.32-1a4.63,4.63,0,0,1-.35-2.09,24.42,24.42,0,0,1,.29-3.32,23.7,23.7,0,0,0,.27-2.39,2.44,2.44,0,0,1,.66-1.87,1.64,1.64,0,0,1,1.17-.43,2.64,2.64,0,0,1,.6.07c.53.11.81.29.85.54a10.16,10.16,0,0,0,1.05-1.41,12.12,12.12,0,0,1,.95-1.35,4.14,4.14,0,0,1,.9-.7,2.94,2.94,0,0,1,1.48-.51,1.16,1.16,0,0,1,1.13.74,30.18,30.18,0,0,1,1.72,7.25c.18,1.17.32,2,.43,2.64C155.58,24.76,155.67,25.1,155.8,25.58Z"/>
                <path class="cls-2-width_of_wing"
                      d="M167.65,16.41c1.16.33,1.74.81,1.74,1.43V18l-.09.06c-.3.21-.45.78-.45,1.73a16.48,16.48,0,0,0,.14,1.89c.06.52.1.88.11,1.07v.49c.06,1.54.08,2.92.08,4.15A42.87,42.87,0,0,1,169,31.9a10.22,10.22,0,0,1-.91,3.38A4.43,4.43,0,0,1,165,37.94a3.91,3.91,0,0,1-.91.1,5.54,5.54,0,0,1-4.64-2.73c-.17-.31-.32-.55-.45-.74A5.16,5.16,0,0,1,158,32a1.51,1.51,0,0,1,.57-1.23.62.62,0,0,1,.31-.08c.57,0,1.17.53,1.8,1.6A6.75,6.75,0,0,0,162.11,34a2.91,2.91,0,0,0,1.77.78c.75,0,1.31-.52,1.66-1.56a14.48,14.48,0,0,0,.51-4.36c0-.66,0-1.38-.06-2.15-.06-1.11-.1-2-.1-2.71,0-.25,0-.48,0-.68a12.47,12.47,0,0,0-1,1.46,5.83,5.83,0,0,1-2.86,2.82,3,3,0,0,1-.79.11,3,3,0,0,1-2.22-1.06,4.31,4.31,0,0,1-1.11-2.27,7.14,7.14,0,0,1-.1-1.21,6.7,6.7,0,0,1,1.7-4.45,7.06,7.06,0,0,1,5.6-2.59h.31A8,8,0,0,1,167.65,16.41Zm-6,4.25a5.38,5.38,0,0,0-.8,1.87,3,3,0,0,0-.1.75,1.26,1.26,0,0,0,.44,1,.12.12,0,0,0,.09,0c.58,0,1.89-1.58,3.95-4.74l.51-.79c-.06-.12-.23-.17-.5-.17a4.28,4.28,0,0,0-1.85.54A4.43,4.43,0,0,0,161.7,20.66Z"/>
            </g>
            <g class="cls-3-width_of_wing">
                <path class="cls-4-width_of_wing"
                      d="M52.29,56.92a.34.34,0,0,1,0,.1,1,1,0,0,1,0,.28.87.87,0,0,1-.61.77,8.17,8.17,0,0,1-1.2.24h-1q-.69,0-1.56.06l-.61,0-1.83.13-.82,0-.45.05-.26,0h-.25l-.42,0a.59.59,0,0,1-.41-.24,1.13,1.13,0,0,1-.19-.55v-.09a1.83,1.83,0,0,1,.17-.74,1.09,1.09,0,0,1,1.1-1l.48,0h1.87l.32,0,1.27-.1.65,0,.48,0c.22,0,.44,0,.64-.06l.52-.05.39-.07a3.8,3.8,0,0,1,.53-.08h.13a1.22,1.22,0,0,1,.62.13C52.12,55.83,52.27,56.25,52.29,56.92Z"/>
                <path class="cls-4-width_of_wing"
                      d="M73.67,58.52a13.09,13.09,0,0,1,.13,1.61,3,3,0,0,1-.28,1.46,1.47,1.47,0,0,1-1.29.8,2.9,2.9,0,0,1-2.32-1.61,59.42,59.42,0,0,1-3.47-6.59c-.62-1.3-1.07-2.24-1.36-2.81,0,1.36,0,2.64,0,3.83,0,2,0,3.83.1,5.37v.07a1.93,1.93,0,0,1-.6,1.35,1.22,1.22,0,0,1-.88.45,1,1,0,0,1-.91-.64,4.42,4.42,0,0,1-.35-1.91v-.28c0-.34,0-1.1,0-2.29V53c0-.34,0-.86,0-1.58,0-.34,0-.66,0-1a23.58,23.58,0,0,1,.19-3.52,2.85,2.85,0,0,1,.51-1.32,1.07,1.07,0,0,1,.89-.47c.7,0,1.28.53,1.74,1.6a115.25,115.25,0,0,0,5.53,11.34v-.51q0-3.21-.3-8.37c0-.11,0-.24,0-.39-.06-.71-.08-1.35-.08-1.93,0-1.74.23-2.87.7-3.37a1.05,1.05,0,0,1,.79-.35,1.12,1.12,0,0,1,.86.36A4.06,4.06,0,0,1,73.73,46a19.12,19.12,0,0,1-.12,2q0,.31,0,.36-.18,2.05-.18,4.47,0,2.2.15,4.74C73.56,57.77,73.6,58.08,73.67,58.52Z"/>
                <path class="cls-4-width_of_wing"
                      d="M79.88,53.09a2.7,2.7,0,0,1,2.23,1A4.41,4.41,0,0,1,83,57a6.52,6.52,0,0,1-1.07,3.69,3.62,3.62,0,0,1-3.1,1.8,3.91,3.91,0,0,1-.75-.08,2.91,2.91,0,0,1-2.16-1.87A6.36,6.36,0,0,1,75.42,58q0-.36,0-.72a4.56,4.56,0,0,1,1.31-3.07,4,4,0,0,1,3-1.15ZM78.2,56.63a2.72,2.72,0,0,0-.29,1.26V58a2.7,2.7,0,0,0,.35,1.35.87.87,0,0,0,.74.52,1.47,1.47,0,0,0,1-.65,2.89,2.89,0,0,0,.63-1.71,2.72,2.72,0,0,0,0-.28,2.8,2.8,0,0,0-.4-1.52.74.74,0,0,0-.63-.37,1.42,1.42,0,0,0-.93.44A1.45,1.45,0,0,0,78.2,56.63Z"/>
                <path class="cls-4-width_of_wing"
                      d="M86.16,59.68a1.84,1.84,0,0,1,1.3.45,1.26,1.26,0,0,1,.44,1,1.21,1.21,0,0,1-.44,1,1.85,1.85,0,0,1-1.23.39,2.92,2.92,0,0,1-.5-.05,1.17,1.17,0,0,1-.78-.52,1.44,1.44,0,0,1-.22-.78V61a1.38,1.38,0,0,1,.38-.87A1.51,1.51,0,0,1,86.16,59.68Z"/>
                <path class="cls-4-width_of_wing"
                      d="M103.11,53.09a2.7,2.7,0,0,1,2.23,1,4.41,4.41,0,0,1,.84,2.82,6.45,6.45,0,0,1-1.08,3.69,3.6,3.6,0,0,1-3.09,1.8,4,4,0,0,1-.76-.08A2.9,2.9,0,0,1,99.1,60.5,6.36,6.36,0,0,1,98.65,58q0-.36,0-.72A4.56,4.56,0,0,1,100,54.24a4,4,0,0,1,3-1.15Zm-1.68,3.54a2.72,2.72,0,0,0-.29,1.26V58a2.7,2.7,0,0,0,.35,1.35.87.87,0,0,0,.74.52,1.47,1.47,0,0,0,1-.65,3,3,0,0,0,.63-1.71,2.72,2.72,0,0,0,0-.28,2.8,2.8,0,0,0-.4-1.52.74.74,0,0,0-.63-.37,1.42,1.42,0,0,0-.93.44A1.45,1.45,0,0,0,101.43,56.63Z"/>
                <path class="cls-4-width_of_wing"
                      d="M112.78,52.38c1.92.06,3.2.14,3.85.22s.82.21.82.39a1.41,1.41,0,0,1-1.09,1.42,6.18,6.18,0,0,1-1.8.2h-1.82a3.42,3.42,0,0,0-1,.12c.11,1.52.22,2.85.34,4,0,.42.11.91.21,1.46.06.34.11.61.14.8a.2.2,0,0,1,0,.07,1.41,1.41,0,0,1-.42.82,1.38,1.38,0,0,1-1,.61.61.61,0,0,1-.3-.08c-.43,0-.7-.61-.8-1.72V60.5q-.09-.77-.18-2.25c-.07-1.3-.16-2.26-.25-2.89a.55.55,0,0,0-.34-.47,3,3,0,0,0-.8-.13l-.52-.06A1.35,1.35,0,0,1,106.7,54a.85.85,0,0,1-.08-.35,1,1,0,0,1,.14-.47c0-.19.54-.37,1.52-.55l.87-.18a15.73,15.73,0,0,1,.41-4.16c.48-1.6,1.41-2.41,2.8-2.41h.13a4.34,4.34,0,0,1,2.73.93A5.71,5.71,0,0,1,117,49.41a3.7,3.7,0,0,1,.23,1.13,1.09,1.09,0,0,1-.18.65,1.24,1.24,0,0,1-1.06.41,1.08,1.08,0,0,1-.83-.25,1.69,1.69,0,0,1-.28-.64,5.36,5.36,0,0,0-.21-.69c-.57-1.42-1.11-2.13-1.61-2.13-.29,0-.56.27-.82.81a6.76,6.76,0,0,0-.52,1.74,6.59,6.59,0,0,0-.1,1.1c0,.11,0,.21,0,.31,0,.3.07.47.13.49Z"/>
                <path class="cls-4-width_of_wing"
                      d="M129,60.87a2,2,0,0,1-.37,1.3.78.78,0,0,1-.6.28,1.59,1.59,0,0,1-.83-.3c-.67-.42-1.07-2.08-1.22-5,0-.46,0-.76-.06-.91-.08-1-.12-2-.12-3v-.54a66,66,0,0,1,.33-6.65v-.07l.06,0a2.34,2.34,0,0,1,1.25-.39.72.72,0,0,1,.55.24c.35.39.53,1.35.53,2.89,0,.8-.05,1.75-.14,2.85,0,.36,0,.58,0,.66,0,.44,0,.89,0,1.34a34.33,34.33,0,0,0,.61,6.31A5.59,5.59,0,0,1,129,60.87Z"/>
                <path class="cls-4-width_of_wing"
                      d="M131.8,51.05a1.34,1.34,0,0,1-.89-.33.72.72,0,0,1-.25-.54v0a1.11,1.11,0,0,1,.49-.84,1.56,1.56,0,0,1,1-.32h.21a1.39,1.39,0,0,1,.89.25.7.7,0,0,1,.31.6,1.08,1.08,0,0,1-.41.82,1.58,1.58,0,0,1-1.07.4Zm.59,2q.6,0,.6.51a27.18,27.18,0,0,1,.4,4.89c0,.21,0,.43,0,.65l0,2.65c0,.13-.18.29-.54.46a2.07,2.07,0,0,1-.83.26.43.43,0,0,1-.27-.08,2.62,2.62,0,0,1-.83-1.86,4.73,4.73,0,0,1,0-.58c0-.48,0-1.1.11-1.88,0-.31.05-.55.06-.7,0-.57.06-1.17.06-1.78,0-.21,0-.42,0-.63s0-.28,0-.46a.76.76,0,0,1,0-.15,1.55,1.55,0,0,1,.3-.87A1.25,1.25,0,0,1,132.39,53Z"/>
                <path class="cls-4-width_of_wing"
                      d="M138.64,56.66s1.39.52,4.09,1.56q3.14,1.22,3.33,2.16a4.24,4.24,0,0,0-.24.52.72.72,0,0,1-.69.53,1.34,1.34,0,0,1-.4.06,2.33,2.33,0,0,1-1-.24,5.6,5.6,0,0,1-.68-.33c-.3-.17-.51-.28-.65-.34h0l-1-.49c-.57-.28-1.06-.5-1.46-.67a4.51,4.51,0,0,0-1.53-.4c-.3,0-.47.1-.51.32a3.21,3.21,0,0,0,0,.51c0,.16,0,.34,0,.55s0,.46,0,.64a3.7,3.7,0,0,1,0,.53q-.1.87-.84.87a2.16,2.16,0,0,1-.78-.18,1.07,1.07,0,0,1-.75-.9,2,2,0,0,1,0-.26,5.26,5.26,0,0,1,.15-1.08,9.78,9.78,0,0,0,.25-1.37v-.08a1.06,1.06,0,0,0-.41-.93,1.38,1.38,0,0,1-.64-.84s0-.07,0-.11a1.7,1.7,0,0,1,.22-.73,7.15,7.15,0,0,0,.88-2.13c0-.14,0-.51,0-1.12V50.77c0-.94,0-1.72.05-2.35.12-2.64.56-4,1.3-4h.07c.68.09,1,1.27,1,3.56a50.25,50.25,0,0,1-.41,5.59c.27-.08.66-.23,1.17-.43l1.26-.48a7.14,7.14,0,0,1,2.33-.49h.2c.54,0,.87.09,1,.29a2.42,2.42,0,0,1,.1,1c-.17.36-1,.76-2.52,1.21a18,18,0,0,0-2.39.66c-.64.25-1,.52-1,.78S138.33,56.47,138.64,56.66Z"/>
                <path class="cls-4-width_of_wing"
                      d="M155.47,57.1a2,2,0,0,1,1-.47c.22,0,.33.16.33.49a6.22,6.22,0,0,1-1.66,3.12,7.1,7.1,0,0,1-2.88,2.09,4.68,4.68,0,0,1-1,.12c-1.72,0-3.3-1-4.75-2.92a4.49,4.49,0,0,1-.74-2.73,11.83,11.83,0,0,1,.13-1.59c.16-1.05,1-1.74,2.5-2.07a2.6,2.6,0,0,1,.61-.07,2.56,2.56,0,0,1,1.53.53,4.67,4.67,0,0,1,1.38,1.78,3.73,3.73,0,0,1,.15,1,2.59,2.59,0,0,1-1.3,2.23,2.47,2.47,0,0,1-.56.26,4,4,0,0,0-.47.18c-.13.06-.19.14-.19.24v0a1.06,1.06,0,0,0,.31.5,1.86,1.86,0,0,0,1.41.67,2.7,2.7,0,0,0,.48,0A4.07,4.07,0,0,0,153.73,59,19.86,19.86,0,0,1,155.47,57.1Zm-7,.73a1.2,1.2,0,0,0,.92-.39,1.48,1.48,0,0,0,.39-.9,1,1,0,0,0,0-.17,1.32,1.32,0,0,0-.21-.75,1.13,1.13,0,0,0-.83-.51h-.13a.63.63,0,0,0-.55.29,1.5,1.5,0,0,0-.2.83A1.87,1.87,0,0,0,148.47,57.83Z"/>
                <path class="cls-4-width_of_wing"
                      d="M158.79,56l.07.07c.27.07,1.67.57,4.18,1.49a4.39,4.39,0,0,1,1.9,1.15,1.45,1.45,0,0,1,.34.94,2.18,2.18,0,0,1-.26,1,2.72,2.72,0,0,1-1.46,1,10.26,10.26,0,0,1-2.5.64,9.45,9.45,0,0,1-1.52.13,6.81,6.81,0,0,1-.93-.06c-.77-.11-1.22-.35-1.37-.72a2.58,2.58,0,0,1-.22-1,1.59,1.59,0,0,1,.12-.62.68.68,0,0,1,.64-.47,1.34,1.34,0,0,1,.51.12,5.9,5.9,0,0,0,2.26.56,2.18,2.18,0,0,0,1.64-.64c-.11,0-1.29-.35-3.56-1-1.69-.52-2.54-1.21-2.54-2.08a2.19,2.19,0,0,1,0-.36,2.62,2.62,0,0,1,1.5-2.2,5.22,5.22,0,0,1,2.79-.86h.16a1.74,1.74,0,0,1,.92.25,1.29,1.29,0,0,1,.55.59.89.89,0,0,1,.06.3.76.76,0,0,1-.11.38,1.38,1.38,0,0,1-.86.49l-1.53.25c-.55.13-.82.29-.82.48A.21.21,0,0,0,158.79,56Z"/>
            </g>
        </g>
    </g>
</svg>