<svg xmlns="http://www.w3.org/2000/svg" xmlns:xlink="http://www.w3.org/1999/xlink" viewBox="0 0 1196.15 736.6">
    <defs>
        <style>
            .cls-1-windGlyph{fill:url(#未命名的渐变_54);}.cls-2-windGlyph{fill:url(#未命名的渐变_75);}.cls-3-windGlyph{fill:url(#未命名的渐变_109);}.cls-4-windGlyph{fill:url(#未命名的渐变_111);}.cls-5-windGlyph{fill:url(#未命名的渐变_110);}.cls-6-windGlyph{fill:url(#未命名的渐变_114);}.cls-7-windGlyph{fill:url(#未命名的渐变_62);}.cls-8-windGlyph{fill:url(#未命名的渐变_112);}
        </style>
        <linearGradient id="未命名的渐变_54" y1="-4881.5" x2="1181.06" y2="-4881.5"
                        gradientTransform="matrix(1, 0, 0, -1, 0, -4640.3)" gradientUnits="userSpaceOnUse">
            <stop offset="0" stop-color="#ffca36"/>
            <stop offset="1" stop-color="#f6752d"/>
        </linearGradient>
        <linearGradient id="未命名的渐变_75" x1="712.01" y1="-5111.92" x2="1182.88" y2="-5306.96"
                        gradientTransform="matrix(1, 0, 0, -1, 0, -4640.3)" gradientUnits="userSpaceOnUse">
            <stop offset="0" stop-color="#ffca36"/>
            <stop offset="1" stop-color="#f14528"/>
        </linearGradient>
        <linearGradient id="未命名的渐变_109" x1="941.54" y1="-5029.63" x2="1194.69" y2="-4968.63"
                        gradientTransform="matrix(1, 0, 0, -1, 0, -4640.3)" gradientUnits="userSpaceOnUse">
            <stop offset="0" stop-color="#ffca36"/>
            <stop offset="1" stop-color="#f03827"/>
        </linearGradient>
        <linearGradient id="未命名的渐变_111" x1="971.11" y1="-5090.74" x2="1174.19" y2="-5136.47"
                        gradientTransform="matrix(1, 0, 0, -1, 0, -4640.3)" gradientUnits="userSpaceOnUse">
            <stop offset="0" stop-color="#ffca36"/>
            <stop offset="1" stop-color="#f13f28"/>
        </linearGradient>
        <linearGradient id="未命名的渐变_110" x1="671.04" y1="255.04" x2="934.04" y2="152.65"
                        gradientTransform="translate(0 117.65)" gradientUnits="userSpaceOnUse">
            <stop offset="0" stop-color="#ffca36"/>
            <stop offset="1" stop-color="#fa9631"/>
        </linearGradient>
        <linearGradient id="未命名的渐变_114" x1="57.75" y1="-5175.01" x2="268.86" y2="-5124.14"
                        gradientTransform="matrix(1, 0, 0, -1, 0, -4640.3)" gradientUnits="userSpaceOnUse">
            <stop offset="0" stop-color="#ffca36"/>
            <stop offset="1" stop-color="#f24d29"/>
        </linearGradient>
        <linearGradient id="未命名的渐变_62" x1="361.8" y1="-4950.46" x2="916.93" y2="-4816.68"
                        gradientTransform="matrix(1, 0, 0, -1, 0, -4640.3)" gradientUnits="userSpaceOnUse">
            <stop offset="0" stop-color="#ffca36"/>
            <stop offset="0.75" stop-color="#f8842f"/>
        </linearGradient>
        <linearGradient id="未命名的渐变_112" x1="440.27" y1="204.55" x2="921.16" y2="320.44"
                        gradientTransform="translate(0 341.44)" gradientUnits="userSpaceOnUse">
            <stop offset="0" stop-color="#ffca36"/>
            <stop offset="1" stop-color="#ef2e26"/>
        </linearGradient>
    </defs>
    <g id="图层_2">
        <g id="图层_1-2">
            <path id="windCat1" class="cls-1-windGlyph"
                  d="M0,482.4c37.47-29.35,85.75-47.62,127.83-60,54.51-16,137.71-26.23,192.27-27.35,68.48-1.41,284.48,6,384.07-5.91,124.56-14.92,220.69-54.49,311.57-119.32,72.2-51.5,119-100.28,127.13-146.11,10.54-59.81-28.9-82.31-39-88.06-65.35-37-168.64,40-107.11,118.93,0,0-31.51-11-30-63.1,1.67-56.82,72.55-103.83,131.44-88.57,63.4,16.43,99.35,77.84,75.38,157.24-24.81,82.2-156.77,176.77-277.27,226.77-113.37,47-246.64,63.8-415.49,54.32-137.63-7.73-218.46-13-288.58-5.93C120.28,442.59,78.34,455.63,0,482.4Z"/>
            <path id="windCat5" class="cls-2-windGlyph"
                  d="M700.59,460.05c65.15,40.58,125.61,41.54,180.87,39.7,72.63-2.42,168.76-2.69,235.67,39,56.88,35.43,93.76,86.76,71.76,148.11-13,36.18-48.08,51.7-77.52,49.54-35.81-2.63-62.62-30.07-68.31-53.5-8.51-35.06,13.77-66.11,40.5-72.52-19.55,18.25-31.85,43.71-20.89,67.32,7.91,17,28.46,31.43,54.93,28,30-3.91,49.64-39.07,34.37-77-11.83-29.41-53-64.08-107.46-78.49-42.22-11.16-101.18-13.57-147.51-15.28-42.38-1.56-91.46-10.21-121.88-20.67C745.07,504,714.23,483.1,700.59,460.05Z"/>
            <path id="windCat6" class="cls-3-windGlyph"
                  d="M934.85,416.87c47.81-37.42,123.12-41.31,155-41.5,22.35-.13,47.59-3.17,64.18-10.52,15.42-6.84,31.62-16,25.24-45.2-1.67-7.65-14.52-25.83-41.88-23.2,16.1-7.63,31.92-4.58,42.44,5.41,12,11.39,22.31,30.31,11.09,54.41-10.7,23-48,32.92-69.6,35.25-15.56,1.68-68.67,2.21-105.83,5.48C976.94,400.39,934.85,416.87,934.85,416.87Z"/>
            <path id="windCat7" class="cls-4-windGlyph"
                  d="M959.89,463.05c31.25-3.4,124.85-10.71,155.54-3.85,19.53,4.36,56.2,14.35,80.72,65.66,0,0-20.36-30.27-53.18-46.62-35.58-17.73-69-13.59-95.27-12.95C1017,466.05,988.88,465.86,959.89,463.05Z"/>
            <path id="windCat8" class="cls-5-windGlyph"
                  d="M662.85,368c60.75,0,141.67-24.37,175.64-38.89,30.34-13,65.15-33,89.59-78.21,0,0-22.3,30-47.21,46.54-35.4,23.42-63.75,31.44-89,38.95A1287.38,1287.38,0,0,1,662.85,368Z"/>
            <path id="windCat2" class="cls-6-windGlyph"
                  d="M37.47,496.63c36.75-3.66,88.16-30.31,144.33-25.86,19.94,1.58,60.69,8.12,97.28,54.09,0,0-18.29-16.87-51.11-33.22-35.58-17.72-60.6-12.12-86.95-9.77C110.39,484.6,78.79,499.8,37.47,496.63Z"/>
            <path id="windCat3" class="cls-7-windGlyph"
                  d="M348.75,377.22c64.95-58.49,150.91-71.48,204.61-73.48,51.64-1.93,166.26,3.2,243.3-23.53,40.62-14.1,82.93-43.46,98.73-84.41,11.65-30.21,5.34-53.29-3.83-66.14-12.75-17.89-37.67-25-63-24.93,13-4.7,32.1-2.46,44.85,2.39,16.72,6.35,37.33,24.44,39.28,51.19,2.45,33.78-11,93.58-81.8,126.5-77.58,36.09-188,34.44-256,35.09C469.91,320.91,436.9,329.65,348.75,377.22Z"/>
            <path id="windCat4" class="cls-8-windGlyph"
                  d="M469.74,484.78c42.16,44.91,117.26,63,175.14,75.27,46.33,9.82,146.11,9.35,206.4,38.59,36.32,17.61,60.49,34.62,64.9,62.37,3.94,24.81-21.4,53.13-74,52,18.14,4.6,48.83,5.27,70.79-14.48,13.62-12.25,23.9-34.3,9.07-64.58-11.33-23.12-39.46-41.23-57.79-49.62C840.56,573.61,820,564.62,768,557.11,704.82,548,655.2,546.83,610.82,536.3,573.15,527.38,523.78,516.64,469.74,484.78Z"/>
        </g>
    </g>
</svg>