<svg id="windAnimSvgOverlay" style="position: fixed" xmlns="http://www.w3.org/2000/svg" viewBox="0 0 1301.52 802.79">
    <defs>
        <style>.cls-1{fill:#141414; opacity:0}</style>
    </defs>
    <g id="图层_2_00000059305373355712016010000003975503075062600623_">
        <g id="图层_1-2">
            <path id="windCat1" class="cls-1" d="M1096.7,193.5c-116.9-39-44-176.6,25-193.7c176.6,0,179,54.8,179.8,150.7
			c1.2,149.7-175.2,221.5-299.4,278.9c-234.2,101.4-515.9,54.1-761.7,59c-83.3,2.4-161.8,10.5-239.5,38
			c92.5-76.6,215-101.8,338.2-104.7c238.9-5.6,486.2,31.4,697.7-105.4c71.9-46.6,155.6-85.4,179.9-172.8c22.7-83.3-41-92-89-62
			C1086.8,107.2,1091.7,150.5,1096.7,193.5z"/>
            <path id="windCat5" class="cls-1" d="M1181.7,662.3c-8.4,13.9-19.7,36.7-21.1,53.6c-4.9,39.8,22.2,47.3,56.4,30.6
			c24.6-10.7,24.1-17.8,17.7-41.9c-11.9-44.9-47.2-53.5-87.8-70c-127.5-47.5-320.1,19.4-393.6-124.8c-1.1-2.2-2.3-16.1-1.4-17.8
			c1.3-0.7,14.6,1.3,16,1.6c118.5,27.5,185.6,33.4,280.7,37.1c78.7,3.2,162.5,18,216.6,78.9c68.9,77.6,34.3,195.7-73.3,193.2
			c-93-2.2-137-131.6-31.7-154L1181.7,662.3z"/>
            <path id="windCat3" class="cls-1" d="M896.8,115.7c0.8-4.5,25.5-5.4,29.7-5.1c130.9,9.2,75.9,164.2-33.1,215.1
			c-147.9,69-345.5,4.2-491.4,85.4c-10.4,3.5-42.4-8.9-46.9,0c59-117.6,202.6-112.5,305.9-110.9c85.7-4.3,170.8,1.8,240.6-54
			c41.2-33,54.4-94,22.9-119.4C920.9,123.9,896,120.6,896.8,115.7z"/>
            <path id="windCat4" class="cls-1" d="M514.3,509.8c18.9,6.9,38.4,29.1,57.2,36.4c41.3,16.5,78.4,23.3,122.3,29.5
			c87.3,15.2,200.1,17,278.2,64.7c44.1,24.5,78.6,97.6,24.3,130.7c-58.1,35.4-112.7,2.9-112.7,2.9c19.7-21,93.1-25.3,70.7-61.7
			c-18.7-30.4-55.1-49-88.7-58.8c-69.8-17.9-144.9,5.2-214.9-12.1c-54.1-13.2-118.2-66.9-158.5-107.4L514.3,509.8z"/>
            <path id="windCat6" class="cls-1" d="M1017,451c-7.4-9.8,5.4-17,9.3-20.1c64.2-52,99.3-28.1,231.4-54.4c25.9-5.2,8.9-25.3-2.6-33.3
			c-6.9-4.8-13.2-10.8-19.4-13.2c-8.5-3.2-5.2-11.8,3.3-15.1c5.7-1.4,16.4,1.1,21.5,1.7c40.3,4.8,57.6,66.6,18.9,89.8
			c-33.1,24.7-75.4,20.8-114.3,23.6c-40-1.4-76.8,15.2-115.2,22C1041.4,453.4,1021.8,457.3,1017,451z"/>
            <path id="windCat8" class="cls-1" d="M717.4,401.4c43.4-37.6,154.4-45.6,261.2-112.5c16.4-10.2,49.6-74.7,77.6-52.1
			C1084,351.1,783.5,419.6,717.4,401.4z"/>
            <path id="windCat7" class="cls-1" d="M1301.5,575.7c-103.2-68.2-352.1-37.6-274.7-71.1C1122.9,463.2,1306.5,461.8,1301.5,575.7z"/>
            <path id="windCat2" class="cls-1" d="M45.1,539.7c94.8-50.5,289.5-72.6,310,20C355.1,559.7,131.5,586.7,45.1,539.7z"/>
        </g>
    </g>
</svg>