<svg id="windAnimSvgOverlay" style="position: fixed" xmlns="http://www.w3.org/2000/svg" viewBox="0 0 1301.52 802.79">
    <defs>
        <style>.cls-1{fill:#fff; opacity:0}</style>
    </defs>
    <g id="图层_2" data-name="图层 2">
        <g id="图层_1-2" data-name="图层 1">
            <path class="cls-1" id="windCat1"
                  d="M1084.52,171.46c-11.64-3.7-19-12.42-25-22.41-12.84-21.61-13.89-44.9-6.33-68.08,12.58-38.58,39.69-63,78.12-75.07,19.2-6,38.89-7.79,58.6-3.62,32.76,6.93,58.34,24.64,76.27,53.12,9,14.28,15.43,29.5,16.86,46.44.93,11.12,2.55,22.41,1.55,33.41a166.9,166.9,0,0,1-17.83,60.89A279.58,279.58,0,0,1,1236.24,244c-20.39,25.59-44.2,47.69-69.93,67.81A822.56,822.56,0,0,1,1067.57,378c-28.74,16.42-58.28,31.26-89.1,43.31-22.92,9-46.07,17.53-69.56,24.86-20.22,6.31-41,11-61.67,15.72-16.78,3.81-33.72,7.11-50.74,9.64-20.28,3-40.68,5.22-61.08,7.33-54.37,5.61-108.93,6.25-163.49,4.93-27.55-.67-55.06-3-82.59-4.5-16.35-.88-32.71-1.45-49.06-2.25-21.94-1.07-43.9-1.79-65.8-3.42-44.25-3.29-88.53-2.14-132.79-1.23-16.09.33-32.14,2.95-48.2,4.63-10.66,1.11-21.35,2.1-32,3.68-9.76,1.45-19.48,3.38-29.11,5.55-12.8,2.87-25.65,5.66-38.2,9.41-18.31,5.47-36.42,11.63-54.53,17.76-11.38,3.86-22.57,8.24-33.88,12.28a24.31,24.31,0,0,1-4.95.69L0,525.08c3.12-2.67,6.07-5.59,9.4-8,26.54-18.89,56.09-32,86.28-43.55,17.11-6.56,34.71-12,52.35-17,13-3.71,26.46-6.12,39.77-8.8,14.4-2.9,28.86-5.51,43.32-8.11,4.72-.86,9.49-1.42,14.26-1.93,11.58-1.26,23.15-2.83,34.77-3.53,23.17-1.38,46.35-2.66,69.55-3.25,33.83-.86,67.67-1.54,101.51-1.46,72.38.16,144.75,1.24,217.13,1.11,21.27,0,42.54-2.78,63.8-4.49,12.87-1,25.75-2.16,38.55-3.79,11.53-1.47,23-3.46,34.43-5.63,15.08-2.87,30.22-5.57,45.07-9.37,20.84-5.33,41.59-11.13,62.1-17.6a536.57,536.57,0,0,0,78.94-31.62c22.24-11.1,44.3-22.65,65.79-35.12,33.7-19.56,65.23-42.38,95.49-66.9,24-19.47,46-41,63.51-66.72,10.91-16,20.16-33.14,23.75-52.27,6.82-36.36-1.93-67.73-33-90.46a74.89,74.89,0,0,0-42.66-14.55c-25.77-.83-49,6.25-68.6,23.15-16.72,14.38-26.87,32.46-30.07,54.66-3,20.81,3.94,38.15,16.09,54.22,1.53,2,2.73,4.3,4.09,6.47Z"/>
            <path class="cls-1" id="windCat5"
                  d="M1171.25,668.18c-1.76,2.83-3.47,5.7-5.3,8.48-7.12,10.82-13.89,21.74-15.11,35.14-1.94,21.32,7.55,36.73,25.08,47.47,16.33,10,33.83,11.48,51.45,3.62,11.35-5.07,19-14,23.94-25.52,5.69-13.29,5.29-27,2.39-40.37a79.35,79.35,0,0,0-17.24-34.16c-21.36-25.41-48.47-42.47-79.19-54.3a255.58,255.58,0,0,0-60-15.11c-15.26-1.94-30.57-3.73-45.9-4.85-21.29-1.54-42.64-2.17-63.94-3.6-19.73-1.33-39.54-2.39-59.12-5.07-22.14-3-44.37-6.48-66-12-33.09-8.4-63.44-23-88.5-46.92-4.82-4.61-9.09-9.8-13.55-14.79a7.81,7.81,0,0,1-1.82-3.21c-.31-1.26-.56-3.42.07-3.85a4.78,4.78,0,0,1,4.2-.25c5.29,3,10.4,6.25,15.56,9.44,23.9,14.74,49.8,23.8,77.43,28.72,31.37,5.58,63,5.48,94.61,5.35s63.34-.51,95,.15c15.83.33,31.7,2.17,47.42,4.33,16,2.2,31.91,5,47.58,8.69A257.14,257.14,0,0,1,1215,586.21c17.78,10.83,34.22,23.24,48.45,38.44a157.92,157.92,0,0,1,26.36,38.53c10.75,21.76,13.31,44.65,8.82,67.7-5.59,28.69-21.58,50.77-48.68,63.75-18,8.64-37,10.24-56.1,5.63-21.28-5.13-38.69-16.69-51.08-35.2-8.39-12.53-13.27-26.36-12.11-41.27,1.89-24.41,13.81-43.15,35.3-55.43a24.13,24.13,0,0,1,4.11-1.47Z"/>
            <path class="cls-1" id="windCat3"
                  d="M912,114.14a49.34,49.34,0,0,1,28.45-.19c13.55,3.73,25.82,9.64,35.3,20.52A69.94,69.94,0,0,1,992.84,174c3.16,29.78-6.21,56.14-22.51,80.44-21.55,32.12-51.36,54-87.38,66.94-17.58,6.3-36.14,10-54.45,14.08-14.84,3.28-29.94,5.45-45,7.78-7.82,1.21-15.74,1.87-23.64,2.47-17.07,1.28-34.15,3-51.25,3.41-39,1-78,1.11-117,2.05-16.17.39-32.4,1.32-48.45,3.25-14.57,1.76-29,5.07-43.38,7.94-32.43,6.43-62.45,19.34-91.67,34.33-8.82,4.52-17.42,9.45-26.16,14.12a29.75,29.75,0,0,1-4.31,1.53l-1-1.23c4.24-3.76,8.25-7.81,12.74-11.23A336,336,0,0,1,467.3,356a343,343,0,0,1,58.48-17.48c12.7-2.67,25.68-4,38.57-5.74,35.62-4.7,71.45-4.67,107.3-5,21.8-.2,43.59-1.63,65.36-2.89,15.07-.88,30.2-1.74,45.12-3.84,17.82-2.52,35.53-6,53.12-9.76,12.86-2.77,25.61-6.25,38.14-10.26,19.27-6.17,36.62-16.19,52.61-28.52,18.93-14.59,33.78-32.62,43.7-54.37,8-17.64,11.84-36.28,7.16-55.45-5.56-22.77-20.94-36.41-43.2-42.59-5.83-1.62-11.81-2.7-17.69-4.16A23.28,23.28,0,0,1,912,114.14Z"/>
            <path class="cls-1" id="windCat4"
                  d="M515.21,530.25a27.46,27.46,0,0,1,4.47,1.32c16.8,8.22,33.25,17.24,50.43,24.53,13.89,5.88,28.51,10.17,43.06,14.29,13.69,3.88,27.64,7,41.6,9.76q22.17,4.4,44.59,7.46c26.69,3.71,53.45,7,80.18,10.41,26.12,3.37,52.43,5.65,78.31,10.34,35.85,6.49,70.57,17.07,101.81,36.7,16.9,10.62,31.65,23.67,42,40.9,6.41,10.63,10.78,22.46,10.25,34.89-.86,20.07-10.23,35.88-27.55,46.53-16.51,10.14-34.75,13.26-53.81,12.66-3.41-.11-7-.45-8.08-5.65,2.69-.48,5.18-1.07,7.7-1.34,12.66-1.32,24.85-4.27,36.29-10,19.12-9.56,31.09-26.91,27.29-46.28-2.66-13.56-10.46-24.36-20.4-33.67C959,669.62,942.15,659.93,924,652.7c-14.73-5.87-29.65-11.65-45-15.54a595.11,595.11,0,0,0-58.67-11.41c-26.35-3.92-52.88-6.61-79.32-10-12.2-1.55-24.42-3.08-36.53-5.23-12.84-2.27-25.62-5-38.31-8-13.85-3.31-27.73-6.66-41.29-10.94-32.21-10.17-63.14-23.22-90.83-43-4.78-3.42-9.45-7.05-14-10.83-2.16-1.82-3.82-4.23-5.71-6.37Z"/>
            <path class="cls-1" id="windCat6"
                  d="M1019.6,449.62c4.25-2.86,8.35-6,12.79-8.54,20.36-11.72,42.28-19.62,65-25.16,28.1-6.84,56.82-8.11,85.61-8.67,17.76-.34,35.56-1.24,52.87-5.61,15.1-3.82,29.11-10.06,39.79-22,6.66-7.46,8-23.15,3.73-32.15s-10.42-16.43-20-19.77c-5.29-1.86-11.24-1.81-16.88-2.72-1.93-.32-3.82-.92-5.73-1.39-.11-.64-.21-1.28-.32-1.92,2.58-1.38,5-3.37,7.76-4.05,22.67-5.6,43.18,7.39,52.22,26.87,5.59,12.05,6.64,24.17,2.49,36.62-3.54,10.66-10.68,18.75-19.67,25.27-17.4,12.61-37.28,18.52-58.3,20.39-18.62,1.66-37.33,2.1-56,3.2-15.07.89-30.13,1.79-45.17,3-12.08,1-24.22,1.87-36.13,4-13.34,2.34-26.48,5.88-39.66,9.12-6.41,1.57-12.68,3.69-19.06,5.4-1.41.38-3,.06-4.53.06C1020.19,450.91,1019.9,450.26,1019.6,449.62Z"/>
            <path class="cls-1" id="windCat8"
                  d="M733.72,398.89c6.1-1.75,12.15-3.66,18.3-5.23,10.89-2.78,21.83-5.35,32.74-8,7.07-1.73,14.15-3.36,21.19-5.19,9.4-2.43,18.79-4.89,28.13-7.54,12.9-3.67,25.79-7.41,38.62-11.34,39.37-12.05,76.6-28.39,106.82-57.23,9.8-9.35,17.67-20.72,26.44-31.15,1-1.19,2.15-2.26,4.14-4.34-.72,9.56-5.32,15.95-9.44,22.38-16.77,26.19-39.95,45.29-67.22,59.69-16.19,8.55-33.35,14.64-50.8,20-12.07,3.71-24,7.88-36.12,11.4-7.72,2.24-15.66,3.71-23.52,5.44-9.19,2-18.36,4.24-27.63,5.89-9.88,1.75-19.85,3.07-29.82,4.34-9.06,1.16-18.17,2-27.26,2.94a27.75,27.75,0,0,1-4.07-.15Z"/>
            <path class="cls-1" id="windCat7"
                  d="M1298.18,566.82c-12.4-11.26-23.51-22.06-35.38-32-17.16-14.32-37.47-21.62-59.38-25.36-19.56-3.34-39.18-1.93-58.79-1.94-24.18,0-48.35.08-72.53,0a129.79,129.79,0,0,1-14.44-1.12,42.9,42.9,0,0,1-6.45-1.77l-.09-1.42c1.76-.66,3.48-1.78,5.27-1.91,14.61-1.09,29.24-2,43.86-3,15.06-1,30.11-2.41,45.18-3.19,25-1.28,49.84-.72,74.38,5.14,21.74,5.18,39.81,16.44,55.35,32.11,8.55,8.62,16.68,17.6,21.62,28.92A38.51,38.51,0,0,1,1298.18,566.82Z"/>
            <path class="cls-1" id="windCat2"
                  d="M45.09,539.69c8.57-2,16.22-3.74,23.81-5.67,9.56-2.43,19.07-5,28.59-7.58,13.27-3.6,26.37-8,39.82-10.73,24.8-5,49.76-7.3,75.11-2.86,32.84,5.76,60.07,21.33,83,45,1.85,1.91,2.9,4.59,4.33,6.91l-1.17,1.31c-4.65-3.1-9.44-6-13.94-9.34-21.93-16.12-46.24-27.07-73-31.82-15.46-2.74-31.24-3.77-47-.86-16.91,3.13-33.89,5.87-50.81,8.93-11.41,2.07-22.75,4.53-34.16,6.55-6.85,1.2-13.78,2-20.7,2.76C54.55,542.8,50,543.13,45.09,539.69Z"/>
        </g>
    </g>
</svg>