<?xml version="1.0" encoding="utf-8"?>
<!-- Generator: Adobe Illustrator 26.0.3, SVG Export Plug-In . SVG Version: 6.00 Build 0)  -->
<svg version="1.1" id="图层_1" xmlns="http://www.w3.org/2000/svg" xmlns:xlink="http://www.w3.org/1999/xlink" x="0px" y="0px"
	 viewBox="0 0 1196.2 736.6" style="enable-background:new 0 0 1196.2 736.6;" xml:space="preserve">
<style type="text/css">
	.st0{fill:url(#SVGID_1_);}
	.st1{fill:url(#SVGID_00000139254904626192631610000012504647734367480989_);}
	.st2{fill:url(#SVGID_00000134959079740992205860000007424528711981443476_);}
	.st3{fill:url(#SVGID_00000123416687877714138030000008068255970697362318_);}
	.st4{fill:url(#SVGID_00000170240994376248330850000014835208367377064631_);}
	.st5{fill:url(#SVGID_00000146499205612444019670000002796841521673880728_);}
	.st6{fill:url(#SVGID_00000012458820167798037380000007919590037937441935_);}
	.st7{fill:url(#SVGID_00000110472705160177740160000016907304450545247933_);}
</style>
<g>
	<g>
		
			<linearGradient id="SVGID_1_" gradientUnits="userSpaceOnUse" x1="0" y1="5961.5" x2="1181.0552" y2="5961.5" gradientTransform="matrix(1 0 0 1 0 -5720.2998)">
			<stop  offset="0" style="stop-color:#FFCA36"/>
			<stop  offset="1" style="stop-color:#F6752D"/>
		</linearGradient>
		<path class="st0" d="M0,482.4c37.5-29.4,85.8-47.6,127.8-60c54.5-16,137.7-26.2,192.3-27.4c68.5-1.4,284.5,6,384.1-5.9
			c124.6-14.9,220.7-54.5,311.6-119.3c72.2-51.5,119-100.3,127.1-146.1c10.5-59.8-28.9-82.3-39-88.1c-65.3-37-168.6,40-107.1,118.9
			c0,0-31.5-11-30-63.1c1.7-56.8,72.6-103.8,131.4-88.6c63.4,16.4,99.3,77.8,75.4,157.2c-24.8,82.2-156.8,176.8-277.3,226.8
			c-113.4,47-246.6,63.8-415.5,54.3c-137.6-7.7-218.5-13-288.6-5.9C120.3,442.6,78.3,455.6,0,482.4z"/>
		
			<linearGradient id="SVGID_00000154405300030415642880000010249948612789649549_" gradientUnits="userSpaceOnUse" x1="712.0084" y1="6191.9238" x2="1182.8784" y2="6386.9639" gradientTransform="matrix(1 0 0 1 0 -5720.2998)">
			<stop  offset="0" style="stop-color:#FFCA36"/>
			<stop  offset="1" style="stop-color:#F14528"/>
		</linearGradient>
		<path style="fill:url(#SVGID_00000154405300030415642880000010249948612789649549_);" d="M700.6,460
			c65.2,40.6,125.6,41.5,180.9,39.7c72.6-2.4,168.8-2.7,235.7,39c56.9,35.4,93.8,86.8,71.8,148.1c-13,36.2-48.1,51.7-77.5,49.5
			c-35.8-2.6-62.6-30.1-68.3-53.5c-8.5-35.1,13.8-66.1,40.5-72.5c-19.6,18.2-31.8,43.7-20.9,67.3c7.9,17,28.5,31.4,54.9,28
			c30-3.9,49.6-39.1,34.4-77c-11.8-29.4-53-64.1-107.5-78.5c-42.2-11.2-101.2-13.6-147.5-15.3c-42.4-1.6-91.5-10.2-121.9-20.7
			C745.1,504,714.2,483.1,700.6,460z"/>
		
			<linearGradient id="SVGID_00000145779598313327699640000012074311229192391340_" gradientUnits="userSpaceOnUse" x1="941.5397" y1="6109.6284" x2="1194.6896" y2="6048.6284" gradientTransform="matrix(1 0 0 1 0 -5720.2998)">
			<stop  offset="0" style="stop-color:#FFCA36"/>
			<stop  offset="1" style="stop-color:#F03827"/>
		</linearGradient>
		<path style="fill:url(#SVGID_00000145779598313327699640000012074311229192391340_);" d="M934.8,416.9
			c47.8-37.4,123.1-41.3,155-41.5c22.3-0.1,47.6-3.2,64.2-10.5c15.4-6.8,31.6-16,25.2-45.2c-1.7-7.6-14.5-25.8-41.9-23.2
			c16.1-7.6,31.9-4.6,42.4,5.4c12,11.4,22.3,30.3,11.1,54.4c-10.7,23-48,32.9-69.6,35.2c-15.6,1.7-68.7,2.2-105.8,5.5
			C976.9,400.4,934.8,416.9,934.8,416.9z"/>
		
			<linearGradient id="SVGID_00000129891553497893349920000007201226549110083481_" gradientUnits="userSpaceOnUse" x1="971.1094" y1="6170.7427" x2="1174.1893" y2="6216.4727" gradientTransform="matrix(1 0 0 1 0 -5720.2998)">
			<stop  offset="0" style="stop-color:#FFCA36"/>
			<stop  offset="1" style="stop-color:#F13F28"/>
		</linearGradient>
		<path style="fill:url(#SVGID_00000129891553497893349920000007201226549110083481_);" d="M959.9,463
			c31.2-3.4,124.8-10.7,155.5-3.9c19.5,4.4,56.2,14.4,80.7,65.7c0,0-20.4-30.3-53.2-46.6c-35.6-17.7-69-13.6-95.3-13
			C1017,466,988.9,465.9,959.9,463z"/>
		
			<linearGradient id="SVGID_00000035500889970010414150000011300153185450462118_" gradientUnits="userSpaceOnUse" x1="671.0461" y1="1160.9442" x2="934.0461" y2="1263.3342" gradientTransform="matrix(1 0 0 -1 0 1533.65)">
			<stop  offset="0" style="stop-color:#FFCA36"/>
			<stop  offset="1" style="stop-color:#FA9631"/>
		</linearGradient>
		<path style="fill:url(#SVGID_00000035500889970010414150000011300153185450462118_);" d="M662.8,368c60.8,0,141.7-24.4,175.6-38.9
			c30.3-13,65.2-33,89.6-78.2c0,0-22.3,30-47.2,46.5c-35.4,23.4-63.8,31.4-89,39C749.4,349.1,706.4,359.7,662.8,368z"/>
		
			<linearGradient id="SVGID_00000063617203954134035840000010399263764858900414_" gradientUnits="userSpaceOnUse" x1="57.7508" y1="6255.0132" x2="268.8608" y2="6204.1436" gradientTransform="matrix(1 0 0 1 0 -5720.2998)">
			<stop  offset="0" style="stop-color:#FFCA36"/>
			<stop  offset="1" style="stop-color:#F24D29"/>
		</linearGradient>
		<path style="fill:url(#SVGID_00000063617203954134035840000010399263764858900414_);" d="M37.5,496.6
			c36.8-3.7,88.2-30.3,144.3-25.9c19.9,1.6,60.7,8.1,97.3,54.1c0,0-18.3-16.9-51.1-33.2c-35.6-17.7-60.6-12.1-86.9-9.8
			C110.4,484.6,78.8,499.8,37.5,496.6z"/>
		
			<linearGradient id="SVGID_00000071528075157482698440000015984937035807708317_" gradientUnits="userSpaceOnUse" x1="361.7993" y1="6030.457" x2="916.9293" y2="5896.6772" gradientTransform="matrix(1 0 0 1 0 -5720.2998)">
			<stop  offset="0" style="stop-color:#FFCA36"/>
			<stop  offset="0.75" style="stop-color:#F8842F"/>
		</linearGradient>
		<path style="fill:url(#SVGID_00000071528075157482698440000015984937035807708317_);" d="M348.8,377.2
			c65-58.5,150.9-71.5,204.6-73.5c51.6-1.9,166.3,3.2,243.3-23.5c40.6-14.1,82.9-43.5,98.7-84.4c11.7-30.2,5.3-53.3-3.8-66.1
			c-12.8-17.9-37.7-25-63-24.9c13-4.7,32.1-2.5,44.8,2.4c16.7,6.3,37.3,24.4,39.3,51.2c2.5,33.8-11,93.6-81.8,126.5
			c-77.6,36.1-188,34.4-256,35.1C469.9,320.9,436.9,329.6,348.8,377.2z"/>
		
			<linearGradient id="SVGID_00000008850070317434175360000015946326593090344342_" gradientUnits="userSpaceOnUse" x1="440.2693" y1="1211.4474" x2="921.1593" y2="1095.5574" gradientTransform="matrix(1 0 0 -1 0 1757.4399)">
			<stop  offset="0" style="stop-color:#FFCA36"/>
			<stop  offset="1" style="stop-color:#EF2E26"/>
		</linearGradient>
		<path style="fill:url(#SVGID_00000008850070317434175360000015946326593090344342_);" d="M469.7,484.8
			c42.2,44.9,117.3,63,175.1,75.3c46.3,9.8,146.1,9.3,206.4,38.6c36.3,17.6,60.5,34.6,64.9,62.4c3.9,24.8-21.4,53.1-74,52
			c18.1,4.6,48.8,5.3,70.8-14.5c13.6-12.2,23.9-34.3,9.1-64.6c-11.3-23.1-39.5-41.2-57.8-49.6c-23.7-10.7-44.3-19.7-96.3-27.2
			c-63.2-9.1-112.8-10.3-157.2-20.8C573.2,527.4,523.8,516.6,469.7,484.8z"/>
	</g>
</g>
</svg>
